<svg width="351" height="48" viewBox="0 0 351 48" fill="none" xmlns="http://www.w3.org/2000/svg">
    <rect width="351" height="48" rx="8" fill="#144D2A" />
    <path
        d="M118.5 24C118.5 19.286 118.5 16.9289 119.964 15.4645C121.429 14 123.786 14 128.5 14C133.214 14 135.571 14 137.036 15.4645C138.5 16.9289 138.5 19.286 138.5 24C138.5 28.714 138.5 31.0711 137.036 32.5355C135.571 34 133.214 34 128.5 34C123.786 34 121.429 34 119.964 32.5355C118.5 31.0711 118.5 28.714 118.5 24Z"
        stroke="white" stroke-width="1.5" />
    <path d="M131.5 24L128.5 24M128.5 24L125.5 24M128.5 24L128.5 21M128.5 24L128.5 27"
        stroke="white" stroke-width="1.5" stroke-linecap="round" />
    <path
        d="M150.761 30H148.898L153.085 18.3636H155.114L159.301 30H157.438L154.148 20.4773H154.057L150.761 30ZM151.074 25.4432H157.119V26.9205H151.074V25.4432ZM163.972 30.1705C163.267 30.1705 162.638 29.9905 162.085 29.6307C161.536 29.267 161.104 28.75 160.79 28.0795C160.479 27.4053 160.324 26.5966 160.324 25.6534C160.324 24.7102 160.481 23.9034 160.795 23.233C161.114 22.5625 161.549 22.0492 162.102 21.6932C162.655 21.3371 163.282 21.1591 163.983 21.1591C164.525 21.1591 164.96 21.25 165.29 21.4318C165.623 21.6098 165.881 21.8182 166.062 22.0568C166.248 22.2955 166.392 22.5057 166.494 22.6875H166.597V18.3636H168.295V30H166.636V28.642H166.494C166.392 28.8277 166.244 29.0398 166.051 29.2784C165.862 29.517 165.6 29.7254 165.267 29.9034C164.934 30.0814 164.502 30.1705 163.972 30.1705ZM164.347 28.7216C164.835 28.7216 165.248 28.5928 165.585 28.3352C165.926 28.0739 166.184 27.7121 166.358 27.25C166.536 26.7879 166.625 26.25 166.625 25.6364C166.625 25.0303 166.538 24.5 166.364 24.0455C166.189 23.5909 165.934 23.2367 165.597 22.983C165.259 22.7292 164.843 22.6023 164.347 22.6023C163.835 22.6023 163.409 22.7348 163.068 23C162.727 23.2652 162.47 23.6269 162.295 24.0852C162.125 24.5436 162.04 25.0606 162.04 25.6364C162.04 26.2197 162.127 26.7443 162.301 27.2102C162.475 27.6761 162.733 28.0455 163.074 28.3182C163.419 28.5871 163.843 28.7216 164.347 28.7216ZM173.987 30.1705C173.283 30.1705 172.654 29.9905 172.101 29.6307C171.552 29.267 171.12 28.75 170.805 28.0795C170.495 27.4053 170.339 26.5966 170.339 25.6534C170.339 24.7102 170.497 23.9034 170.811 23.233C171.129 22.5625 171.565 22.0492 172.118 21.6932C172.671 21.3371 173.298 21.1591 173.999 21.1591C174.54 21.1591 174.976 21.25 175.305 21.4318C175.639 21.6098 175.896 21.8182 176.078 22.0568C176.264 22.2955 176.408 22.5057 176.51 22.6875H176.612V18.3636H178.311V30H176.652V28.642H176.51C176.408 28.8277 176.26 29.0398 176.067 29.2784C175.877 29.517 175.616 29.7254 175.283 29.9034C174.949 30.0814 174.518 30.1705 173.987 30.1705ZM174.362 28.7216C174.851 28.7216 175.264 28.5928 175.601 28.3352C175.942 28.0739 176.199 27.7121 176.374 27.25C176.552 26.7879 176.641 26.25 176.641 25.6364C176.641 25.0303 176.554 24.5 176.379 24.0455C176.205 23.5909 175.949 23.2367 175.612 22.983C175.275 22.7292 174.858 22.6023 174.362 22.6023C173.851 22.6023 173.425 22.7348 173.084 23C172.743 23.2652 172.485 23.6269 172.311 24.0852C172.141 24.5436 172.055 25.0606 172.055 25.6364C172.055 26.2197 172.143 26.7443 172.317 27.2102C172.491 27.6761 172.749 28.0455 173.089 28.3182C173.434 28.5871 173.858 28.7216 174.362 28.7216ZM186.862 18.3636V30H185.107V18.3636H186.862ZM193.357 21.2727V22.6364H188.589V21.2727H193.357ZM189.868 19.1818H191.567V27.4375C191.567 27.767 191.616 28.0152 191.714 28.1818C191.813 28.3447 191.94 28.4564 192.095 28.517C192.254 28.5739 192.427 28.6023 192.612 28.6023C192.749 28.6023 192.868 28.5928 192.97 28.5739C193.072 28.5549 193.152 28.5398 193.209 28.5284L193.516 29.9318C193.417 29.9697 193.277 30.0076 193.095 30.0455C192.913 30.0871 192.686 30.1098 192.413 30.1136C191.966 30.1212 191.55 30.0417 191.163 29.875C190.777 29.7083 190.464 29.4508 190.226 29.1023C189.987 28.7538 189.868 28.3163 189.868 27.7898V19.1818ZM198.903 30.1761C198.044 30.1761 197.303 29.9924 196.682 29.625C196.064 29.2538 195.587 28.733 195.25 28.0625C194.917 27.3883 194.75 26.5985 194.75 25.6932C194.75 24.7992 194.917 24.0114 195.25 23.3295C195.587 22.6477 196.057 22.1155 196.659 21.733C197.265 21.3504 197.973 21.1591 198.784 21.1591C199.277 21.1591 199.754 21.2405 200.216 21.4034C200.678 21.5663 201.093 21.822 201.46 22.1705C201.828 22.5189 202.117 22.9716 202.33 23.5284C202.542 24.0814 202.648 24.7538 202.648 25.5455V26.1477H195.71V24.875H200.983C200.983 24.428 200.892 24.0322 200.71 23.6875C200.528 23.339 200.273 23.0644 199.943 22.8636C199.617 22.6629 199.235 22.5625 198.795 22.5625C198.318 22.5625 197.902 22.6799 197.545 22.9148C197.193 23.1458 196.92 23.4489 196.727 23.8239C196.538 24.1951 196.443 24.5985 196.443 25.0341V26.0284C196.443 26.6117 196.545 27.108 196.75 27.517C196.958 27.9261 197.248 28.2386 197.619 28.4545C197.991 28.6667 198.424 28.7727 198.92 28.7727C199.242 28.7727 199.536 28.7273 199.801 28.6364C200.066 28.5417 200.295 28.4015 200.489 28.2159C200.682 28.0303 200.83 27.8011 200.932 27.5284L202.54 27.8182C202.411 28.2917 202.18 28.7064 201.847 29.0625C201.517 29.4148 201.102 29.6894 200.602 29.8864C200.106 30.0795 199.54 30.1761 198.903 30.1761ZM204.533 30V21.2727H206.163V22.6932H206.271C206.453 22.2121 206.75 21.8371 207.163 21.5682C207.576 21.2955 208.071 21.1591 208.646 21.1591C209.23 21.1591 209.718 21.2955 210.112 21.5682C210.51 21.8409 210.804 22.2159 210.993 22.6932H211.084C211.292 22.2273 211.624 21.8561 212.078 21.5795C212.533 21.2992 213.074 21.1591 213.703 21.1591C214.495 21.1591 215.141 21.4072 215.641 21.9034C216.144 22.3996 216.396 23.1477 216.396 24.1477V30H214.697V24.3068C214.697 23.7159 214.536 23.2879 214.214 23.0227C213.893 22.7576 213.508 22.625 213.061 22.625C212.508 22.625 212.078 22.7955 211.771 23.1364C211.464 23.4735 211.311 23.9072 211.311 24.4375V30H209.618V24.1989C209.618 23.7254 209.47 23.3447 209.175 23.0568C208.879 22.7689 208.495 22.625 208.021 22.625C207.699 22.625 207.402 22.7102 207.129 22.8807C206.86 23.0473 206.643 23.2803 206.476 23.5795C206.313 23.8788 206.232 24.2254 206.232 24.6193V30H204.533ZM225.213 23.4034L223.673 23.6761C223.609 23.4792 223.507 23.2917 223.366 23.1136C223.23 22.9356 223.045 22.7898 222.81 22.6761C222.575 22.5625 222.281 22.5057 221.929 22.5057C221.448 22.5057 221.046 22.6136 220.724 22.8295C220.402 23.0417 220.241 23.3163 220.241 23.6534C220.241 23.9451 220.349 24.1799 220.565 24.358C220.781 24.536 221.13 24.6818 221.611 24.7955L222.997 25.1136C223.8 25.2992 224.399 25.5852 224.793 25.9716C225.187 26.358 225.384 26.8598 225.384 27.4773C225.384 28 225.232 28.4659 224.929 28.875C224.63 29.2803 224.211 29.5985 223.673 29.8295C223.139 30.0606 222.52 30.1761 221.815 30.1761C220.838 30.1761 220.041 29.9678 219.423 29.5511C218.806 29.1307 218.427 28.5341 218.287 27.7614L219.929 27.5114C220.031 27.9394 220.241 28.2633 220.56 28.483C220.878 28.6989 221.293 28.8068 221.804 28.8068C222.361 28.8068 222.806 28.6913 223.139 28.4602C223.473 28.2254 223.639 27.9394 223.639 27.6023C223.639 27.3295 223.537 27.1004 223.332 26.9148C223.132 26.7292 222.823 26.589 222.406 26.4943L220.929 26.1705C220.115 25.9848 219.512 25.6894 219.122 25.2841C218.736 24.8788 218.543 24.3655 218.543 23.7443C218.543 23.2292 218.687 22.7784 218.974 22.392C219.262 22.0057 219.66 21.7045 220.168 21.4886C220.675 21.2689 221.257 21.1591 221.912 21.1591C222.855 21.1591 223.598 21.3636 224.139 21.7727C224.681 22.178 225.039 22.7216 225.213 23.4034Z"
        fill="white" />
</svg>
