<svg width="350" height="128" viewBox="0 0 350 128" fill="none" xmlns="http://www.w3.org/2000/svg">
    <rect x="0.5" y="0.5" width="349" height="127" rx="7.5" fill="white" />
    <rect x="0.5" y="0.5" width="349" height="127" rx="7.5" stroke="#E2E2E2" />
    <path
        d="M201.667 49.0002C201.667 61.571 201.667 67.8563 197.762 71.7616C193.856 75.6668 187.571 75.6668 175 75.6668C162.429 75.6668 156.144 75.6668 152.239 71.7616C148.333 67.8563 148.333 61.571 148.333 49.0002C148.333 36.4294 148.333 30.144 152.239 26.2387C156.144 22.3335 162.429 22.3335 175 22.3335"
        stroke="#C3C3C3" stroke-width="2.5" stroke-linecap="round" />
    <path
        d="M148.333 50.333L153.004 46.246C155.434 44.1198 159.097 44.2417 161.38 46.5249L172.819 57.9642C174.652 59.7968 177.537 60.0467 179.657 58.5565L180.452 57.9976C183.504 55.8532 187.632 56.1017 190.404 58.5966L199 66.333"
        stroke="#C3C3C3" stroke-width="2.5" stroke-linecap="round" />
    <path
        d="M183 31.6668H192.333M192.333 31.6668H201.667M192.333 31.6668V41.0002M192.333 31.6668V22.3335"
        stroke="#C3C3C3" stroke-width="2.5" stroke-linecap="round" />
    <path
        d="M141.035 99H139.405L143.069 88.8182H144.844L148.508 99H146.877L143.998 90.6676H143.919L141.035 99ZM141.309 95.0128H146.599V96.3054H141.309V95.0128ZM152.594 99.1491C151.978 99.1491 151.428 98.9917 150.944 98.6768C150.463 98.3587 150.085 97.9062 149.81 97.3196C149.538 96.7296 149.403 96.022 149.403 95.1967C149.403 94.3714 149.54 93.6655 149.815 93.0788C150.094 92.4922 150.475 92.0431 150.959 91.7315C151.443 91.42 151.991 91.2642 152.604 91.2642C153.078 91.2642 153.459 91.3438 153.748 91.5028C154.039 91.6586 154.265 91.8409 154.424 92.0497C154.586 92.2585 154.712 92.4425 154.802 92.6016H154.891V88.8182H156.378V99H154.926V97.8118H154.802C154.712 97.9742 154.583 98.1598 154.414 98.3686C154.248 98.5774 154.019 98.7597 153.728 98.9155C153.436 99.0713 153.058 99.1491 152.594 99.1491ZM152.922 97.8814C153.35 97.8814 153.711 97.7687 154.006 97.5433C154.305 97.3146 154.53 96.9981 154.682 96.5938C154.838 96.1894 154.916 95.7187 154.916 95.1818C154.916 94.6515 154.84 94.1875 154.687 93.7898C154.535 93.392 154.311 93.0821 154.016 92.8601C153.721 92.638 153.357 92.527 152.922 92.527C152.475 92.527 152.102 92.643 151.804 92.875C151.506 93.107 151.28 93.4235 151.128 93.8246C150.979 94.2256 150.904 94.678 150.904 95.1818C150.904 95.6922 150.98 96.1513 151.133 96.5589C151.285 96.9666 151.51 97.2898 151.809 97.5284C152.11 97.7637 152.482 97.8814 152.922 97.8814ZM161.358 99.1491C160.741 99.1491 160.191 98.9917 159.707 98.6768C159.227 98.3587 158.849 97.9062 158.574 97.3196C158.302 96.7296 158.166 96.022 158.166 95.1967C158.166 94.3714 158.304 93.6655 158.579 93.0788C158.857 92.4922 159.238 92.0431 159.722 91.7315C160.206 91.42 160.755 91.2642 161.368 91.2642C161.842 91.2642 162.223 91.3438 162.511 91.5028C162.803 91.6586 163.028 91.8409 163.188 92.0497C163.35 92.2585 163.476 92.4425 163.565 92.6016H163.655V88.8182H165.141V99H163.69V97.8118H163.565C163.476 97.9742 163.347 98.1598 163.178 98.3686C163.012 98.5774 162.783 98.7597 162.491 98.9155C162.2 99.0713 161.822 99.1491 161.358 99.1491ZM161.686 97.8814C162.114 97.8814 162.475 97.7687 162.77 97.5433C163.068 97.3146 163.294 96.9981 163.446 96.5938C163.602 96.1894 163.68 95.7187 163.68 95.1818C163.68 94.6515 163.603 94.1875 163.451 93.7898C163.299 93.392 163.075 93.0821 162.78 92.8601C162.485 92.638 162.12 92.527 161.686 92.527C161.239 92.527 160.866 92.643 160.567 92.875C160.269 93.107 160.044 93.4235 159.891 93.8246C159.742 94.2256 159.668 94.678 159.668 95.1818C159.668 95.6922 159.744 96.1513 159.896 96.5589C160.049 96.9666 160.274 97.2898 160.572 97.5284C160.874 97.7637 161.245 97.8814 161.686 97.8814ZM172.624 88.8182V99H171.087V88.8182H172.624ZM174.741 99V91.3636H176.168V92.6065H176.263C176.422 92.1856 176.682 91.8575 177.043 91.6222C177.405 91.3835 177.837 91.2642 178.341 91.2642C178.851 91.2642 179.279 91.3835 179.624 91.6222C179.972 91.8608 180.228 92.1889 180.394 92.6065H180.474C180.656 92.1989 180.946 91.8741 181.344 91.6321C181.741 91.3868 182.215 91.2642 182.766 91.2642C183.458 91.2642 184.023 91.4813 184.461 91.9155C184.902 92.3497 185.122 93.0043 185.122 93.8793V99H183.636V94.0185C183.636 93.5014 183.495 93.1269 183.213 92.8949C182.931 92.6629 182.595 92.5469 182.204 92.5469C181.72 92.5469 181.344 92.696 181.075 92.9943C180.807 93.2893 180.673 93.6688 180.673 94.1328V99H179.191V93.924C179.191 93.5097 179.062 93.1766 178.803 92.9247C178.545 92.6728 178.208 92.5469 177.794 92.5469C177.512 92.5469 177.252 92.6214 177.013 92.7706C176.778 92.9164 176.588 93.1203 176.442 93.3821C176.299 93.6439 176.228 93.9472 176.228 94.2919V99H174.741ZM189.337 99.169C188.853 99.169 188.415 99.0795 188.024 98.9006C187.633 98.7183 187.323 98.4548 187.095 98.1101C186.869 97.7654 186.757 97.3428 186.757 96.8423C186.757 96.4115 186.839 96.0568 187.005 95.7784C187.171 95.5 187.395 95.2796 187.676 95.1172C187.958 94.9548 188.273 94.8321 188.621 94.7493C188.969 94.6664 189.324 94.6035 189.685 94.5604C190.142 94.5073 190.513 94.4643 190.798 94.4311C191.084 94.3946 191.291 94.3366 191.42 94.2571C191.549 94.1776 191.614 94.0483 191.614 93.8693V93.8345C191.614 93.4003 191.491 93.0639 191.246 92.8253C191.004 92.5866 190.643 92.4673 190.162 92.4673C189.662 92.4673 189.267 92.5784 188.979 92.8004C188.694 93.0192 188.497 93.2628 188.387 93.5312L186.99 93.2131C187.156 92.7491 187.398 92.3745 187.716 92.0895C188.038 91.8011 188.407 91.5923 188.825 91.4631C189.242 91.3305 189.682 91.2642 190.142 91.2642C190.447 91.2642 190.77 91.3007 191.112 91.3736C191.456 91.4432 191.778 91.5724 192.076 91.7614C192.378 91.9503 192.625 92.2204 192.817 92.5717C193.009 92.9197 193.105 93.3722 193.105 93.929V99H191.654V97.956H191.594C191.498 98.1482 191.354 98.3371 191.161 98.5227C190.969 98.7083 190.722 98.8625 190.421 98.9851C190.119 99.1077 189.758 99.169 189.337 99.169ZM189.66 97.9759C190.071 97.9759 190.422 97.8946 190.714 97.7322C191.009 97.5698 191.233 97.3577 191.385 97.0959C191.541 96.8307 191.619 96.5473 191.619 96.2457V95.2614C191.566 95.3144 191.463 95.3641 191.311 95.4105C191.161 95.4536 190.991 95.4917 190.798 95.5249C190.606 95.5547 190.419 95.5829 190.237 95.6094C190.054 95.6326 189.902 95.6525 189.779 95.669C189.491 95.7055 189.227 95.7668 188.989 95.853C188.753 95.9392 188.565 96.0634 188.422 96.2259C188.283 96.3849 188.213 96.5971 188.213 96.8622C188.213 97.2301 188.349 97.5085 188.621 97.6974C188.893 97.883 189.239 97.9759 189.66 97.9759ZM198.287 102.023C197.68 102.023 197.158 101.943 196.721 101.784C196.287 101.625 195.932 101.415 195.657 101.153C195.382 100.891 195.176 100.604 195.04 100.293L196.318 99.7656C196.408 99.9115 196.527 100.066 196.676 100.228C196.829 100.394 197.034 100.535 197.293 100.651C197.554 100.767 197.891 100.825 198.302 100.825C198.865 100.825 199.331 100.687 199.699 100.412C200.067 100.14 200.251 99.706 200.251 99.1094V97.608H200.156C200.067 97.7704 199.938 97.951 199.768 98.1499C199.603 98.3487 199.374 98.5211 199.082 98.6669C198.791 98.8127 198.411 98.8857 197.944 98.8857C197.341 98.8857 196.797 98.7448 196.313 98.4631C195.833 98.178 195.451 97.7588 195.17 97.2053C194.891 96.6484 194.752 95.964 194.752 95.152C194.752 94.34 194.89 93.6439 195.165 93.0639C195.443 92.4839 195.824 92.0398 196.308 91.7315C196.792 91.42 197.341 91.2642 197.954 91.2642C198.428 91.2642 198.811 91.3438 199.102 91.5028C199.394 91.6586 199.621 91.8409 199.783 92.0497C199.949 92.2585 200.077 92.4425 200.166 92.6016H200.276V91.3636H201.732V99.169C201.732 99.8253 201.58 100.364 201.275 100.785C200.97 101.206 200.557 101.517 200.037 101.719C199.52 101.922 198.937 102.023 198.287 102.023ZM198.272 97.6527C198.7 97.6527 199.061 97.5533 199.356 97.3544C199.654 97.1522 199.879 96.8639 200.032 96.4893C200.188 96.1115 200.266 95.6591 200.266 95.1321C200.266 94.6184 200.189 94.166 200.037 93.7749C199.884 93.3838 199.661 93.0788 199.366 92.8601C199.071 92.638 198.706 92.527 198.272 92.527C197.825 92.527 197.452 92.643 197.153 92.875C196.855 93.1037 196.63 93.4152 196.477 93.8097C196.328 94.2041 196.254 94.6449 196.254 95.1321C196.254 95.6326 196.33 96.0717 196.482 96.4496C196.635 96.8274 196.86 97.1224 197.158 97.3345C197.46 97.5466 197.831 97.6527 198.272 97.6527ZM207.017 99.1541C206.265 99.1541 205.617 98.9934 205.073 98.6719C204.533 98.3471 204.115 97.8913 203.82 97.3047C203.529 96.7147 203.383 96.0237 203.383 95.2315C203.383 94.4493 203.529 93.7599 203.82 93.1634C204.115 92.5668 204.526 92.1011 205.053 91.7663C205.584 91.4316 206.203 91.2642 206.913 91.2642C207.344 91.2642 207.761 91.3355 208.165 91.478C208.57 91.6205 208.933 91.8442 209.254 92.1491C209.576 92.4541 209.829 92.8501 210.015 93.3374C210.201 93.8213 210.293 94.4096 210.293 95.1023V95.6293H204.223V94.5156H208.837C208.837 94.1245 208.757 93.7782 208.598 93.4766C208.439 93.1716 208.215 92.9313 207.927 92.7557C207.642 92.58 207.307 92.4922 206.923 92.4922C206.505 92.4922 206.14 92.5949 205.829 92.8004C205.521 93.0026 205.282 93.2678 205.113 93.5959C204.947 93.9207 204.864 94.2737 204.864 94.6548V95.5249C204.864 96.0353 204.954 96.4695 205.133 96.8274C205.315 97.1854 205.569 97.4588 205.893 97.6477C206.218 97.8333 206.598 97.9261 207.032 97.9261C207.314 97.9261 207.571 97.8864 207.803 97.8068C208.035 97.724 208.235 97.6013 208.404 97.4389C208.573 97.2765 208.702 97.076 208.792 96.8374L210.199 97.0909C210.086 97.5052 209.884 97.8681 209.592 98.1797C209.304 98.4879 208.941 98.7282 208.504 98.9006C208.069 99.0696 207.574 99.1541 207.017 99.1541Z"
        fill="#878787" />
</svg>
