<svg width="351" height="63" viewBox="0 0 351 63" fill="none" xmlns="http://www.w3.org/2000/svg">
    <path
        d="M85.4723 23V5.54545H91.6939C93.0462 5.54545 94.1683 5.77841 95.0604 6.24432C95.9581 6.71023 96.6286 7.35511 97.0717 8.17898C97.5149 8.99716 97.7365 9.94318 97.7365 11.017C97.7365 12.0852 97.5121 13.0256 97.0632 13.8381C96.62 14.6449 95.9496 15.2727 95.0518 15.7216C94.1598 16.1705 93.0376 16.3949 91.6854 16.3949H86.9723V14.1278H91.4467C92.299 14.1278 92.9922 14.0057 93.5263 13.7614C94.0661 13.517 94.4609 13.1619 94.7109 12.696C94.9609 12.2301 95.0859 11.6705 95.0859 11.017C95.0859 10.358 94.9581 9.78693 94.7024 9.30398C94.4524 8.82102 94.0575 8.4517 93.5178 8.19602C92.9837 7.93466 92.282 7.80398 91.4126 7.80398H88.1058V23H85.4723ZM94.0888 15.125L98.4013 23H95.4013L91.174 15.125H94.0888ZM106.214 23.2642C104.925 23.2642 103.814 22.9886 102.882 22.4375C101.956 21.8807 101.24 21.0994 100.734 20.0938C100.234 19.0824 99.9844 17.8977 99.9844 16.5398C99.9844 15.1989 100.234 14.017 100.734 12.9943C101.24 11.9716 101.945 11.1733 102.848 10.5994C103.757 10.0256 104.82 9.73864 106.036 9.73864C106.774 9.73864 107.49 9.8608 108.183 10.1051C108.876 10.3494 109.499 10.733 110.05 11.2557C110.601 11.7784 111.036 12.4574 111.354 13.2926C111.672 14.1222 111.831 15.1307 111.831 16.3182V17.2216H101.425V15.3125H109.334C109.334 14.642 109.197 14.0483 108.925 13.5312C108.652 13.0085 108.268 12.5966 107.774 12.2955C107.286 11.9943 106.712 11.8438 106.053 11.8438C105.337 11.8438 104.712 12.0199 104.178 12.3722C103.649 12.7187 103.24 13.1733 102.95 13.7358C102.666 14.2926 102.524 14.8977 102.524 15.5511V17.0426C102.524 17.9176 102.678 18.6619 102.984 19.2756C103.297 19.8892 103.732 20.358 104.288 20.6818C104.845 21 105.496 21.1591 106.24 21.1591C106.723 21.1591 107.163 21.0909 107.561 20.9545C107.959 20.8125 108.303 20.6023 108.592 20.3239C108.882 20.0455 109.104 19.7017 109.257 19.2926L111.669 19.7273C111.476 20.4375 111.129 21.0597 110.629 21.5938C110.135 22.1222 109.513 22.5341 108.763 22.8295C108.018 23.1193 107.169 23.2642 106.214 23.2642ZM124.468 13.1051L122.158 13.5142C122.062 13.2187 121.908 12.9375 121.698 12.6705C121.494 12.4034 121.215 12.1847 120.863 12.0142C120.511 11.8437 120.07 11.7585 119.542 11.7585C118.82 11.7585 118.218 11.9205 117.735 12.2443C117.252 12.5625 117.011 12.9744 117.011 13.4801C117.011 13.9176 117.173 14.2699 117.496 14.5369C117.82 14.804 118.343 15.0227 119.065 15.1932L121.144 15.6705C122.349 15.9489 123.246 16.3778 123.837 16.9574C124.428 17.5369 124.724 18.2898 124.724 19.2159C124.724 20 124.496 20.6989 124.042 21.3125C123.593 21.9205 122.965 22.3977 122.158 22.7443C121.357 23.0909 120.428 23.2642 119.371 23.2642C117.906 23.2642 116.71 22.9517 115.783 22.3267C114.857 21.696 114.289 20.8011 114.079 19.642L116.542 19.267C116.695 19.9091 117.011 20.3949 117.488 20.7244C117.965 21.0483 118.587 21.2102 119.354 21.2102C120.19 21.2102 120.857 21.0369 121.357 20.6903C121.857 20.3381 122.107 19.9091 122.107 19.4034C122.107 18.9943 121.954 18.6506 121.647 18.3722C121.346 18.0937 120.883 17.8835 120.258 17.7415L118.042 17.2557C116.82 16.9773 115.917 16.5341 115.332 15.9261C114.752 15.3182 114.462 14.5483 114.462 13.6165C114.462 12.8437 114.678 12.1676 115.11 11.5881C115.542 11.0085 116.138 10.5568 116.9 10.233C117.661 9.90341 118.533 9.73864 119.516 9.73864C120.931 9.73864 122.045 10.0455 122.857 10.6591C123.67 11.267 124.207 12.0824 124.468 13.1051ZM133.168 23.2642C131.878 23.2642 130.767 22.9886 129.835 22.4375C128.909 21.8807 128.193 21.0994 127.688 20.0938C127.188 19.0824 126.938 17.8977 126.938 16.5398C126.938 15.1989 127.188 14.017 127.688 12.9943C128.193 11.9716 128.898 11.1733 129.801 10.5994C130.71 10.0256 131.773 9.73864 132.989 9.73864C133.727 9.73864 134.443 9.8608 135.136 10.1051C135.83 10.3494 136.452 10.733 137.003 11.2557C137.554 11.7784 137.989 12.4574 138.307 13.2926C138.625 14.1222 138.784 15.1307 138.784 16.3182V17.2216H128.378V15.3125H136.287C136.287 14.642 136.151 14.0483 135.878 13.5312C135.605 13.0085 135.222 12.5966 134.727 12.2955C134.239 11.9943 133.665 11.8438 133.006 11.8438C132.29 11.8438 131.665 12.0199 131.131 12.3722C130.602 12.7187 130.193 13.1733 129.903 13.7358C129.619 14.2926 129.477 14.8977 129.477 15.5511V17.0426C129.477 17.9176 129.631 18.6619 129.938 19.2756C130.25 19.8892 130.685 20.358 131.241 20.6818C131.798 21 132.449 21.1591 133.193 21.1591C133.676 21.1591 134.116 21.0909 134.514 20.9545C134.912 20.8125 135.256 20.6023 135.545 20.3239C135.835 20.0455 136.057 19.7017 136.21 19.2926L138.622 19.7273C138.429 20.4375 138.082 21.0597 137.582 21.5938C137.088 22.1222 136.466 22.5341 135.716 22.8295C134.972 23.1193 134.122 23.2642 133.168 23.2642ZM147.722 9.90909V11.9545H140.572V9.90909H147.722ZM142.489 6.77273H145.038V19.1562C145.038 19.6506 145.112 20.0227 145.259 20.2727C145.407 20.517 145.597 20.6847 145.83 20.7756C146.069 20.8608 146.327 20.9034 146.606 20.9034C146.81 20.9034 146.989 20.8892 147.143 20.8608C147.296 20.8324 147.415 20.8097 147.501 20.7926L147.961 22.8977C147.813 22.9545 147.603 23.0114 147.33 23.0682C147.058 23.1307 146.717 23.1648 146.308 23.1705C145.637 23.1818 145.012 23.0625 144.433 22.8125C143.853 22.5625 143.384 22.1761 143.026 21.6534C142.668 21.1307 142.489 20.4744 142.489 19.6847V6.77273ZM157.097 23V5.54545H163.319C164.677 5.54545 165.802 5.79261 166.694 6.28693C167.586 6.78125 168.254 7.45739 168.697 8.31534C169.14 9.16761 169.362 10.1278 169.362 11.196C169.362 12.2699 169.137 13.2358 168.688 14.0938C168.245 14.946 167.575 15.6222 166.677 16.1222C165.785 16.6165 164.663 16.8636 163.31 16.8636H159.032V14.6307H163.072C163.93 14.6307 164.626 14.483 165.16 14.1875C165.694 13.8864 166.086 13.4773 166.336 12.9602C166.586 12.4432 166.711 11.8551 166.711 11.196C166.711 10.5369 166.586 9.9517 166.336 9.44034C166.086 8.92898 165.691 8.52841 165.151 8.23864C164.617 7.94886 163.913 7.80398 163.038 7.80398H159.731V23H157.097ZM175.937 23.2898C175.107 23.2898 174.357 23.1364 173.687 22.8295C173.016 22.517 172.485 22.0653 172.093 21.4744C171.707 20.8835 171.513 20.1591 171.513 19.3011C171.513 18.5625 171.656 17.9545 171.94 17.4773C172.224 17 172.607 16.6222 173.09 16.3438C173.573 16.0653 174.113 15.8551 174.71 15.7131C175.306 15.571 175.914 15.4631 176.533 15.3892C177.317 15.2983 177.954 15.2244 178.442 15.1676C178.931 15.1051 179.286 15.0057 179.508 14.8693C179.729 14.733 179.84 14.5114 179.84 14.2045V14.1449C179.84 13.4006 179.63 12.8239 179.21 12.4148C178.795 12.0057 178.175 11.8011 177.352 11.8011C176.494 11.8011 175.817 11.9915 175.323 12.3722C174.835 12.7472 174.496 13.1648 174.309 13.625L171.914 13.0795C172.198 12.2841 172.613 11.642 173.158 11.1534C173.71 10.6591 174.343 10.3011 175.059 10.0795C175.775 9.85227 176.528 9.73864 177.317 9.73864C177.84 9.73864 178.394 9.80114 178.979 9.92614C179.57 10.0455 180.121 10.267 180.633 10.5909C181.15 10.9148 181.573 11.3778 181.903 11.9801C182.232 12.5767 182.397 13.3523 182.397 14.3068V23H179.908V21.2102H179.806C179.641 21.5398 179.394 21.8636 179.065 22.1818C178.735 22.5 178.312 22.7642 177.795 22.9744C177.278 23.1847 176.658 23.2898 175.937 23.2898ZM176.491 21.2443C177.195 21.2443 177.798 21.1051 178.298 20.8267C178.803 20.5483 179.187 20.1847 179.448 19.7358C179.715 19.2812 179.849 18.7955 179.849 18.2784V16.5909C179.758 16.6818 179.582 16.767 179.32 16.8466C179.065 16.9205 178.772 16.9858 178.442 17.0426C178.113 17.0937 177.792 17.142 177.479 17.1875C177.167 17.2273 176.906 17.2614 176.695 17.2898C176.201 17.3523 175.749 17.4574 175.34 17.6051C174.937 17.7528 174.613 17.9659 174.369 18.2443C174.13 18.517 174.011 18.8807 174.011 19.3352C174.011 19.9659 174.244 20.4432 174.71 20.767C175.175 21.0852 175.769 21.2443 176.491 21.2443ZM195.601 13.1051L193.291 13.5142C193.195 13.2187 193.041 12.9375 192.831 12.6705C192.626 12.4034 192.348 12.1847 191.996 12.0142C191.643 11.8437 191.203 11.7585 190.675 11.7585C189.953 11.7585 189.351 11.9205 188.868 12.2443C188.385 12.5625 188.143 12.9744 188.143 13.4801C188.143 13.9176 188.305 14.2699 188.629 14.5369C188.953 14.804 189.476 15.0227 190.197 15.1932L192.277 15.6705C193.482 15.9489 194.379 16.3778 194.97 16.9574C195.561 17.5369 195.857 18.2898 195.857 19.2159C195.857 20 195.629 20.6989 195.175 21.3125C194.726 21.9205 194.098 22.3977 193.291 22.7443C192.49 23.0909 191.561 23.2642 190.504 23.2642C189.038 23.2642 187.842 22.9517 186.916 22.3267C185.99 21.696 185.422 20.8011 185.212 19.642L187.675 19.267C187.828 19.9091 188.143 20.3949 188.621 20.7244C189.098 21.0483 189.72 21.2102 190.487 21.2102C191.322 21.2102 191.99 21.0369 192.49 20.6903C192.99 20.3381 193.24 19.9091 193.24 19.4034C193.24 18.9943 193.087 18.6506 192.78 18.3722C192.479 18.0937 192.016 17.8835 191.391 17.7415L189.175 17.2557C187.953 16.9773 187.05 16.5341 186.464 15.9261C185.885 15.3182 185.595 14.5483 185.595 13.6165C185.595 12.8437 185.811 12.1676 186.243 11.5881C186.675 11.0085 187.271 10.5568 188.033 10.233C188.794 9.90341 189.666 9.73864 190.649 9.73864C192.064 9.73864 193.178 10.0455 193.99 10.6591C194.803 11.267 195.339 12.0824 195.601 13.1051ZM208.468 13.1051L206.158 13.5142C206.062 13.2187 205.908 12.9375 205.698 12.6705C205.494 12.4034 205.215 12.1847 204.863 12.0142C204.511 11.8437 204.07 11.7585 203.542 11.7585C202.82 11.7585 202.218 11.9205 201.735 12.2443C201.252 12.5625 201.011 12.9744 201.011 13.4801C201.011 13.9176 201.173 14.2699 201.496 14.5369C201.82 14.804 202.343 15.0227 203.065 15.1932L205.144 15.6705C206.349 15.9489 207.246 16.3778 207.837 16.9574C208.428 17.5369 208.724 18.2898 208.724 19.2159C208.724 20 208.496 20.6989 208.042 21.3125C207.593 21.9205 206.965 22.3977 206.158 22.7443C205.357 23.0909 204.428 23.2642 203.371 23.2642C201.906 23.2642 200.71 22.9517 199.783 22.3267C198.857 21.696 198.289 20.8011 198.079 19.642L200.542 19.267C200.695 19.9091 201.011 20.3949 201.488 20.7244C201.965 21.0483 202.587 21.2102 203.354 21.2102C204.19 21.2102 204.857 21.0369 205.357 20.6903C205.857 20.3381 206.107 19.9091 206.107 19.4034C206.107 18.9943 205.954 18.6506 205.647 18.3722C205.346 18.0937 204.883 17.8835 204.258 17.7415L202.042 17.2557C200.82 16.9773 199.917 16.5341 199.332 15.9261C198.752 15.3182 198.462 14.5483 198.462 13.6165C198.462 12.8437 198.678 12.1676 199.11 11.5881C199.542 11.0085 200.138 10.5568 200.9 10.233C201.661 9.90341 202.533 9.73864 203.516 9.73864C204.931 9.73864 206.045 10.0455 206.857 10.6591C207.67 11.267 208.207 12.0824 208.468 13.1051ZM214.364 23L210.511 9.90909H213.145L215.71 19.5227H215.838L218.412 9.90909H221.045L223.602 19.4801H223.73L226.278 9.90909H228.912L225.068 23H222.469L219.81 13.5483H219.614L216.955 23H214.364ZM236.446 23.2642C235.219 23.2642 234.148 22.983 233.233 22.4205C232.318 21.858 231.608 21.071 231.102 20.0597C230.597 19.0483 230.344 17.8665 230.344 16.5142C230.344 15.1562 230.597 13.9687 231.102 12.9517C231.608 11.9347 232.318 11.1449 233.233 10.5824C234.148 10.0199 235.219 9.73864 236.446 9.73864C237.673 9.73864 238.744 10.0199 239.659 10.5824C240.574 11.1449 241.284 11.9347 241.79 12.9517C242.295 13.9687 242.548 15.1562 242.548 16.5142C242.548 17.8665 242.295 19.0483 241.79 20.0597C241.284 21.071 240.574 21.858 239.659 22.4205C238.744 22.983 237.673 23.2642 236.446 23.2642ZM236.455 21.125C237.25 21.125 237.909 20.9148 238.432 20.4943C238.955 20.0739 239.341 19.5142 239.591 18.8153C239.847 18.1165 239.974 17.3466 239.974 16.5057C239.974 15.6705 239.847 14.9034 239.591 14.2045C239.341 13.5 238.955 12.9347 238.432 12.5085C237.909 12.0824 237.25 11.8693 236.455 11.8693C235.653 11.8693 234.989 12.0824 234.46 12.5085C233.938 12.9347 233.548 13.5 233.293 14.2045C233.043 14.9034 232.918 15.6705 232.918 16.5057C232.918 17.3466 233.043 18.1165 233.293 18.8153C233.548 19.5142 233.938 20.0739 234.46 20.4943C234.989 20.9148 235.653 21.125 236.455 21.125ZM245.393 23V9.90909H247.856V11.9886H247.992C248.231 11.2841 248.651 10.7301 249.254 10.3267C249.862 9.91761 250.549 9.71307 251.316 9.71307C251.475 9.71307 251.663 9.71875 251.879 9.73011C252.1 9.74148 252.273 9.75568 252.398 9.77273V12.2102C252.296 12.1818 252.114 12.1506 251.853 12.1165C251.592 12.0767 251.33 12.0568 251.069 12.0568C250.467 12.0568 249.93 12.1847 249.458 12.4403C248.992 12.6903 248.623 13.0398 248.35 13.4886C248.077 13.9318 247.941 14.4375 247.941 15.0057V23H245.393ZM259.036 23.2557C257.979 23.2557 257.036 22.9858 256.206 22.446C255.382 21.9006 254.734 21.125 254.263 20.1193C253.797 19.108 253.564 17.8949 253.564 16.4801C253.564 15.0653 253.8 13.8551 254.271 12.8494C254.749 11.8437 255.402 11.0739 256.232 10.5398C257.061 10.0057 258.001 9.73864 259.053 9.73864C259.865 9.73864 260.518 9.875 261.013 10.1477C261.513 10.4148 261.899 10.7273 262.172 11.0852C262.45 11.4432 262.666 11.7585 262.82 12.0312H262.973V5.54545H265.521V23H263.033V20.9631H262.82C262.666 21.2415 262.445 21.5597 262.155 21.9176C261.871 22.2756 261.479 22.5881 260.979 22.8551C260.479 23.1222 259.831 23.2557 259.036 23.2557ZM259.598 21.0824C260.331 21.0824 260.95 20.8892 261.456 20.5028C261.967 20.1108 262.354 19.5682 262.615 18.875C262.882 18.1818 263.016 17.375 263.016 16.4545C263.016 15.5455 262.885 14.75 262.624 14.0682C262.362 13.3864 261.979 12.8551 261.473 12.4744C260.967 12.0937 260.342 11.9034 259.598 11.9034C258.831 11.9034 258.192 12.1023 257.68 12.5C257.169 12.8977 256.783 13.4403 256.521 14.1278C256.266 14.8153 256.138 15.5909 256.138 16.4545C256.138 17.3295 256.268 18.1165 256.53 18.8153C256.791 19.5142 257.178 20.0682 257.689 20.4773C258.206 20.8807 258.842 21.0824 259.598 21.0824Z"
        fill="#505050" />
    <path
        d="M58.6838 45V36.2727H61.6326C62.3145 36.2727 62.8741 36.3892 63.3116 36.6222C63.7491 36.8523 64.073 37.169 64.2832 37.5724C64.4934 37.9759 64.5985 38.4347 64.5985 38.9489C64.5985 39.4631 64.4934 39.919 64.2832 40.3168C64.073 40.7145 63.7505 41.027 63.3159 41.2543C62.8812 41.4787 62.3258 41.5909 61.6497 41.5909H59.2633V40.6364H61.6156C62.0815 40.6364 62.4565 40.5682 62.7406 40.4318C63.0275 40.2955 63.2349 40.1023 63.3627 39.8523C63.4934 39.5994 63.5588 39.2983 63.5588 38.9489C63.5588 38.5994 63.4934 38.294 63.3627 38.0327C63.2321 37.7713 63.0233 37.5696 62.7363 37.4276C62.4494 37.2827 62.0701 37.2102 61.5985 37.2102H59.7406V45H58.6838ZM62.7917 41.0795L64.9395 45H63.7122L61.5985 41.0795H62.7917ZM68.8972 45.1364C68.2665 45.1364 67.7225 44.9972 67.2651 44.7188C66.8105 44.4375 66.4597 44.0455 66.2125 43.5426C65.9682 43.0369 65.8461 42.4489 65.8461 41.7784C65.8461 41.108 65.9682 40.517 66.2125 40.0057C66.4597 39.4915 66.8034 39.0909 67.2438 38.804C67.687 38.5142 68.204 38.3693 68.7949 38.3693C69.1358 38.3693 69.4725 38.4261 69.8049 38.5398C70.1373 38.6534 70.4398 38.8381 70.7125 39.0938C70.9853 39.3466 71.2026 39.6818 71.3645 40.0994C71.5265 40.517 71.6074 41.0312 71.6074 41.642V42.0682H66.562V41.1989H70.5847C70.5847 40.8295 70.5108 40.5 70.3631 40.2102C70.2182 39.9205 70.0108 39.6918 69.7409 39.5241C69.4739 39.3565 69.1586 39.2727 68.7949 39.2727C68.3944 39.2727 68.0478 39.3722 67.7551 39.571C67.4654 39.767 67.2424 40.0227 67.0861 40.3381C66.9299 40.6534 66.8517 40.9915 66.8517 41.3523V41.9318C66.8517 42.4261 66.937 42.8452 67.1074 43.1889C67.2807 43.5298 67.5208 43.7898 67.8276 43.9688C68.1344 44.1449 68.4909 44.233 68.8972 44.233C69.1614 44.233 69.4 44.196 69.6131 44.1222C69.829 44.0455 70.0151 43.9318 70.1713 43.7812C70.3276 43.6278 70.4483 43.4375 70.5336 43.2102L71.5051 43.483C71.4029 43.8125 71.231 44.1023 70.9895 44.3523C70.748 44.5994 70.4498 44.7926 70.0946 44.9318C69.7395 45.0682 69.3404 45.1364 68.8972 45.1364ZM77.7736 39.9205L76.8702 40.1761C76.8134 40.0256 76.7296 39.8793 76.6188 39.7372C76.5108 39.5923 76.3631 39.473 76.1756 39.3793C75.9881 39.2855 75.748 39.2386 75.4554 39.2386C75.0549 39.2386 74.7211 39.331 74.454 39.5156C74.1898 39.6974 74.0577 39.929 74.0577 40.2102C74.0577 40.4602 74.1486 40.6577 74.3304 40.8026C74.5123 40.9474 74.7963 41.0682 75.1827 41.1648L76.1543 41.4034C76.7395 41.5455 77.1756 41.7628 77.4625 42.0554C77.7495 42.3452 77.8929 42.7187 77.8929 43.1761C77.8929 43.5511 77.785 43.8864 77.5691 44.1818C77.356 44.4773 77.0577 44.7102 76.6742 44.8807C76.2907 45.0511 75.8446 45.1364 75.3361 45.1364C74.6685 45.1364 74.1159 44.9915 73.6784 44.7017C73.2409 44.4119 72.964 43.9886 72.8475 43.4318L73.802 43.1932C73.8929 43.5455 74.0648 43.8097 74.3176 43.9858C74.5733 44.1619 74.9071 44.25 75.3191 44.25C75.7878 44.25 76.16 44.1506 76.4355 43.9517C76.714 43.75 76.8532 43.5085 76.8532 43.2273C76.8532 43 76.7736 42.8097 76.6145 42.6562C76.4554 42.5 76.2111 42.3835 75.8816 42.3068L74.7907 42.0511C74.1912 41.9091 73.7509 41.6889 73.4696 41.3906C73.1912 41.0895 73.052 40.7131 73.052 40.2614C73.052 39.892 73.1557 39.5653 73.3631 39.2812C73.5733 38.9972 73.8588 38.7741 74.2196 38.6122C74.5833 38.4503 74.9952 38.3693 75.4554 38.3693C76.1032 38.3693 76.6117 38.5114 76.981 38.7955C77.3532 39.0795 77.6174 39.4545 77.7736 39.9205ZM82.1511 45.1364C81.5204 45.1364 80.9764 44.9972 80.519 44.7188C80.0645 44.4375 79.7136 44.0455 79.4664 43.5426C79.2221 43.0369 79.1 42.4489 79.1 41.7784C79.1 41.108 79.2221 40.517 79.4664 40.0057C79.7136 39.4915 80.0574 39.0909 80.4977 38.804C80.9409 38.5142 81.4579 38.3693 82.0488 38.3693C82.3897 38.3693 82.7264 38.4261 83.0588 38.5398C83.3912 38.6534 83.6937 38.8381 83.9664 39.0938C84.2392 39.3466 84.4565 39.6818 84.6184 40.0994C84.7804 40.517 84.8613 41.0312 84.8613 41.642V42.0682H79.8159V41.1989H83.8386C83.8386 40.8295 83.7647 40.5 83.617 40.2102C83.4721 39.9205 83.2647 39.6918 82.9949 39.5241C82.7278 39.3565 82.4125 39.2727 82.0488 39.2727C81.6483 39.2727 81.3017 39.3722 81.0091 39.571C80.7193 39.767 80.4963 40.0227 80.34 40.3381C80.1838 40.6534 80.1056 40.9915 80.1056 41.3523V41.9318C80.1056 42.4261 80.1909 42.8452 80.3613 43.1889C80.5346 43.5298 80.7747 43.7898 81.0815 43.9688C81.3883 44.1449 81.7449 44.233 82.1511 44.233C82.4153 44.233 82.6539 44.196 82.867 44.1222C83.0829 44.0455 83.269 43.9318 83.4252 43.7812C83.5815 43.6278 83.7022 43.4375 83.7875 43.2102L84.7591 43.483C84.6568 43.8125 84.4849 44.1023 84.2434 44.3523C84.002 44.5994 83.7037 44.7926 83.3485 44.9318C82.9934 45.0682 82.5943 45.1364 82.1511 45.1364ZM89.2377 38.4545V39.3068H85.8457V38.4545H89.2377ZM86.8343 36.8864H87.84V43.125C87.84 43.4091 87.8812 43.6222 87.9636 43.7642C88.0488 43.9034 88.1568 43.9972 88.2875 44.0455C88.421 44.0909 88.5616 44.1136 88.7093 44.1136C88.8201 44.1136 88.911 44.108 88.9821 44.0966C89.0531 44.0824 89.1099 44.071 89.1525 44.0625L89.3571 44.9659C89.2889 44.9915 89.1937 45.017 89.0716 45.0426C88.9494 45.071 88.7946 45.0852 88.6071 45.0852C88.323 45.0852 88.0446 45.0241 87.7718 44.902C87.502 44.7798 87.2775 44.5938 87.0985 44.3438C86.9224 44.0938 86.8343 43.7784 86.8343 43.3977V36.8864ZM94.7733 47.4545C94.6028 47.4545 94.4508 47.4403 94.3173 47.4119C94.1838 47.3864 94.0914 47.3608 94.0403 47.3352L94.296 46.4489C94.5403 46.5114 94.7562 46.5341 94.9437 46.517C95.1312 46.5 95.2974 46.4162 95.4423 46.2656C95.59 46.1179 95.725 45.8778 95.8471 45.5455L96.0346 45.0341L93.6142 38.4545H94.7051L96.5119 43.6705H96.5801L98.3869 38.4545H99.4778L96.6994 45.9545C96.5744 46.2926 96.4196 46.5724 96.2349 46.794C96.0502 47.0185 95.8358 47.1847 95.5914 47.2926C95.35 47.4006 95.0772 47.4545 94.7733 47.4545ZM103.23 45.1364C102.639 45.1364 102.121 44.9957 101.675 44.7145C101.231 44.4332 100.885 44.0398 100.635 43.5341C100.388 43.0284 100.264 42.4375 100.264 41.7614C100.264 41.0795 100.388 40.4844 100.635 39.9759C100.885 39.4673 101.231 39.0724 101.675 38.7912C102.121 38.5099 102.639 38.3693 103.23 38.3693C103.821 38.3693 104.338 38.5099 104.781 38.7912C105.227 39.0724 105.574 39.4673 105.821 39.9759C106.071 40.4844 106.196 41.0795 106.196 41.7614C106.196 42.4375 106.071 43.0284 105.821 43.5341C105.574 44.0398 105.227 44.4332 104.781 44.7145C104.338 44.9957 103.821 45.1364 103.23 45.1364ZM103.23 44.233C103.679 44.233 104.048 44.1179 104.338 43.8878C104.628 43.6577 104.842 43.3551 104.981 42.9801C105.121 42.6051 105.19 42.1989 105.19 41.7614C105.19 41.3239 105.121 40.9162 104.981 40.5384C104.842 40.1605 104.628 39.8551 104.338 39.6222C104.048 39.3892 103.679 39.2727 103.23 39.2727C102.781 39.2727 102.412 39.3892 102.122 39.6222C101.832 39.8551 101.618 40.1605 101.479 40.5384C101.339 40.9162 101.27 41.3239 101.27 41.7614C101.27 42.1989 101.339 42.6051 101.479 42.9801C101.618 43.3551 101.832 43.6577 102.122 43.8878C102.412 44.1179 102.781 44.233 103.23 44.233ZM111.856 42.3239V38.4545H112.862V45H111.856V43.892H111.788C111.634 44.2244 111.396 44.5071 111.072 44.7401C110.748 44.9702 110.339 45.0852 109.845 45.0852C109.436 45.0852 109.072 44.9957 108.754 44.8168C108.436 44.6349 108.186 44.3622 108.004 43.9986C107.822 43.6321 107.731 43.1705 107.731 42.6136V38.4545H108.737V42.5455C108.737 43.0227 108.87 43.4034 109.137 43.6875C109.407 43.9716 109.751 44.1136 110.169 44.1136C110.419 44.1136 110.673 44.0497 110.931 43.9219C111.193 43.794 111.411 43.598 111.588 43.3338C111.767 43.0696 111.856 42.733 111.856 42.3239ZM114.704 45V38.4545H115.675V39.4432H115.743C115.863 39.1193 116.079 38.8565 116.391 38.6548C116.704 38.4531 117.056 38.3523 117.448 38.3523C117.522 38.3523 117.614 38.3537 117.725 38.3565C117.836 38.3594 117.92 38.3636 117.976 38.3693V39.392C117.942 39.3835 117.864 39.3707 117.742 39.3537C117.623 39.3338 117.496 39.3239 117.363 39.3239C117.045 39.3239 116.76 39.3906 116.51 39.5241C116.263 39.6548 116.067 39.8366 115.922 40.0696C115.78 40.2997 115.709 40.5625 115.709 40.858V45H114.704ZM124.47 45.1534C124.055 45.1534 123.678 45.0753 123.34 44.919C123.002 44.7599 122.734 44.5312 122.535 44.233C122.336 43.9318 122.237 43.5682 122.237 43.142C122.237 42.767 122.311 42.4631 122.458 42.2301C122.606 41.9943 122.803 41.8097 123.051 41.6761C123.298 41.5426 123.57 41.4432 123.869 41.3778C124.17 41.3097 124.472 41.2557 124.776 41.2159C125.174 41.1648 125.497 41.1264 125.744 41.1009C125.994 41.0724 126.176 41.0256 126.289 40.9602C126.406 40.8949 126.464 40.7812 126.464 40.6193V40.5852C126.464 40.1648 126.349 39.8381 126.119 39.6051C125.892 39.3722 125.546 39.2557 125.083 39.2557C124.603 39.2557 124.227 39.3608 123.954 39.571C123.681 39.7812 123.49 40.0057 123.379 40.2443L122.424 39.9034C122.595 39.5057 122.822 39.196 123.106 38.9744C123.393 38.75 123.705 38.5937 124.044 38.5057C124.384 38.4148 124.72 38.3693 125.049 38.3693C125.259 38.3693 125.501 38.3949 125.774 38.446C126.049 38.4943 126.315 38.5952 126.57 38.7486C126.829 38.902 127.044 39.1335 127.214 39.4432C127.384 39.7528 127.47 40.1676 127.47 40.6875V45H126.464V44.1136H126.413C126.345 44.2557 126.231 44.4077 126.072 44.5696C125.913 44.7315 125.701 44.8693 125.437 44.983C125.173 45.0966 124.85 45.1534 124.47 45.1534ZM124.623 44.25C125.021 44.25 125.356 44.1719 125.629 44.0156C125.904 43.8594 126.112 43.6577 126.251 43.4105C126.393 43.1634 126.464 42.9034 126.464 42.6307V41.7102C126.421 41.7614 126.328 41.8082 126.183 41.8509C126.041 41.8906 125.876 41.9261 125.688 41.9574C125.504 41.9858 125.323 42.0114 125.147 42.0341C124.974 42.054 124.833 42.071 124.725 42.0852C124.464 42.1193 124.22 42.1747 123.992 42.2514C123.768 42.3253 123.586 42.4375 123.447 42.5881C123.311 42.7358 123.242 42.9375 123.242 43.1932C123.242 43.5426 123.372 43.8068 123.63 43.9858C123.892 44.1619 124.222 44.25 124.623 44.25ZM131.964 45.1364C131.351 45.1364 130.822 44.9915 130.379 44.7017C129.936 44.4119 129.595 44.0128 129.356 43.5043C129.118 42.9957 128.998 42.4148 128.998 41.7614C128.998 41.0966 129.121 40.5099 129.365 40.0014C129.612 39.4901 129.956 39.0909 130.396 38.804C130.839 38.5142 131.356 38.3693 131.947 38.3693C132.407 38.3693 132.822 38.4545 133.192 38.625C133.561 38.7955 133.863 39.0341 134.099 39.3409C134.335 39.6477 134.481 40.0057 134.538 40.4148H133.532C133.456 40.1165 133.285 39.8523 133.021 39.6222C132.76 39.3892 132.407 39.2727 131.964 39.2727C131.572 39.2727 131.229 39.375 130.933 39.5795C130.64 39.7812 130.412 40.0668 130.247 40.4361C130.085 40.8026 130.004 41.233 130.004 41.7273C130.004 42.233 130.084 42.6733 130.243 43.0483C130.405 43.4233 130.632 43.7145 130.925 43.9219C131.22 44.1293 131.567 44.233 131.964 44.233C132.226 44.233 132.463 44.1875 132.676 44.0966C132.889 44.0057 133.069 43.875 133.217 43.7045C133.365 43.5341 133.47 43.3295 133.532 43.0909H134.538C134.481 43.4773 134.341 43.8253 134.116 44.1349C133.895 44.4418 133.601 44.6861 133.234 44.8679C132.871 45.0469 132.447 45.1364 131.964 45.1364ZM138.667 45.1364C138.054 45.1364 137.525 44.9915 137.082 44.7017C136.639 44.4119 136.298 44.0128 136.059 43.5043C135.821 42.9957 135.702 42.4148 135.702 41.7614C135.702 41.0966 135.824 40.5099 136.068 40.0014C136.315 39.4901 136.659 39.0909 137.099 38.804C137.542 38.5142 138.059 38.3693 138.65 38.3693C139.111 38.3693 139.525 38.4545 139.895 38.625C140.264 38.7955 140.567 39.0341 140.802 39.3409C141.038 39.6477 141.184 40.0057 141.241 40.4148H140.236C140.159 40.1165 139.988 39.8523 139.724 39.6222C139.463 39.3892 139.111 39.2727 138.667 39.2727C138.275 39.2727 137.932 39.375 137.636 39.5795C137.344 39.7812 137.115 40.0668 136.95 40.4361C136.788 40.8026 136.707 41.233 136.707 41.7273C136.707 42.233 136.787 42.6733 136.946 43.0483C137.108 43.4233 137.335 43.7145 137.628 43.9219C137.923 44.1293 138.27 44.233 138.667 44.233C138.929 44.233 139.166 44.1875 139.379 44.0966C139.592 44.0057 139.773 43.875 139.92 43.7045C140.068 43.5341 140.173 43.3295 140.236 43.0909H141.241C141.184 43.4773 141.044 43.8253 140.819 44.1349C140.598 44.4418 140.304 44.6861 139.937 44.8679C139.574 45.0469 139.15 45.1364 138.667 45.1364ZM145.371 45.1364C144.78 45.1364 144.261 44.9957 143.815 44.7145C143.372 44.4332 143.025 44.0398 142.775 43.5341C142.528 43.0284 142.405 42.4375 142.405 41.7614C142.405 41.0795 142.528 40.4844 142.775 39.9759C143.025 39.4673 143.372 39.0724 143.815 38.7912C144.261 38.5099 144.78 38.3693 145.371 38.3693C145.961 38.3693 146.479 38.5099 146.922 38.7912C147.368 39.0724 147.714 39.4673 147.961 39.9759C148.211 40.4844 148.336 41.0795 148.336 41.7614C148.336 42.4375 148.211 43.0284 147.961 43.5341C147.714 44.0398 147.368 44.4332 146.922 44.7145C146.479 44.9957 145.961 45.1364 145.371 45.1364ZM145.371 44.233C145.819 44.233 146.189 44.1179 146.479 43.8878C146.768 43.6577 146.983 43.3551 147.122 42.9801C147.261 42.6051 147.331 42.1989 147.331 41.7614C147.331 41.3239 147.261 40.9162 147.122 40.5384C146.983 40.1605 146.768 39.8551 146.479 39.6222C146.189 39.3892 145.819 39.2727 145.371 39.2727C144.922 39.2727 144.552 39.3892 144.263 39.6222C143.973 39.8551 143.758 40.1605 143.619 40.5384C143.48 40.9162 143.41 41.3239 143.41 41.7614C143.41 42.1989 143.48 42.6051 143.619 42.9801C143.758 43.3551 143.973 43.6577 144.263 43.8878C144.552 44.1179 144.922 44.233 145.371 44.233ZM153.997 42.3239V38.4545H155.002V45H153.997V43.892H153.928C153.775 44.2244 153.536 44.5071 153.213 44.7401C152.889 44.9702 152.48 45.0852 151.985 45.0852C151.576 45.0852 151.213 44.9957 150.894 44.8168C150.576 44.6349 150.326 44.3622 150.144 43.9986C149.963 43.6321 149.872 43.1705 149.872 42.6136V38.4545H150.877V42.5455C150.877 43.0227 151.011 43.4034 151.278 43.6875C151.548 43.9716 151.892 44.1136 152.309 44.1136C152.559 44.1136 152.813 44.0497 153.072 43.9219C153.333 43.794 153.552 43.598 153.728 43.3338C153.907 43.0696 153.997 42.733 153.997 42.3239ZM157.85 41.0625V45H156.844V38.4545H157.816V39.4773H157.901C158.055 39.1449 158.287 38.8778 158.6 38.6761C158.912 38.4716 159.316 38.3693 159.81 38.3693C160.253 38.3693 160.641 38.4602 160.974 38.642C161.306 38.821 161.564 39.0938 161.749 39.4602C161.934 39.8239 162.026 40.2841 162.026 40.8409V45H161.02V40.9091C161.02 40.3949 160.887 39.9943 160.62 39.7074C160.353 39.4176 159.986 39.2727 159.52 39.2727C159.199 39.2727 158.912 39.3423 158.66 39.4815C158.41 39.6207 158.212 39.8239 158.067 40.0909C157.922 40.358 157.85 40.6818 157.85 41.0625ZM166.71 38.4545V39.3068H163.318V38.4545H166.71ZM164.307 36.8864H165.313V43.125C165.313 43.4091 165.354 43.6222 165.436 43.7642C165.521 43.9034 165.629 43.9972 165.76 44.0455C165.894 44.0909 166.034 44.1136 166.182 44.1136C166.293 44.1136 166.384 44.108 166.455 44.0966C166.526 44.0824 166.583 44.071 166.625 44.0625L166.83 44.9659C166.762 44.9915 166.666 45.017 166.544 45.0426C166.422 45.071 166.267 45.0852 166.08 45.0852C165.796 45.0852 165.517 45.0241 165.244 44.902C164.975 44.7798 164.75 44.5938 164.571 44.3438C164.395 44.0938 164.307 43.7784 164.307 43.3977V36.8864ZM171.598 47.4545V38.4545H172.57V39.4943H172.689C172.763 39.3807 172.865 39.2358 172.996 39.0597C173.129 38.8807 173.32 38.7216 173.567 38.5824C173.817 38.4403 174.155 38.3693 174.581 38.3693C175.132 38.3693 175.618 38.5071 176.039 38.7827C176.459 39.0582 176.787 39.4489 177.023 39.9545C177.259 40.4602 177.377 41.0568 177.377 41.7443C177.377 42.4375 177.259 43.0384 177.023 43.5469C176.787 44.0526 176.46 44.4446 176.043 44.723C175.625 44.9986 175.144 45.1364 174.598 45.1364C174.178 45.1364 173.841 45.0668 173.588 44.9276C173.335 44.7855 173.141 44.625 173.004 44.446C172.868 44.2642 172.763 44.1136 172.689 43.9943H172.604V47.4545H171.598ZM172.587 41.7273C172.587 42.2216 172.659 42.6577 172.804 43.0355C172.949 43.4105 173.161 43.7045 173.439 43.9176C173.718 44.1278 174.058 44.233 174.462 44.233C174.882 44.233 175.233 44.1222 175.514 43.9006C175.798 43.6761 176.012 43.375 176.154 42.9972C176.298 42.6165 176.371 42.1932 176.371 41.7273C176.371 41.267 176.3 40.8523 176.158 40.483C176.019 40.1108 175.807 39.8168 175.523 39.6009C175.242 39.3821 174.888 39.2727 174.462 39.2727C174.053 39.2727 173.709 39.3764 173.431 39.5838C173.152 39.7884 172.942 40.0753 172.8 40.4446C172.658 40.8111 172.587 41.2386 172.587 41.7273ZM180.837 45.1534C180.422 45.1534 180.046 45.0753 179.708 44.919C179.369 44.7599 179.101 44.5312 178.902 44.233C178.703 43.9318 178.604 43.5682 178.604 43.142C178.604 42.767 178.678 42.4631 178.825 42.2301C178.973 41.9943 179.171 41.8097 179.418 41.6761C179.665 41.5426 179.938 41.4432 180.236 41.3778C180.537 41.3097 180.84 41.2557 181.144 41.2159C181.541 41.1648 181.864 41.1264 182.111 41.1009C182.361 41.0724 182.543 41.0256 182.656 40.9602C182.773 40.8949 182.831 40.7812 182.831 40.6193V40.5852C182.831 40.1648 182.716 39.8381 182.486 39.6051C182.259 39.3722 181.914 39.2557 181.45 39.2557C180.97 39.2557 180.594 39.3608 180.321 39.571C180.048 39.7812 179.857 40.0057 179.746 40.2443L178.791 39.9034C178.962 39.5057 179.189 39.196 179.473 38.9744C179.76 38.75 180.073 38.5937 180.411 38.5057C180.752 38.4148 181.087 38.3693 181.416 38.3693C181.627 38.3693 181.868 38.3949 182.141 38.446C182.416 38.4943 182.682 38.5952 182.938 38.7486C183.196 38.902 183.411 39.1335 183.581 39.4432C183.752 39.7528 183.837 40.1676 183.837 40.6875V45H182.831V44.1136H182.78C182.712 44.2557 182.598 44.4077 182.439 44.5696C182.28 44.7315 182.068 44.8693 181.804 44.983C181.54 45.0966 181.218 45.1534 180.837 45.1534ZM180.99 44.25C181.388 44.25 181.723 44.1719 181.996 44.0156C182.271 43.8594 182.479 43.6577 182.618 43.4105C182.76 43.1634 182.831 42.9034 182.831 42.6307V41.7102C182.789 41.7614 182.695 41.8082 182.55 41.8509C182.408 41.8906 182.243 41.9261 182.056 41.9574C181.871 41.9858 181.691 42.0114 181.514 42.0341C181.341 42.054 181.2 42.071 181.093 42.0852C180.831 42.1193 180.587 42.1747 180.36 42.2514C180.135 42.3253 179.953 42.4375 179.814 42.5881C179.678 42.7358 179.61 42.9375 179.61 43.1932C179.61 43.5426 179.739 43.8068 179.997 43.9858C180.259 44.1619 180.59 44.25 180.99 44.25ZM190.309 39.9205L189.405 40.1761C189.349 40.0256 189.265 39.8793 189.154 39.7372C189.046 39.5923 188.898 39.473 188.711 39.3793C188.523 39.2855 188.283 39.2386 187.991 39.2386C187.59 39.2386 187.256 39.331 186.989 39.5156C186.725 39.6974 186.593 39.929 186.593 40.2102C186.593 40.4602 186.684 40.6577 186.866 40.8026C187.047 40.9474 187.331 41.0682 187.718 41.1648L188.689 41.4034C189.275 41.5455 189.711 41.7628 189.998 42.0554C190.285 42.3452 190.428 42.7187 190.428 43.1761C190.428 43.5511 190.32 43.8864 190.104 44.1818C189.891 44.4773 189.593 44.7102 189.209 44.8807C188.826 45.0511 188.38 45.1364 187.871 45.1364C187.204 45.1364 186.651 44.9915 186.214 44.7017C185.776 44.4119 185.499 43.9886 185.383 43.4318L186.337 43.1932C186.428 43.5455 186.6 43.8097 186.853 43.9858C187.108 44.1619 187.442 44.25 187.854 44.25C188.323 44.25 188.695 44.1506 188.971 43.9517C189.249 43.75 189.388 43.5085 189.388 43.2273C189.388 43 189.309 42.8097 189.15 42.6562C188.991 42.5 188.746 42.3835 188.417 42.3068L187.326 42.0511C186.726 41.9091 186.286 41.6889 186.005 41.3906C185.726 41.0895 185.587 40.7131 185.587 40.2614C185.587 39.892 185.691 39.5653 185.898 39.2812C186.108 38.9972 186.394 38.7741 186.755 38.6122C187.118 38.4503 187.53 38.3693 187.991 38.3693C188.638 38.3693 189.147 38.5114 189.516 38.7955C189.888 39.0795 190.153 39.4545 190.309 39.9205ZM196.578 39.9205L195.675 40.1761C195.618 40.0256 195.534 39.8793 195.423 39.7372C195.316 39.5923 195.168 39.473 194.98 39.3793C194.793 39.2855 194.553 39.2386 194.26 39.2386C193.86 39.2386 193.526 39.331 193.259 39.5156C192.994 39.6974 192.862 39.929 192.862 40.2102C192.862 40.4602 192.953 40.6577 193.135 40.8026C193.317 40.9474 193.601 41.0682 193.987 41.1648L194.959 41.4034C195.544 41.5455 195.98 41.7628 196.267 42.0554C196.554 42.3452 196.698 42.7187 196.698 43.1761C196.698 43.5511 196.59 43.8864 196.374 44.1818C196.161 44.4773 195.862 44.7102 195.479 44.8807C195.095 45.0511 194.649 45.1364 194.141 45.1364C193.473 45.1364 192.921 44.9915 192.483 44.7017C192.046 44.4119 191.769 43.9886 191.652 43.4318L192.607 43.1932C192.698 43.5455 192.869 43.8097 193.122 43.9858C193.378 44.1619 193.712 44.25 194.124 44.25C194.593 44.25 194.965 44.1506 195.24 43.9517C195.519 43.75 195.658 43.5085 195.658 43.2273C195.658 43 195.578 42.8097 195.419 42.6562C195.26 42.5 195.016 42.3835 194.686 42.3068L193.595 42.0511C192.996 41.9091 192.556 41.6889 192.274 41.3906C191.996 41.0895 191.857 40.7131 191.857 40.2614C191.857 39.892 191.96 39.5653 192.168 39.2812C192.378 38.9972 192.664 38.7741 193.024 38.6122C193.388 38.4503 193.8 38.3693 194.26 38.3693C194.908 38.3693 195.416 38.5114 195.786 38.7955C196.158 39.0795 196.422 39.4545 196.578 39.9205ZM199.694 45L197.7 38.4545H198.757L200.172 43.4659H200.24L201.638 38.4545H202.711L204.092 43.4489H204.16L205.575 38.4545H206.632L204.638 45H203.649L202.217 39.9716H202.115L200.683 45H199.694ZM210.398 45.1364C209.807 45.1364 209.289 44.9957 208.843 44.7145C208.399 44.4332 208.053 44.0398 207.803 43.5341C207.556 43.0284 207.432 42.4375 207.432 41.7614C207.432 41.0795 207.556 40.4844 207.803 39.9759C208.053 39.4673 208.399 39.0724 208.843 38.7912C209.289 38.5099 209.807 38.3693 210.398 38.3693C210.989 38.3693 211.506 38.5099 211.949 38.7912C212.395 39.0724 212.742 39.4673 212.989 39.9759C213.239 40.4844 213.364 41.0795 213.364 41.7614C213.364 42.4375 213.239 43.0284 212.989 43.5341C212.742 44.0398 212.395 44.4332 211.949 44.7145C211.506 44.9957 210.989 45.1364 210.398 45.1364ZM210.398 44.233C210.847 44.233 211.216 44.1179 211.506 43.8878C211.796 43.6577 212.01 43.3551 212.149 42.9801C212.289 42.6051 212.358 42.1989 212.358 41.7614C212.358 41.3239 212.289 40.9162 212.149 40.5384C212.01 40.1605 211.796 39.8551 211.506 39.6222C211.216 39.3892 210.847 39.2727 210.398 39.2727C209.949 39.2727 209.58 39.3892 209.29 39.6222C209 39.8551 208.786 40.1605 208.646 40.5384C208.507 40.9162 208.438 41.3239 208.438 41.7614C208.438 42.1989 208.507 42.6051 208.646 42.9801C208.786 43.3551 209 43.6577 209.29 43.8878C209.58 44.1179 209.949 44.233 210.398 44.233ZM214.899 45V38.4545H215.871V39.4432H215.939C216.058 39.1193 216.274 38.8565 216.586 38.6548C216.899 38.4531 217.251 38.3523 217.643 38.3523C217.717 38.3523 217.809 38.3537 217.92 38.3565C218.031 38.3594 218.115 38.3636 218.172 38.3693V39.392C218.138 39.3835 218.059 39.3707 217.937 39.3537C217.818 39.3338 217.692 39.3239 217.558 39.3239C217.24 39.3239 216.956 39.3906 216.706 39.5241C216.459 39.6548 216.263 39.8366 216.118 40.0696C215.976 40.2997 215.905 40.5625 215.905 40.858V45H214.899ZM221.636 45.1364C221.091 45.1364 220.609 44.9986 220.192 44.723C219.774 44.4446 219.447 44.0526 219.211 43.5469C218.976 43.0384 218.858 42.4375 218.858 41.7443C218.858 41.0568 218.976 40.4602 219.211 39.9545C219.447 39.4489 219.775 39.0582 220.196 38.7827C220.616 38.5071 221.102 38.3693 221.653 38.3693C222.079 38.3693 222.416 38.4403 222.663 38.5824C222.913 38.7216 223.104 38.8807 223.234 39.0597C223.368 39.2358 223.471 39.3807 223.545 39.4943H223.631V36.2727H224.636V45H223.665V43.9943H223.545C223.471 44.1136 223.366 44.2642 223.23 44.446C223.094 44.625 222.899 44.7855 222.646 44.9276C222.393 45.0668 222.057 45.1364 221.636 45.1364ZM221.773 44.233C222.176 44.233 222.517 44.1278 222.795 43.9176C223.074 43.7045 223.285 43.4105 223.43 43.0355C223.575 42.6577 223.648 42.2216 223.648 41.7273C223.648 41.2386 223.577 40.8111 223.434 40.4446C223.292 40.0753 223.082 39.7884 222.804 39.5838C222.525 39.3764 222.182 39.2727 221.773 39.2727C221.346 39.2727 220.991 39.3821 220.707 39.6009C220.426 39.8168 220.214 40.1108 220.072 40.483C219.933 40.8523 219.863 41.267 219.863 41.7273C219.863 42.1932 219.934 42.6165 220.077 42.9972C220.221 43.375 220.434 43.6761 220.716 43.9006C221 44.1222 221.352 44.233 221.773 44.233ZM231.919 45.1534C231.504 45.1534 231.128 45.0753 230.79 44.919C230.452 44.7599 230.183 44.5312 229.984 44.233C229.785 43.9318 229.686 43.5682 229.686 43.142C229.686 42.767 229.76 42.4631 229.907 42.2301C230.055 41.9943 230.253 41.8097 230.5 41.6761C230.747 41.5426 231.02 41.4432 231.318 41.3778C231.619 41.3097 231.922 41.2557 232.226 41.2159C232.623 41.1648 232.946 41.1264 233.193 41.1009C233.443 41.0724 233.625 41.0256 233.738 40.9602C233.855 40.8949 233.913 40.7812 233.913 40.6193V40.5852C233.913 40.1648 233.798 39.8381 233.568 39.6051C233.341 39.3722 232.996 39.2557 232.532 39.2557C232.052 39.2557 231.676 39.3608 231.403 39.571C231.131 39.7812 230.939 40.0057 230.828 40.2443L229.873 39.9034C230.044 39.5057 230.271 39.196 230.555 38.9744C230.842 38.75 231.155 38.5937 231.493 38.5057C231.834 38.4148 232.169 38.3693 232.498 38.3693C232.709 38.3693 232.95 38.3949 233.223 38.446C233.498 38.4943 233.764 38.5952 234.02 38.7486C234.278 38.902 234.493 39.1335 234.663 39.4432C234.834 39.7528 234.919 40.1676 234.919 40.6875V45H233.913V44.1136H233.862C233.794 44.2557 233.68 44.4077 233.521 44.5696C233.362 44.7315 233.15 44.8693 232.886 44.983C232.622 45.0966 232.3 45.1534 231.919 45.1534ZM232.072 44.25C232.47 44.25 232.805 44.1719 233.078 44.0156C233.354 43.8594 233.561 43.6577 233.7 43.4105C233.842 43.1634 233.913 42.9034 233.913 42.6307V41.7102C233.871 41.7614 233.777 41.8082 233.632 41.8509C233.49 41.8906 233.325 41.9261 233.138 41.9574C232.953 41.9858 232.773 42.0114 232.596 42.0341C232.423 42.054 232.282 42.071 232.175 42.0852C231.913 42.1193 231.669 42.1747 231.442 42.2514C231.217 42.3253 231.035 42.4375 230.896 42.5881C230.76 42.7358 230.692 42.9375 230.692 43.1932C230.692 43.5426 230.821 43.8068 231.079 43.9858C231.341 44.1619 231.672 44.25 232.072 44.25ZM237.76 41.0625V45H236.754V38.4545H237.726V39.4773H237.811C237.965 39.1449 238.198 38.8778 238.51 38.6761C238.823 38.4716 239.226 38.3693 239.72 38.3693C240.164 38.3693 240.551 38.4602 240.884 38.642C241.216 38.821 241.475 39.0938 241.659 39.4602C241.844 39.8239 241.936 40.2841 241.936 40.8409V45H240.931V40.9091C240.931 40.3949 240.797 39.9943 240.53 39.7074C240.263 39.4176 239.896 39.2727 239.431 39.2727C239.11 39.2727 238.823 39.3423 238.57 39.4815C238.32 39.6207 238.122 39.8239 237.977 40.0909C237.833 40.358 237.76 40.6818 237.76 41.0625ZM246.246 45.1364C245.7 45.1364 245.219 44.9986 244.801 44.723C244.383 44.4446 244.057 44.0526 243.821 43.5469C243.585 43.0384 243.467 42.4375 243.467 41.7443C243.467 41.0568 243.585 40.4602 243.821 39.9545C244.057 39.4489 244.385 39.0582 244.805 38.7827C245.226 38.5071 245.711 38.3693 246.263 38.3693C246.689 38.3693 247.025 38.4403 247.273 38.5824C247.523 38.7216 247.713 38.8807 247.844 39.0597C247.977 39.2358 248.081 39.3807 248.155 39.4943H248.24V36.2727H249.246V45H248.274V43.9943H248.155C248.081 44.1136 247.976 44.2642 247.839 44.446C247.703 44.625 247.508 44.7855 247.256 44.9276C247.003 45.0668 246.666 45.1364 246.246 45.1364ZM246.382 44.233C246.785 44.233 247.126 44.1278 247.405 43.9176C247.683 43.7045 247.895 43.4105 248.04 43.0355C248.184 42.6577 248.257 42.2216 248.257 41.7273C248.257 41.2386 248.186 40.8111 248.044 40.4446C247.902 40.0753 247.692 39.7884 247.413 39.5838C247.135 39.3764 246.791 39.2727 246.382 39.2727C245.956 39.2727 245.601 39.3821 245.317 39.6009C245.035 39.8168 244.824 40.1108 244.682 40.483C244.542 40.8523 244.473 41.267 244.473 41.7273C244.473 42.1932 244.544 42.6165 244.686 42.9972C244.831 43.375 245.044 43.6761 245.325 43.9006C245.609 44.1222 245.961 44.233 246.382 44.233ZM256.528 45.1534C256.113 45.1534 255.737 45.0753 255.399 44.919C255.061 44.7599 254.792 44.5312 254.594 44.233C254.395 43.9318 254.295 43.5682 254.295 43.142C254.295 42.767 254.369 42.4631 254.517 42.2301C254.665 41.9943 254.862 41.8097 255.109 41.6761C255.356 41.5426 255.629 41.4432 255.927 41.3778C256.229 41.3097 256.531 41.2557 256.835 41.2159C257.233 41.1648 257.555 41.1264 257.802 41.1009C258.052 41.0724 258.234 41.0256 258.348 40.9602C258.464 40.8949 258.523 40.7812 258.523 40.6193V40.5852C258.523 40.1648 258.407 39.8381 258.177 39.6051C257.95 39.3722 257.605 39.2557 257.142 39.2557C256.662 39.2557 256.285 39.3608 256.013 39.571C255.74 39.7812 255.548 40.0057 255.437 40.2443L254.483 39.9034C254.653 39.5057 254.881 39.196 255.165 38.9744C255.452 38.75 255.764 38.5937 256.102 38.5057C256.443 38.4148 256.778 38.3693 257.108 38.3693C257.318 38.3693 257.559 38.3949 257.832 38.446C258.108 38.4943 258.373 38.5952 258.629 38.7486C258.888 38.902 259.102 39.1335 259.273 39.4432C259.443 39.7528 259.528 40.1676 259.528 40.6875V45H258.523V44.1136H258.471C258.403 44.2557 258.29 44.4077 258.131 44.5696C257.971 44.7315 257.76 44.8693 257.496 44.983C257.231 45.0966 256.909 45.1534 256.528 45.1534ZM256.682 44.25C257.079 44.25 257.415 44.1719 257.687 44.0156C257.963 43.8594 258.17 43.6577 258.309 43.4105C258.452 43.1634 258.523 42.9034 258.523 42.6307V41.7102C258.48 41.7614 258.386 41.8082 258.241 41.8509C258.099 41.8906 257.934 41.9261 257.747 41.9574C257.562 41.9858 257.382 42.0114 257.206 42.0341C257.032 42.054 256.892 42.071 256.784 42.0852C256.523 42.1193 256.278 42.1747 256.051 42.2514C255.827 42.3253 255.645 42.4375 255.506 42.5881C255.369 42.7358 255.301 42.9375 255.301 43.1932C255.301 43.5426 255.43 43.8068 255.689 43.9858C255.95 44.1619 256.281 44.25 256.682 44.25ZM264.023 45.1364C263.409 45.1364 262.881 44.9915 262.438 44.7017C261.994 44.4119 261.654 44.0128 261.415 43.5043C261.176 42.9957 261.057 42.4148 261.057 41.7614C261.057 41.0966 261.179 40.5099 261.423 40.0014C261.671 39.4901 262.014 39.0909 262.455 38.804C262.898 38.5142 263.415 38.3693 264.006 38.3693C264.466 38.3693 264.881 38.4545 265.25 38.625C265.619 38.7955 265.922 39.0341 266.158 39.3409C266.394 39.6477 266.54 40.0057 266.597 40.4148H265.591C265.514 40.1165 265.344 39.8523 265.08 39.6222C264.818 39.3892 264.466 39.2727 264.023 39.2727C263.631 39.2727 263.287 39.375 262.992 39.5795C262.699 39.7812 262.47 40.0668 262.306 40.4361C262.144 40.8026 262.063 41.233 262.063 41.7273C262.063 42.233 262.142 42.6733 262.301 43.0483C262.463 43.4233 262.691 43.7145 262.983 43.9219C263.279 44.1293 263.625 44.233 264.023 44.233C264.284 44.233 264.521 44.1875 264.735 44.0966C264.948 44.0057 265.128 43.875 265.276 43.7045C265.423 43.5341 265.529 43.3295 265.591 43.0909H266.597C266.54 43.4773 266.399 43.8253 266.175 44.1349C265.953 44.4418 265.659 44.6861 265.293 44.8679C264.929 45.0469 264.506 45.1364 264.023 45.1364ZM270.726 45.1364C270.112 45.1364 269.584 44.9915 269.141 44.7017C268.698 44.4119 268.357 44.0128 268.118 43.5043C267.879 42.9957 267.76 42.4148 267.76 41.7614C267.76 41.0966 267.882 40.5099 268.127 40.0014C268.374 39.4901 268.718 39.0909 269.158 38.804C269.601 38.5142 270.118 38.3693 270.709 38.3693C271.169 38.3693 271.584 38.4545 271.953 38.625C272.323 38.7955 272.625 39.0341 272.861 39.3409C273.097 39.6477 273.243 40.0057 273.3 40.4148H272.294C272.218 40.1165 272.047 39.8523 271.783 39.6222C271.521 39.3892 271.169 39.2727 270.726 39.2727C270.334 39.2727 269.99 39.375 269.695 39.5795C269.402 39.7812 269.173 40.0668 269.009 40.4361C268.847 40.8026 268.766 41.233 268.766 41.7273C268.766 42.233 268.845 42.6733 269.004 43.0483C269.166 43.4233 269.394 43.7145 269.686 43.9219C269.982 44.1293 270.328 44.233 270.726 44.233C270.987 44.233 271.225 44.1875 271.438 44.0966C271.651 44.0057 271.831 43.875 271.979 43.7045C272.127 43.5341 272.232 43.3295 272.294 43.0909H273.3C273.243 43.4773 273.102 43.8253 272.878 44.1349C272.656 44.4418 272.362 44.6861 271.996 44.8679C271.632 45.0469 271.209 45.1364 270.726 45.1364ZM277.514 45.1364C276.884 45.1364 276.34 44.9972 275.882 44.7188C275.428 44.4375 275.077 44.0455 274.83 43.5426C274.585 43.0369 274.463 42.4489 274.463 41.7784C274.463 41.108 274.585 40.517 274.83 40.0057C275.077 39.4915 275.421 39.0909 275.861 38.804C276.304 38.5142 276.821 38.3693 277.412 38.3693C277.753 38.3693 278.09 38.4261 278.422 38.5398C278.754 38.6534 279.057 38.8381 279.33 39.0938C279.602 39.3466 279.82 39.6818 279.982 40.0994C280.144 40.517 280.225 41.0312 280.225 41.642V42.0682H275.179V41.1989H279.202C279.202 40.8295 279.128 40.5 278.98 40.2102C278.835 39.9205 278.628 39.6918 278.358 39.5241C278.091 39.3565 277.776 39.2727 277.412 39.2727C277.012 39.2727 276.665 39.3722 276.372 39.571C276.083 39.767 275.86 40.0227 275.703 40.3381C275.547 40.6534 275.469 40.9915 275.469 41.3523V41.9318C275.469 42.4261 275.554 42.8452 275.725 43.1889C275.898 43.5298 276.138 43.7898 276.445 43.9688C276.752 44.1449 277.108 44.233 277.514 44.233C277.779 44.233 278.017 44.196 278.23 44.1222C278.446 44.0455 278.632 43.9318 278.789 43.7812C278.945 43.6278 279.066 43.4375 279.151 43.2102L280.122 43.483C280.02 43.8125 279.848 44.1023 279.607 44.3523C279.365 44.5994 279.067 44.7926 278.712 44.9318C278.357 45.0682 277.958 45.1364 277.514 45.1364ZM286.391 39.9205L285.487 40.1761C285.431 40.0256 285.347 39.8793 285.236 39.7372C285.128 39.5923 284.98 39.473 284.793 39.3793C284.605 39.2855 284.365 39.2386 284.073 39.2386C283.672 39.2386 283.338 39.331 283.071 39.5156C282.807 39.6974 282.675 39.929 282.675 40.2102C282.675 40.4602 282.766 40.6577 282.948 40.8026C283.129 40.9474 283.414 41.0682 283.8 41.1648L284.771 41.4034C285.357 41.5455 285.793 41.7628 286.08 42.0554C286.367 42.3452 286.51 42.7187 286.51 43.1761C286.51 43.5511 286.402 43.8864 286.186 44.1818C285.973 44.4773 285.675 44.7102 285.291 44.8807C284.908 45.0511 284.462 45.1364 283.953 45.1364C283.286 45.1364 282.733 44.9915 282.296 44.7017C281.858 44.4119 281.581 43.9886 281.465 43.4318L282.419 43.1932C282.51 43.5455 282.682 43.8097 282.935 43.9858C283.191 44.1619 283.524 44.25 283.936 44.25C284.405 44.25 284.777 44.1506 285.053 43.9517C285.331 43.75 285.47 43.5085 285.47 43.2273C285.47 43 285.391 42.8097 285.232 42.6562C285.073 42.5 284.828 42.3835 284.499 42.3068L283.408 42.0511C282.808 41.9091 282.368 41.6889 282.087 41.3906C281.808 41.0895 281.669 40.7131 281.669 40.2614C281.669 39.892 281.773 39.5653 281.98 39.2812C282.191 38.9972 282.476 38.7741 282.837 38.6122C283.2 38.4503 283.612 38.3693 284.073 38.3693C284.72 38.3693 285.229 38.5114 285.598 38.7955C285.97 39.0795 286.235 39.4545 286.391 39.9205ZM292.66 39.9205L291.757 40.1761C291.7 40.0256 291.616 39.8793 291.506 39.7372C291.398 39.5923 291.25 39.473 291.062 39.3793C290.875 39.2855 290.635 39.2386 290.342 39.2386C289.942 39.2386 289.608 39.331 289.341 39.5156C289.077 39.6974 288.944 39.929 288.944 40.2102C288.944 40.4602 289.035 40.6577 289.217 40.8026C289.399 40.9474 289.683 41.0682 290.069 41.1648L291.041 41.4034C291.626 41.5455 292.062 41.7628 292.349 42.0554C292.636 42.3452 292.78 42.7187 292.78 43.1761C292.78 43.5511 292.672 43.8864 292.456 44.1818C292.243 44.4773 291.944 44.7102 291.561 44.8807C291.177 45.0511 290.731 45.1364 290.223 45.1364C289.555 45.1364 289.003 44.9915 288.565 44.7017C288.128 44.4119 287.851 43.9886 287.734 43.4318L288.689 43.1932C288.78 43.5455 288.952 43.8097 289.204 43.9858C289.46 44.1619 289.794 44.25 290.206 44.25C290.675 44.25 291.047 44.1506 291.322 43.9517C291.601 43.75 291.74 43.5085 291.74 43.2273C291.74 43 291.66 42.8097 291.501 42.6562C291.342 42.5 291.098 42.3835 290.768 42.3068L289.677 42.0511C289.078 41.9091 288.638 41.6889 288.356 41.3906C288.078 41.0895 287.939 40.7131 287.939 40.2614C287.939 39.892 288.042 39.5653 288.25 39.2812C288.46 38.9972 288.746 38.7741 289.106 38.6122C289.47 38.4503 289.882 38.3693 290.342 38.3693C290.99 38.3693 291.498 38.5114 291.868 38.7955C292.24 39.0795 292.504 39.4545 292.66 39.9205ZM97.0115 62.4545C96.8411 62.4545 96.6891 62.4403 96.5556 62.4119C96.4221 62.3864 96.3297 62.3608 96.2786 62.3352L96.5343 61.4489C96.7786 61.5114 96.9945 61.5341 97.182 61.517C97.3695 61.5 97.5357 61.4162 97.6806 61.2656C97.8283 61.1179 97.9632 60.8778 98.0854 60.5455L98.2729 60.0341L95.8525 53.4545H96.9434L98.7502 58.6705H98.8184L100.625 53.4545H101.716L98.9377 60.9545C98.8127 61.2926 98.6578 61.5724 98.4732 61.794C98.2885 62.0185 98.074 62.1847 97.8297 62.2926C97.5882 62.4006 97.3155 62.4545 97.0115 62.4545ZM105.468 60.1364C104.877 60.1364 104.359 59.9957 103.913 59.7145C103.47 59.4332 103.123 59.0398 102.873 58.5341C102.626 58.0284 102.502 57.4375 102.502 56.7614C102.502 56.0795 102.626 55.4844 102.873 54.9759C103.123 54.4673 103.47 54.0724 103.913 53.7912C104.359 53.5099 104.877 53.3693 105.468 53.3693C106.059 53.3693 106.576 53.5099 107.019 53.7912C107.465 54.0724 107.812 54.4673 108.059 54.9759C108.309 55.4844 108.434 56.0795 108.434 56.7614C108.434 57.4375 108.309 58.0284 108.059 58.5341C107.812 59.0398 107.465 59.4332 107.019 59.7145C106.576 59.9957 106.059 60.1364 105.468 60.1364ZM105.468 59.233C105.917 59.233 106.286 59.1179 106.576 58.8878C106.866 58.6577 107.08 58.3551 107.22 57.9801C107.359 57.6051 107.428 57.1989 107.428 56.7614C107.428 56.3239 107.359 55.9162 107.22 55.5384C107.08 55.1605 106.866 54.8551 106.576 54.6222C106.286 54.3892 105.917 54.2727 105.468 54.2727C105.019 54.2727 104.65 54.3892 104.36 54.6222C104.07 54.8551 103.856 55.1605 103.717 55.5384C103.578 55.9162 103.508 56.3239 103.508 56.7614C103.508 57.1989 103.578 57.6051 103.717 57.9801C103.856 58.3551 104.07 58.6577 104.36 58.8878C104.65 59.1179 105.019 59.233 105.468 59.233ZM114.094 57.3239V53.4545H115.1V60H114.094V58.892H114.026C113.873 59.2244 113.634 59.5071 113.31 59.7401C112.986 59.9702 112.577 60.0852 112.083 60.0852C111.674 60.0852 111.31 59.9957 110.992 59.8168C110.674 59.6349 110.424 59.3622 110.242 58.9986C110.06 58.6321 109.969 58.1705 109.969 57.6136V53.4545H110.975V57.5455C110.975 58.0227 111.108 58.4034 111.376 58.6875C111.645 58.9716 111.989 59.1136 112.407 59.1136C112.657 59.1136 112.911 59.0497 113.17 58.9219C113.431 58.794 113.65 58.598 113.826 58.3338C114.005 58.0696 114.094 57.733 114.094 57.3239ZM116.942 60V53.4545H117.914V54.4432H117.982C118.101 54.1193 118.317 53.8565 118.629 53.6548C118.942 53.4531 119.294 53.3523 119.686 53.3523C119.76 53.3523 119.852 53.3537 119.963 53.3565C120.074 53.3594 120.158 53.3636 120.215 53.3693V54.392C120.181 54.3835 120.102 54.3707 119.98 54.3537C119.861 54.3338 119.735 54.3239 119.601 54.3239C119.283 54.3239 118.999 54.3906 118.749 54.5241C118.502 54.6548 118.306 54.8366 118.161 55.0696C118.019 55.2997 117.948 55.5625 117.948 55.858V60H116.942ZM124.524 62.4545V53.4545H125.496V54.4943H125.615C125.689 54.3807 125.791 54.2358 125.922 54.0597C126.055 53.8807 126.246 53.7216 126.493 53.5824C126.743 53.4403 127.081 53.3693 127.507 53.3693C128.058 53.3693 128.544 53.5071 128.964 53.7827C129.385 54.0582 129.713 54.4489 129.949 54.9545C130.184 55.4602 130.302 56.0568 130.302 56.7443C130.302 57.4375 130.184 58.0384 129.949 58.5469C129.713 59.0526 129.386 59.4446 128.969 59.723C128.551 59.9986 128.069 60.1364 127.524 60.1364C127.104 60.1364 126.767 60.0668 126.514 59.9276C126.261 59.7855 126.067 59.625 125.93 59.446C125.794 59.2642 125.689 59.1136 125.615 58.9943H125.53V62.4545H124.524ZM125.513 56.7273C125.513 57.2216 125.585 57.6577 125.73 58.0355C125.875 58.4105 126.086 58.7045 126.365 58.9176C126.643 59.1278 126.984 59.233 127.388 59.233C127.808 59.233 128.159 59.1222 128.44 58.9006C128.724 58.6761 128.937 58.375 129.079 57.9972C129.224 57.6165 129.297 57.1932 129.297 56.7273C129.297 56.267 129.226 55.8523 129.084 55.483C128.944 55.1108 128.733 54.8168 128.449 54.6009C128.167 54.3821 127.814 54.2727 127.388 54.2727C126.979 54.2727 126.635 54.3764 126.356 54.5838C126.078 54.7884 125.868 55.0753 125.726 55.4446C125.584 55.8111 125.513 56.2386 125.513 56.7273ZM134.581 60.1364C133.95 60.1364 133.406 59.9972 132.949 59.7188C132.494 59.4375 132.143 59.0455 131.896 58.5426C131.652 58.0369 131.53 57.4489 131.53 56.7784C131.53 56.108 131.652 55.517 131.896 55.0057C132.143 54.4915 132.487 54.0909 132.927 53.804C133.371 53.5142 133.888 53.3693 134.479 53.3693C134.819 53.3693 135.156 53.4261 135.488 53.5398C135.821 53.6534 136.123 53.8381 136.396 54.0938C136.669 54.3466 136.886 54.6818 137.048 55.0994C137.21 55.517 137.291 56.0312 137.291 56.642V57.0682H132.246V56.1989H136.268C136.268 55.8295 136.194 55.5 136.047 55.2102C135.902 54.9205 135.694 54.6918 135.425 54.5241C135.157 54.3565 134.842 54.2727 134.479 54.2727C134.078 54.2727 133.731 54.3722 133.439 54.571C133.149 54.767 132.926 55.0227 132.77 55.3381C132.613 55.6534 132.535 55.9915 132.535 56.3523V56.9318C132.535 57.4261 132.621 57.8452 132.791 58.1889C132.964 58.5298 133.204 58.7898 133.511 58.9688C133.818 59.1449 134.175 59.233 134.581 59.233C134.845 59.233 135.084 59.196 135.297 59.1222C135.513 59.0455 135.699 58.9318 135.855 58.7812C136.011 58.6278 136.132 58.4375 136.217 58.2102L137.189 58.483C137.086 58.8125 136.915 59.1023 136.673 59.3523C136.432 59.5994 136.133 59.7926 135.778 59.9318C135.423 60.0682 135.024 60.1364 134.581 60.1364ZM138.821 60V53.4545H139.792V54.4432H139.861C139.98 54.1193 140.196 53.8565 140.508 53.6548C140.821 53.4531 141.173 53.3523 141.565 53.3523C141.639 53.3523 141.731 53.3537 141.842 53.3565C141.953 53.3594 142.037 53.3636 142.094 53.3693V54.392C142.059 54.3835 141.981 54.3707 141.859 54.3537C141.74 54.3338 141.613 54.3239 141.48 54.3239C141.162 54.3239 140.878 54.3906 140.628 54.5241C140.381 54.6548 140.184 54.8366 140.04 55.0696C139.898 55.2997 139.827 55.5625 139.827 55.858V60H138.821ZM147.922 54.9205L147.019 55.1761C146.962 55.0256 146.878 54.8793 146.767 54.7372C146.659 54.5923 146.512 54.473 146.324 54.3793C146.137 54.2855 145.896 54.2386 145.604 54.2386C145.203 54.2386 144.869 54.331 144.602 54.5156C144.338 54.6974 144.206 54.929 144.206 55.2102C144.206 55.4602 144.297 55.6577 144.479 55.8026C144.661 55.9474 144.945 56.0682 145.331 56.1648L146.303 56.4034C146.888 56.5455 147.324 56.7628 147.611 57.0554C147.898 57.3452 148.041 57.7187 148.041 58.1761C148.041 58.5511 147.933 58.8864 147.718 59.1818C147.504 59.4773 147.206 59.7102 146.823 59.8807C146.439 60.0511 145.993 60.1364 145.485 60.1364C144.817 60.1364 144.264 59.9915 143.827 59.7017C143.389 59.4119 143.112 58.9886 142.996 58.4318L143.95 58.1932C144.041 58.5455 144.213 58.8097 144.466 58.9858C144.722 59.1619 145.056 59.25 145.468 59.25C145.936 59.25 146.308 59.1506 146.584 58.9517C146.862 58.75 147.002 58.5085 147.002 58.2273C147.002 58 146.922 57.8097 146.763 57.6562C146.604 57.5 146.36 57.3835 146.03 57.3068L144.939 57.0511C144.34 56.9091 143.899 56.6889 143.618 56.3906C143.34 56.0895 143.2 55.7131 143.2 55.2614C143.2 54.892 143.304 54.5653 143.512 54.2812C143.722 53.9972 144.007 53.7741 144.368 53.6122C144.732 53.4503 145.144 53.3693 145.604 53.3693C146.252 53.3693 146.76 53.5114 147.129 53.7955C147.502 54.0795 147.766 54.4545 147.922 54.9205ZM152.214 60.1364C151.623 60.1364 151.105 59.9957 150.659 59.7145C150.216 59.4332 149.869 59.0398 149.619 58.5341C149.372 58.0284 149.248 57.4375 149.248 56.7614C149.248 56.0795 149.372 55.4844 149.619 54.9759C149.869 54.4673 150.216 54.0724 150.659 53.7912C151.105 53.5099 151.623 53.3693 152.214 53.3693C152.805 53.3693 153.322 53.5099 153.765 53.7912C154.211 54.0724 154.558 54.4673 154.805 54.9759C155.055 55.4844 155.18 56.0795 155.18 56.7614C155.18 57.4375 155.055 58.0284 154.805 58.5341C154.558 59.0398 154.211 59.4332 153.765 59.7145C153.322 59.9957 152.805 60.1364 152.214 60.1364ZM152.214 59.233C152.663 59.233 153.032 59.1179 153.322 58.8878C153.612 58.6577 153.827 58.3551 153.966 57.9801C154.105 57.6051 154.175 57.1989 154.175 56.7614C154.175 56.3239 154.105 55.9162 153.966 55.5384C153.827 55.1605 153.612 54.8551 153.322 54.6222C153.032 54.3892 152.663 54.2727 152.214 54.2727C151.765 54.2727 151.396 54.3892 151.106 54.6222C150.817 54.8551 150.602 55.1605 150.463 55.5384C150.324 55.9162 150.254 56.3239 150.254 56.7614C150.254 57.1989 150.324 57.6051 150.463 57.9801C150.602 58.3551 150.817 58.6577 151.106 58.8878C151.396 59.1179 151.765 59.233 152.214 59.233ZM157.721 56.0625V60H156.715V53.4545H157.687V54.4773H157.772C157.926 54.1449 158.159 53.8778 158.471 53.6761C158.784 53.4716 159.187 53.3693 159.681 53.3693C160.124 53.3693 160.512 53.4602 160.845 53.642C161.177 53.821 161.436 54.0938 161.62 54.4602C161.805 54.8239 161.897 55.2841 161.897 55.8409V60H160.892V55.9091C160.892 55.3949 160.758 54.9943 160.491 54.7074C160.224 54.4176 159.857 54.2727 159.392 54.2727C159.07 54.2727 158.784 54.3423 158.531 54.4815C158.281 54.6207 158.083 54.8239 157.938 55.0909C157.794 55.358 157.721 55.6818 157.721 56.0625ZM165.661 60.1534C165.246 60.1534 164.87 60.0753 164.532 59.919C164.194 59.7599 163.925 59.5312 163.726 59.233C163.528 58.9318 163.428 58.5682 163.428 58.142C163.428 57.767 163.502 57.4631 163.65 57.2301C163.797 56.9943 163.995 56.8097 164.242 56.6761C164.489 56.5426 164.762 56.4432 165.06 56.3778C165.361 56.3097 165.664 56.2557 165.968 56.2159C166.366 56.1648 166.688 56.1264 166.935 56.1009C167.185 56.0724 167.367 56.0256 167.481 55.9602C167.597 55.8949 167.655 55.7812 167.655 55.6193V55.5852C167.655 55.1648 167.54 54.8381 167.31 54.6051C167.083 54.3722 166.738 54.2557 166.275 54.2557C165.795 54.2557 165.418 54.3608 165.145 54.571C164.873 54.7812 164.681 55.0057 164.57 55.2443L163.616 54.9034C163.786 54.5057 164.013 54.196 164.297 53.9744C164.584 53.75 164.897 53.5937 165.235 53.5057C165.576 53.4148 165.911 53.3693 166.241 53.3693C166.451 53.3693 166.692 53.3949 166.965 53.446C167.241 53.4943 167.506 53.5952 167.762 53.7486C168.02 53.902 168.235 54.1335 168.405 54.4432C168.576 54.7528 168.661 55.1676 168.661 55.6875V60H167.655V59.1136H167.604C167.536 59.2557 167.422 59.4077 167.263 59.5696C167.104 59.7315 166.893 59.8693 166.628 59.983C166.364 60.0966 166.042 60.1534 165.661 60.1534ZM165.814 59.25C166.212 59.25 166.547 59.1719 166.82 59.0156C167.096 58.8594 167.303 58.6577 167.442 58.4105C167.584 58.1634 167.655 57.9034 167.655 57.6307V56.7102C167.613 56.7614 167.519 56.8082 167.374 56.8509C167.232 56.8906 167.067 56.9261 166.88 56.9574C166.695 56.9858 166.515 57.0114 166.339 57.0341C166.165 57.054 166.025 57.071 165.917 57.0852C165.655 57.1193 165.411 57.1747 165.184 57.2514C164.959 57.3253 164.778 57.4375 164.638 57.5881C164.502 57.7358 164.434 57.9375 164.434 58.1932C164.434 58.5426 164.563 58.8068 164.822 58.9858C165.083 59.1619 165.414 59.25 165.814 59.25ZM171.502 51.2727V60H170.497V51.2727H171.502ZM178.645 60.1534C178.231 60.1534 177.854 60.0753 177.516 59.919C177.178 59.7599 176.91 59.5312 176.711 59.233C176.512 58.9318 176.412 58.5682 176.412 58.142C176.412 57.767 176.486 57.4631 176.634 57.2301C176.782 56.9943 176.979 56.8097 177.226 56.6761C177.474 56.5426 177.746 56.4432 178.045 56.3778C178.346 56.3097 178.648 56.2557 178.952 56.2159C179.35 56.1648 179.672 56.1264 179.92 56.1009C180.17 56.0724 180.351 56.0256 180.465 55.9602C180.581 55.8949 180.64 55.7812 180.64 55.6193V55.5852C180.64 55.1648 180.525 54.8381 180.295 54.6051C180.067 54.3722 179.722 54.2557 179.259 54.2557C178.779 54.2557 178.403 54.3608 178.13 54.571C177.857 54.7812 177.665 55.0057 177.555 55.2443L176.6 54.9034C176.77 54.5057 176.998 54.196 177.282 53.9744C177.569 53.75 177.881 53.5937 178.219 53.5057C178.56 53.4148 178.895 53.3693 179.225 53.3693C179.435 53.3693 179.677 53.3949 179.949 53.446C180.225 53.4943 180.491 53.5952 180.746 53.7486C181.005 53.902 181.219 54.1335 181.39 54.4432C181.56 54.7528 181.645 55.1676 181.645 55.6875V60H180.64V59.1136H180.589C180.52 59.2557 180.407 59.4077 180.248 59.5696C180.089 59.7315 179.877 59.8693 179.613 59.983C179.349 60.0966 179.026 60.1534 178.645 60.1534ZM178.799 59.25C179.197 59.25 179.532 59.1719 179.805 59.0156C180.08 58.8594 180.287 58.6577 180.427 58.4105C180.569 58.1634 180.64 57.9034 180.64 57.6307V56.7102C180.597 56.7614 180.503 56.8082 180.358 56.8509C180.216 56.8906 180.052 56.9261 179.864 56.9574C179.68 56.9858 179.499 57.0114 179.323 57.0341C179.15 57.054 179.009 57.071 178.901 57.0852C178.64 57.1193 178.395 57.1747 178.168 57.2514C177.944 57.3253 177.762 57.4375 177.623 57.5881C177.486 57.7358 177.418 57.9375 177.418 58.1932C177.418 58.5426 177.547 58.8068 177.806 58.9858C178.067 59.1619 178.398 59.25 178.799 59.25ZM186.14 60.1364C185.526 60.1364 184.998 59.9915 184.555 59.7017C184.112 59.4119 183.771 59.0128 183.532 58.5043C183.294 57.9957 183.174 57.4148 183.174 56.7614C183.174 56.0966 183.296 55.5099 183.541 55.0014C183.788 54.4901 184.132 54.0909 184.572 53.804C185.015 53.5142 185.532 53.3693 186.123 53.3693C186.583 53.3693 186.998 53.4545 187.367 53.625C187.737 53.7955 188.039 54.0341 188.275 54.3409C188.511 54.6477 188.657 55.0057 188.714 55.4148H187.708C187.632 55.1165 187.461 54.8523 187.197 54.6222C186.936 54.3892 186.583 54.2727 186.14 54.2727C185.748 54.2727 185.404 54.375 185.109 54.5795C184.816 54.7812 184.588 55.0668 184.423 55.4361C184.261 55.8026 184.18 56.233 184.18 56.7273C184.18 57.233 184.259 57.6733 184.419 58.0483C184.58 58.4233 184.808 58.7145 185.1 58.9219C185.396 59.1293 185.742 59.233 186.14 59.233C186.401 59.233 186.639 59.1875 186.852 59.0966C187.065 59.0057 187.245 58.875 187.393 58.7045C187.541 58.5341 187.646 58.3295 187.708 58.0909H188.714C188.657 58.4773 188.517 58.8253 188.292 59.1349C188.07 59.4418 187.776 59.6861 187.41 59.8679C187.046 60.0469 186.623 60.1364 186.14 60.1364ZM192.843 60.1364C192.23 60.1364 191.701 59.9915 191.258 59.7017C190.815 59.4119 190.474 59.0128 190.235 58.5043C189.997 57.9957 189.877 57.4148 189.877 56.7614C189.877 56.0966 189.999 55.5099 190.244 55.0014C190.491 54.4901 190.835 54.0909 191.275 53.804C191.718 53.5142 192.235 53.3693 192.826 53.3693C193.286 53.3693 193.701 53.4545 194.07 53.625C194.44 53.7955 194.742 54.0341 194.978 54.3409C195.214 54.6477 195.36 55.0057 195.417 55.4148H194.411C194.335 55.1165 194.164 54.8523 193.9 54.6222C193.639 54.3892 193.286 54.2727 192.843 54.2727C192.451 54.2727 192.107 54.375 191.812 54.5795C191.519 54.7812 191.291 55.0668 191.126 55.4361C190.964 55.8026 190.883 56.233 190.883 56.7273C190.883 57.233 190.963 57.6733 191.122 58.0483C191.284 58.4233 191.511 58.7145 191.803 58.9219C192.099 59.1293 192.445 59.233 192.843 59.233C193.105 59.233 193.342 59.1875 193.555 59.0966C193.768 59.0057 193.948 58.875 194.096 58.7045C194.244 58.5341 194.349 58.3295 194.411 58.0909H195.417C195.36 58.4773 195.22 58.8253 194.995 59.1349C194.774 59.4418 194.48 59.6861 194.113 59.8679C193.749 60.0469 193.326 60.1364 192.843 60.1364ZM199.546 60.1364C198.955 60.1364 198.437 59.9957 197.991 59.7145C197.548 59.4332 197.201 59.0398 196.951 58.5341C196.704 58.0284 196.58 57.4375 196.58 56.7614C196.58 56.0795 196.704 55.4844 196.951 54.9759C197.201 54.4673 197.548 54.0724 197.991 53.7912C198.437 53.5099 198.955 53.3693 199.546 53.3693C200.137 53.3693 200.654 53.5099 201.097 53.7912C201.544 54.0724 201.89 54.4673 202.137 54.9759C202.387 55.4844 202.512 56.0795 202.512 56.7614C202.512 57.4375 202.387 58.0284 202.137 58.5341C201.89 59.0398 201.544 59.4332 201.097 59.7145C200.654 59.9957 200.137 60.1364 199.546 60.1364ZM199.546 59.233C199.995 59.233 200.365 59.1179 200.654 58.8878C200.944 58.6577 201.159 58.3551 201.298 57.9801C201.437 57.6051 201.507 57.1989 201.507 56.7614C201.507 56.3239 201.437 55.9162 201.298 55.5384C201.159 55.1605 200.944 54.8551 200.654 54.6222C200.365 54.3892 199.995 54.2727 199.546 54.2727C199.097 54.2727 198.728 54.3892 198.438 54.6222C198.149 54.8551 197.934 55.1605 197.795 55.5384C197.656 55.9162 197.586 56.3239 197.586 56.7614C197.586 57.1989 197.656 57.6051 197.795 57.9801C197.934 58.3551 198.149 58.6577 198.438 58.8878C198.728 59.1179 199.097 59.233 199.546 59.233ZM208.172 57.3239V53.4545H209.178V60H208.172V58.892H208.104C207.951 59.2244 207.712 59.5071 207.388 59.7401C207.064 59.9702 206.655 60.0852 206.161 60.0852C205.752 60.0852 205.388 59.9957 205.07 59.8168C204.752 59.6349 204.502 59.3622 204.32 58.9986C204.138 58.6321 204.047 58.1705 204.047 57.6136V53.4545H205.053V57.5455C205.053 58.0227 205.187 58.4034 205.454 58.6875C205.724 58.9716 206.067 59.1136 206.485 59.1136C206.735 59.1136 206.989 59.0497 207.248 58.9219C207.509 58.794 207.728 58.598 207.904 58.3338C208.083 58.0696 208.172 57.733 208.172 57.3239ZM212.026 56.0625V60H211.02V53.4545H211.992V54.4773H212.077C212.23 54.1449 212.463 53.8778 212.776 53.6761C213.088 53.4716 213.492 53.3693 213.986 53.3693C214.429 53.3693 214.817 53.4602 215.149 53.642C215.482 53.821 215.74 54.0938 215.925 54.4602C216.11 54.8239 216.202 55.2841 216.202 55.8409V60H215.196V55.9091C215.196 55.3949 215.063 54.9943 214.796 54.7074C214.529 54.4176 214.162 54.2727 213.696 54.2727C213.375 54.2727 213.088 54.3423 212.835 54.4815C212.585 54.6207 212.388 54.8239 212.243 55.0909C212.098 55.358 212.026 55.6818 212.026 56.0625ZM220.886 53.4545V54.3068H217.494V53.4545H220.886ZM218.483 51.8864H219.488V58.125C219.488 58.4091 219.53 58.6222 219.612 58.7642C219.697 58.9034 219.805 58.9972 219.936 59.0455C220.069 59.0909 220.21 59.1136 220.358 59.1136C220.469 59.1136 220.559 59.108 220.631 59.0966C220.702 59.0824 220.758 59.071 220.801 59.0625L221.006 59.9659C220.937 59.9915 220.842 60.017 220.72 60.0426C220.598 60.071 220.443 60.0852 220.256 60.0852C219.971 60.0852 219.693 60.0241 219.42 59.902C219.15 59.7798 218.926 59.5938 218.747 59.3438C218.571 59.0938 218.483 58.7784 218.483 58.3977V51.8864ZM227.7 60.1534C227.285 60.1534 226.909 60.0753 226.571 59.919C226.233 59.7599 225.964 59.5312 225.765 59.233C225.567 58.9318 225.467 58.5682 225.467 58.142C225.467 57.767 225.541 57.4631 225.689 57.2301C225.836 56.9943 226.034 56.8097 226.281 56.6761C226.528 56.5426 226.801 56.4432 227.099 56.3778C227.4 56.3097 227.703 56.2557 228.007 56.2159C228.405 56.1648 228.727 56.1264 228.974 56.1009C229.224 56.0724 229.406 56.0256 229.52 55.9602C229.636 55.8949 229.694 55.7812 229.694 55.6193V55.5852C229.694 55.1648 229.579 54.8381 229.349 54.6051C229.122 54.3722 228.777 54.2557 228.314 54.2557C227.834 54.2557 227.457 54.3608 227.184 54.571C226.912 54.7812 226.72 55.0057 226.609 55.2443L225.655 54.9034C225.825 54.5057 226.052 54.196 226.336 53.9744C226.623 53.75 226.936 53.5937 227.274 53.5057C227.615 53.4148 227.95 53.3693 228.28 53.3693C228.49 53.3693 228.731 53.3949 229.004 53.446C229.28 53.4943 229.545 53.5952 229.801 53.7486C230.059 53.902 230.274 54.1335 230.444 54.4432C230.615 54.7528 230.7 55.1676 230.7 55.6875V60H229.694V59.1136H229.643C229.575 59.2557 229.461 59.4077 229.302 59.5696C229.143 59.7315 228.932 59.8693 228.667 59.983C228.403 60.0966 228.081 60.1534 227.7 60.1534ZM227.854 59.25C228.251 59.25 228.586 59.1719 228.859 59.0156C229.135 58.8594 229.342 58.6577 229.481 58.4105C229.623 58.1634 229.694 57.9034 229.694 57.6307V56.7102C229.652 56.7614 229.558 56.8082 229.413 56.8509C229.271 56.8906 229.106 56.9261 228.919 56.9574C228.734 56.9858 228.554 57.0114 228.378 57.0341C228.204 57.054 228.064 57.071 227.956 57.0852C227.694 57.1193 227.45 57.1747 227.223 57.2514C226.998 57.3253 226.817 57.4375 226.677 57.5881C226.541 57.7358 226.473 57.9375 226.473 58.1932C226.473 58.5426 226.602 58.8068 226.861 58.9858C227.122 59.1619 227.453 59.25 227.854 59.25ZM235.178 62.5909C234.692 62.5909 234.274 62.5284 233.925 62.4034C233.575 62.2812 233.284 62.1193 233.051 61.9176C232.821 61.7188 232.638 61.5057 232.502 61.2784L233.303 60.7159C233.394 60.8352 233.509 60.9716 233.648 61.125C233.787 61.2812 233.977 61.4162 234.219 61.5298C234.463 61.6463 234.783 61.7045 235.178 61.7045C235.706 61.7045 236.142 61.5767 236.486 61.321C236.83 61.0653 237.002 60.6648 237.002 60.1193V58.7898H236.916C236.843 58.9091 236.737 59.0568 236.601 59.233C236.468 59.4062 236.274 59.5611 236.021 59.6974C235.771 59.831 235.433 59.8977 235.007 59.8977C234.479 59.8977 234.004 59.7727 233.584 59.5227C233.166 59.2727 232.835 58.9091 232.591 58.4318C232.35 57.9545 232.229 57.375 232.229 56.6932C232.229 56.0227 232.347 55.4389 232.583 54.9418C232.818 54.4418 233.146 54.0554 233.567 53.7827C233.987 53.5071 234.473 53.3693 235.024 53.3693C235.45 53.3693 235.789 53.4403 236.039 53.5824C236.291 53.7216 236.485 53.8807 236.618 54.0597C236.754 54.2358 236.86 54.3807 236.933 54.4943H237.036V53.4545H238.007V60.1875C238.007 60.75 237.879 61.2074 237.624 61.5597C237.371 61.9148 237.03 62.1747 236.601 62.3395C236.175 62.5071 235.7 62.5909 235.178 62.5909ZM235.144 58.9943C235.547 58.9943 235.888 58.902 236.166 58.7173C236.445 58.5327 236.656 58.267 236.801 57.9205C236.946 57.5739 237.019 57.1591 237.019 56.6761C237.019 56.2045 236.948 55.7884 236.806 55.4276C236.664 55.0668 236.453 54.7841 236.175 54.5795C235.896 54.375 235.553 54.2727 235.144 54.2727C234.718 54.2727 234.362 54.3807 234.078 54.5966C233.797 54.8125 233.585 55.1023 233.443 55.4659C233.304 55.8295 233.235 56.233 233.235 56.6761C233.235 57.1307 233.306 57.5327 233.448 57.8821C233.593 58.2287 233.806 58.5014 234.087 58.7003C234.371 58.8963 234.723 58.9943 235.144 58.9943ZM241.774 60.1534C241.36 60.1534 240.983 60.0753 240.645 59.919C240.307 59.7599 240.039 59.5312 239.84 59.233C239.641 58.9318 239.541 58.5682 239.541 58.142C239.541 57.767 239.615 57.4631 239.763 57.2301C239.911 56.9943 240.108 56.8097 240.355 56.6761C240.602 56.5426 240.875 56.4432 241.173 56.3778C241.475 56.3097 241.777 56.2557 242.081 56.2159C242.479 56.1648 242.801 56.1264 243.048 56.1009C243.298 56.0724 243.48 56.0256 243.594 55.9602C243.71 55.8949 243.769 55.7812 243.769 55.6193V55.5852C243.769 55.1648 243.654 54.8381 243.423 54.6051C243.196 54.3722 242.851 54.2557 242.388 54.2557C241.908 54.2557 241.531 54.3608 241.259 54.571C240.986 54.7812 240.794 55.0057 240.683 55.2443L239.729 54.9034C239.899 54.5057 240.127 54.196 240.411 53.9744C240.698 53.75 241.01 53.5937 241.348 53.5057C241.689 53.4148 242.024 53.3693 242.354 53.3693C242.564 53.3693 242.806 53.3949 243.078 53.446C243.354 53.4943 243.619 53.5952 243.875 53.7486C244.134 53.902 244.348 54.1335 244.519 54.4432C244.689 54.7528 244.774 55.1676 244.774 55.6875V60H243.769V59.1136H243.718C243.649 59.2557 243.536 59.4077 243.377 59.5696C243.218 59.7315 243.006 59.8693 242.742 59.983C242.477 60.0966 242.155 60.1534 241.774 60.1534ZM241.928 59.25C242.325 59.25 242.661 59.1719 242.933 59.0156C243.209 58.8594 243.416 58.6577 243.556 58.4105C243.698 58.1634 243.769 57.9034 243.769 57.6307V56.7102C243.726 56.7614 243.632 56.8082 243.487 56.8509C243.345 56.8906 243.181 56.9261 242.993 56.9574C242.808 56.9858 242.628 57.0114 242.452 57.0341C242.279 57.054 242.138 57.071 242.03 57.0852C241.769 57.1193 241.524 57.1747 241.297 57.2514C241.073 57.3253 240.891 57.4375 240.752 57.5881C240.615 57.7358 240.547 57.9375 240.547 58.1932C240.547 58.5426 240.676 58.8068 240.935 58.9858C241.196 59.1619 241.527 59.25 241.928 59.25ZM246.61 60V53.4545H247.616V60H246.61ZM247.121 52.3636C246.925 52.3636 246.756 52.2969 246.614 52.1634C246.475 52.0298 246.405 51.8693 246.405 51.6818C246.405 51.4943 246.475 51.3338 246.614 51.2003C246.756 51.0668 246.925 51 247.121 51C247.317 51 247.485 51.0668 247.624 51.2003C247.766 51.3338 247.837 51.4943 247.837 51.6818C247.837 51.8693 247.766 52.0298 247.624 52.1634C247.485 52.2969 247.317 52.3636 247.121 52.3636ZM250.463 56.0625V60H249.458V53.4545H250.429V54.4773H250.514C250.668 54.1449 250.901 53.8778 251.213 53.6761C251.526 53.4716 251.929 53.3693 252.423 53.3693C252.867 53.3693 253.254 53.4602 253.587 53.642C253.919 53.821 254.178 54.0938 254.362 54.4602C254.547 54.8239 254.639 55.2841 254.639 55.8409V60H253.634V55.9091C253.634 55.3949 253.5 54.9943 253.233 54.7074C252.966 54.4176 252.6 54.2727 252.134 54.2727C251.813 54.2727 251.526 54.3423 251.273 54.4815C251.023 54.6207 250.825 54.8239 250.681 55.0909C250.536 55.358 250.463 55.6818 250.463 56.0625Z"
        fill="#878787" />
</svg>
