<svg width="132" height="32" viewBox="0 0 132 32" fill="none" xmlns="http://www.w3.org/2000/svg">
    <path d="M26.6667 24L26.6667 8" stroke="#141B34" stroke-width="1.5" stroke-linecap="round"/>
    <path d="M21.3335 15.9995L5.3335 15.9995" stroke="#141B34" stroke-width="1.5" stroke-linecap="round" stroke-linejoin="round"/>
    <path d="M16.0002 10.6667C16.0002 10.6667 21.3335 14.5947 21.3335 16.0001C21.3335 17.4056 16.0002 21.3334 16.0002 21.3334" stroke="#141B34" stroke-width="1.5" stroke-linecap="round" stroke-linejoin="round"/>
    <path d="M47.4716 13.5625C47.4186 13.0663 47.1951 12.6799 46.8011 12.4034C46.411 12.1269 45.9034 11.9886 45.2784 11.9886C44.839 11.9886 44.4621 12.0549 44.1477 12.1875C43.8333 12.3201 43.5928 12.5 43.4261 12.7273C43.2595 12.9545 43.1742 13.214 43.1705 13.5057C43.1705 13.7481 43.2254 13.9583 43.3352 14.1364C43.4489 14.3144 43.6023 14.4659 43.7955 14.5909C43.9886 14.7121 44.2027 14.8144 44.4375 14.8977C44.6723 14.9811 44.9091 15.0511 45.1477 15.108L46.2386 15.3807C46.678 15.483 47.1004 15.6212 47.5057 15.7955C47.9148 15.9697 48.2803 16.1894 48.6023 16.4545C48.928 16.7197 49.1856 17.0398 49.375 17.4148C49.5644 17.7898 49.6591 18.2292 49.6591 18.733C49.6591 19.4148 49.4848 20.0152 49.1364 20.5341C48.7879 21.0492 48.2841 21.4527 47.625 21.7443C46.9697 22.0322 46.1761 22.1761 45.2443 22.1761C44.339 22.1761 43.553 22.036 42.8864 21.7557C42.2235 21.4754 41.7045 21.0663 41.3295 20.5284C40.9583 19.9905 40.7576 19.3352 40.7273 18.5625H42.8011C42.8314 18.9678 42.9564 19.3049 43.1761 19.5739C43.3958 19.8428 43.6818 20.0436 44.0341 20.1761C44.3902 20.3087 44.7879 20.375 45.2273 20.375C45.6856 20.375 46.0871 20.3068 46.4318 20.1705C46.7803 20.0303 47.053 19.8371 47.25 19.5909C47.447 19.3409 47.5473 19.0492 47.5511 18.7159C47.5473 18.4129 47.4583 18.1629 47.2841 17.9659C47.1098 17.7652 46.8655 17.5985 46.5511 17.4659C46.2405 17.3295 45.8769 17.2083 45.4602 17.1023L44.1364 16.7614C43.178 16.5152 42.4205 16.142 41.8636 15.642C41.3106 15.1383 41.0341 14.4697 41.0341 13.6364C41.0341 12.9508 41.2197 12.3504 41.5909 11.8352C41.9659 11.3201 42.4754 10.9205 43.1193 10.6364C43.7633 10.3485 44.4924 10.2045 45.3068 10.2045C46.1326 10.2045 46.8561 10.3485 47.4773 10.6364C48.1023 10.9205 48.5928 11.3163 48.9489 11.8239C49.3049 12.3277 49.4886 12.9072 49.5 13.5625H47.4716ZM55.2543 22.1705C54.402 22.1705 53.6634 21.983 53.0384 21.608C52.4134 21.233 51.9285 20.7083 51.5838 20.0341C51.2429 19.3598 51.0724 18.572 51.0724 17.6705C51.0724 16.7689 51.2429 15.9792 51.5838 15.3011C51.9285 14.6231 52.4134 14.0966 53.0384 13.7216C53.6634 13.3466 54.402 13.1591 55.2543 13.1591C56.1065 13.1591 56.8452 13.3466 57.4702 13.7216C58.0952 14.0966 58.5781 14.6231 58.919 15.3011C59.2637 15.9792 59.4361 16.7689 59.4361 17.6705C59.4361 18.572 59.2637 19.3598 58.919 20.0341C58.5781 20.7083 58.0952 21.233 57.4702 21.608C56.8452 21.983 56.1065 22.1705 55.2543 22.1705ZM55.2656 20.5227C55.7277 20.5227 56.1141 20.3958 56.4247 20.142C56.7353 19.8845 56.9664 19.5398 57.1179 19.108C57.2732 18.6761 57.3509 18.1951 57.3509 17.6648C57.3509 17.1307 57.2732 16.6477 57.1179 16.2159C56.9664 15.7803 56.7353 15.4337 56.4247 15.1761C56.1141 14.9186 55.7277 14.7898 55.2656 14.7898C54.7921 14.7898 54.3982 14.9186 54.0838 15.1761C53.7732 15.4337 53.5402 15.7803 53.3849 16.2159C53.2334 16.6477 53.1577 17.1307 53.1577 17.6648C53.1577 18.1951 53.2334 18.6761 53.3849 19.108C53.5402 19.5398 53.7732 19.8845 54.0838 20.142C54.3982 20.3958 54.7921 20.5227 55.2656 20.5227ZM61.1818 22V13.2727H63.1761V14.7273H63.267C63.4261 14.2235 63.6989 13.8352 64.0852 13.5625C64.4754 13.286 64.9205 13.1477 65.4205 13.1477C65.5341 13.1477 65.661 13.1534 65.8011 13.1648C65.9451 13.1723 66.0644 13.1856 66.1591 13.2045V15.0966C66.072 15.0663 65.9337 15.0398 65.7443 15.017C65.5587 14.9905 65.3788 14.9773 65.2045 14.9773C64.8295 14.9773 64.4924 15.0587 64.1932 15.2216C63.8977 15.3807 63.6648 15.6023 63.4943 15.8864C63.3239 16.1705 63.2386 16.4981 63.2386 16.8693V22H61.1818ZM72.3523 13.2727V14.8636H67.3352V13.2727H72.3523ZM68.5739 11.1818H70.6307V19.375C70.6307 19.6515 70.6723 19.8636 70.7557 20.0114C70.8428 20.1553 70.9564 20.2538 71.0966 20.3068C71.2367 20.3598 71.392 20.3864 71.5625 20.3864C71.6913 20.3864 71.8087 20.3769 71.9148 20.358C72.0246 20.339 72.108 20.322 72.1648 20.3068L72.5114 21.9148C72.4015 21.9527 72.2443 21.9943 72.0398 22.0398C71.839 22.0852 71.5928 22.1117 71.3011 22.1193C70.786 22.1345 70.322 22.0568 69.9091 21.8864C69.4962 21.7121 69.1686 21.4432 68.9261 21.0795C68.6875 20.7159 68.5701 20.2614 68.5739 19.7159V11.1818ZM81.5185 22.1705C80.723 22.1705 80.0393 22.0265 79.4673 21.7386C78.8954 21.4508 78.4541 21.0625 78.1435 20.5739C77.8366 20.0814 77.6832 19.5265 77.6832 18.9091C77.6832 18.4432 77.7779 18.0303 77.9673 17.6705C78.1605 17.3106 78.4257 16.9773 78.7628 16.6705C79.1037 16.3636 79.4976 16.0587 79.9446 15.7557L82.0071 14.3523C82.3101 14.1553 82.5393 13.947 82.6946 13.7273C82.8537 13.5076 82.9332 13.25 82.9332 12.9545C82.9332 12.7045 82.8272 12.4678 82.6151 12.2443C82.4067 12.0208 82.1188 11.9091 81.7514 11.9091C81.5052 11.9091 81.2874 11.9678 81.098 12.0852C80.9124 12.1989 80.7666 12.3485 80.6605 12.5341C80.5582 12.7197 80.5071 12.9167 80.5071 13.125C80.5071 13.3788 80.5772 13.6364 80.7173 13.8977C80.8613 14.1591 81.0469 14.4299 81.2741 14.7102C81.5052 14.9905 81.7514 15.2879 82.0128 15.6023L87.473 22H85.2457L80.7116 16.8068C80.3745 16.4129 80.0488 16.0246 79.7344 15.642C79.4238 15.2595 79.1681 14.8617 78.9673 14.4489C78.7704 14.0322 78.6719 13.5814 78.6719 13.0966C78.6719 12.5473 78.7988 12.0568 79.0526 11.625C79.3063 11.1894 79.6605 10.8466 80.1151 10.5966C80.5734 10.3466 81.1094 10.2216 81.723 10.2216C82.3366 10.2216 82.8632 10.3428 83.3026 10.5852C83.742 10.8277 84.081 11.1496 84.3196 11.5511C84.5582 11.9527 84.6776 12.3902 84.6776 12.8636C84.6776 13.4129 84.5412 13.9053 84.2685 14.3409C83.9957 14.7727 83.617 15.1648 83.1321 15.517L80.7798 17.2386C80.3935 17.5189 80.117 17.803 79.9503 18.0909C79.7836 18.375 79.7003 18.6174 79.7003 18.8182C79.7003 19.125 79.7779 19.4034 79.9332 19.6534C80.0885 19.9034 80.3063 20.1042 80.5866 20.2557C80.8707 20.4034 81.2022 20.4773 81.581 20.4773C81.9976 20.4773 82.4086 20.3845 82.8139 20.1989C83.2192 20.0095 83.5885 19.7405 83.9219 19.392C84.2552 19.0436 84.5204 18.6269 84.7173 18.142C84.9143 17.6534 85.0128 17.1117 85.0128 16.517H86.7798C86.7798 17.2519 86.6984 17.892 86.5355 18.4375C86.3726 18.9792 86.1624 19.4375 85.9048 19.8125C85.6473 20.1837 85.3745 20.4811 85.0866 20.7045C84.9957 20.7689 84.9086 20.8333 84.8253 20.8977C84.742 20.9621 84.6548 21.0265 84.5639 21.0909C84.1548 21.4621 83.6757 21.7348 83.1264 21.9091C82.581 22.0833 82.045 22.1705 81.5185 22.1705ZM92.7102 22V10.3636H100.165V12.1307H94.8182V15.2898H99.6534V17.0568H94.8182V22H92.7102ZM101.994 22V13.2727H104.051V22H101.994ZM103.028 12.0341C102.703 12.0341 102.422 11.9261 102.188 11.7102C101.953 11.4905 101.835 11.2273 101.835 10.9205C101.835 10.6098 101.953 10.3466 102.188 10.1307C102.422 9.91098 102.703 9.80114 103.028 9.80114C103.358 9.80114 103.638 9.91098 103.869 10.1307C104.104 10.3466 104.222 10.6098 104.222 10.9205C104.222 11.2273 104.104 11.4905 103.869 11.7102C103.638 11.9261 103.358 12.0341 103.028 12.0341ZM108.223 10.3636V22H106.166V10.3636H108.223ZM114.696 13.2727V14.8636H109.679V13.2727H114.696ZM110.918 11.1818H112.974V19.375C112.974 19.6515 113.016 19.8636 113.099 20.0114C113.187 20.1553 113.3 20.2538 113.44 20.3068C113.58 20.3598 113.736 20.3864 113.906 20.3864C114.035 20.3864 114.152 20.3769 114.259 20.358C114.368 20.339 114.452 20.322 114.509 20.3068L114.855 21.9148C114.745 21.9527 114.588 21.9943 114.384 22.0398C114.183 22.0852 113.937 22.1117 113.645 22.1193C113.13 22.1345 112.666 22.0568 112.253 21.8864C111.84 21.7121 111.512 21.4432 111.27 21.0795C111.031 20.7159 110.914 20.2614 110.918 19.7159V11.1818ZM120.186 22.1705C119.311 22.1705 118.555 21.9886 117.919 21.625C117.286 21.2576 116.8 20.7386 116.459 20.0682C116.118 19.3939 115.947 18.6004 115.947 17.6875C115.947 16.7898 116.118 16.0019 116.459 15.3239C116.804 14.642 117.285 14.1117 117.902 13.733C118.519 13.3504 119.245 13.1591 120.078 13.1591C120.616 13.1591 121.124 13.2462 121.601 13.4205C122.082 13.5909 122.506 13.8561 122.874 14.2159C123.245 14.5758 123.536 15.0341 123.749 15.5909C123.961 16.1439 124.067 16.803 124.067 17.5682V18.1989H116.913V16.8125H122.095C122.091 16.4186 122.006 16.0682 121.839 15.7614C121.673 15.4508 121.44 15.2064 121.141 15.0284C120.845 14.8504 120.5 14.7614 120.107 14.7614C119.686 14.7614 119.317 14.8636 118.999 15.0682C118.68 15.2689 118.432 15.5341 118.254 15.8636C118.08 16.1894 117.991 16.5473 117.987 16.9375V18.1477C117.987 18.6553 118.08 19.0909 118.266 19.4545C118.451 19.8144 118.711 20.0909 119.044 20.2841C119.377 20.4735 119.768 20.5682 120.214 20.5682C120.514 20.5682 120.785 20.5265 121.027 20.4432C121.269 20.3561 121.48 20.2292 121.658 20.0625C121.836 19.8958 121.97 19.6894 122.061 19.4432L123.982 19.6591C123.86 20.1667 123.629 20.6098 123.288 20.9886C122.951 21.3636 122.519 21.6553 121.993 21.8636C121.466 22.0682 120.864 22.1705 120.186 22.1705ZM125.807 22V13.2727H127.801V14.7273H127.892C128.051 14.2235 128.324 13.8352 128.71 13.5625C129.1 13.286 129.545 13.1477 130.045 13.1477C130.159 13.1477 130.286 13.1534 130.426 13.1648C130.57 13.1723 130.689 13.1856 130.784 13.2045V15.0966C130.697 15.0663 130.559 15.0398 130.369 15.017C130.184 14.9905 130.004 14.9773 129.83 14.9773C129.455 14.9773 129.117 15.0587 128.818 15.2216C128.523 15.3807 128.29 15.6023 128.119 15.8864C127.949 16.1705 127.864 16.4981 127.864 16.8693V22H125.807Z" fill="#252525"/>
</svg>
