<svg width="66" height="54" viewBox="0 0 66 54" fill="none" xmlns="http://www.w3.org/2000/svg">
    <rect width="66" height="54" rx="8" fill="#144D2A" />
    <path
        d="M15.62 13.5625C15.567 13.0663 15.3435 12.6799 14.9496 12.4034C14.5594 12.1269 14.0518 11.9886 13.4268 11.9886C12.9875 11.9886 12.6106 12.0549 12.2962 12.1875C11.9818 12.3201 11.7412 12.5 11.5746 12.7273C11.4079 12.9545 11.3227 13.214 11.3189 13.5057C11.3189 13.7481 11.3738 13.9583 11.4837 14.1364C11.5973 14.3144 11.7507 14.4659 11.9439 14.5909C12.1371 14.7121 12.3511 14.8144 12.5859 14.8977C12.8208 14.9811 13.0575 15.0511 13.2962 15.108L14.3871 15.3807C14.8265 15.483 15.2488 15.6212 15.6541 15.7955C16.0632 15.9697 16.4287 16.1894 16.7507 16.4545C17.0765 16.7197 17.334 17.0398 17.5234 17.4148C17.7128 17.7898 17.8075 18.2292 17.8075 18.733C17.8075 19.4148 17.6333 20.0152 17.2848 20.5341C16.9363 21.0492 16.4325 21.4527 15.7734 21.7443C15.1181 22.0322 14.3246 22.1761 13.3928 22.1761C12.4875 22.1761 11.7015 22.036 11.0348 21.7557C10.3719 21.4754 9.85298 21.0663 9.47798 20.5284C9.10677 19.9905 8.90601 19.3352 8.87571 18.5625H10.9496C10.9799 18.9678 11.1049 19.3049 11.3246 19.5739C11.5443 19.8428 11.8303 20.0436 12.1825 20.1761C12.5386 20.3087 12.9363 20.375 13.3757 20.375C13.834 20.375 14.2356 20.3068 14.5803 20.1705C14.9287 20.0303 15.2015 19.8371 15.3984 19.5909C15.5954 19.3409 15.6958 19.0492 15.6996 18.7159C15.6958 18.4129 15.6068 18.1629 15.4325 17.9659C15.2583 17.7652 15.014 17.5985 14.6996 17.4659C14.389 17.3295 14.0253 17.2083 13.6087 17.1023L12.2848 16.7614C11.3265 16.5152 10.5689 16.142 10.0121 15.642C9.45904 15.1383 9.18253 14.4697 9.18253 13.6364C9.18253 12.9508 9.36813 12.3504 9.73935 11.8352C10.1143 11.3201 10.6238 10.9205 11.2678 10.6364C11.9117 10.3485 12.6409 10.2045 13.4553 10.2045C14.281 10.2045 15.0045 10.3485 15.6257 10.6364C16.2507 10.9205 16.7412 11.3163 17.0973 11.8239C17.4534 12.3277 17.6371 12.9072 17.6484 13.5625H15.62ZM19.5959 25.2727V13.2727H21.6186V14.7159H21.7379C21.844 14.5038 21.9936 14.2784 22.1868 14.0398C22.38 13.7973 22.6413 13.5909 22.9709 13.4205C23.3004 13.2462 23.7209 13.1591 24.2322 13.1591C24.9065 13.1591 25.5144 13.3314 26.0561 13.6761C26.6016 14.017 27.0334 14.5227 27.3516 15.1932C27.6735 15.8598 27.8345 16.678 27.8345 17.6477C27.8345 18.6061 27.6773 19.4205 27.3629 20.0909C27.0485 20.7614 26.6205 21.2727 26.0788 21.625C25.5372 21.9773 24.9235 22.1534 24.2379 22.1534C23.7379 22.1534 23.3232 22.0701 22.9936 21.9034C22.6641 21.7367 22.3989 21.536 22.1982 21.3011C22.0012 21.0625 21.8478 20.8371 21.7379 20.625H21.6527V25.2727H19.5959ZM21.6129 17.6364C21.6129 18.2008 21.6925 18.6951 21.8516 19.1193C22.0144 19.5436 22.2474 19.875 22.5504 20.1136C22.8572 20.3485 23.2285 20.4659 23.6641 20.4659C24.1186 20.4659 24.4993 20.3447 24.8061 20.1023C25.1129 19.8561 25.344 19.5208 25.4993 19.0966C25.6584 18.6686 25.7379 18.1818 25.7379 17.6364C25.7379 17.0947 25.6603 16.6136 25.505 16.1932C25.3497 15.7727 25.1186 15.4432 24.8118 15.2045C24.505 14.9659 24.1224 14.8466 23.6641 14.8466C23.2247 14.8466 22.8516 14.9621 22.5447 15.1932C22.2379 15.4242 22.005 15.7481 21.8459 16.1648C21.6906 16.5814 21.6129 17.072 21.6129 17.6364ZM33.4595 22.1705C32.5845 22.1705 31.8288 21.9886 31.1925 21.625C30.5599 21.2576 30.0732 20.7386 29.7322 20.0682C29.3913 19.3939 29.2209 18.6004 29.2209 17.6875C29.2209 16.7898 29.3913 16.0019 29.7322 15.3239C30.0769 14.642 30.558 14.1117 31.1754 13.733C31.7929 13.3504 32.5182 13.1591 33.3516 13.1591C33.8894 13.1591 34.397 13.2462 34.8743 13.4205C35.3554 13.5909 35.7796 13.8561 36.147 14.2159C36.5182 14.5758 36.8099 15.0341 37.022 15.5909C37.2341 16.1439 37.3402 16.803 37.3402 17.5682V18.1989H30.1868V16.8125H35.3686C35.3648 16.4186 35.2796 16.0682 35.1129 15.7614C34.9463 15.4508 34.7133 15.2064 34.4141 15.0284C34.1186 14.8504 33.7739 14.7614 33.38 14.7614C32.9595 14.7614 32.5902 14.8636 32.272 15.0682C31.9538 15.2689 31.7057 15.5341 31.5277 15.8636C31.3535 16.1894 31.2644 16.5473 31.2607 16.9375V18.1477C31.2607 18.6553 31.3535 19.0909 31.5391 19.4545C31.7247 19.8144 31.9841 20.0909 32.3175 20.2841C32.6508 20.4735 33.041 20.5682 33.4879 20.5682C33.7872 20.5682 34.058 20.5265 34.3004 20.4432C34.5429 20.3561 34.7531 20.2292 34.9311 20.0625C35.1091 19.8958 35.2436 19.6894 35.3345 19.4432L37.255 19.6591C37.1338 20.1667 36.9027 20.6098 36.5618 20.9886C36.2247 21.3636 35.7929 21.6553 35.2663 21.8636C34.7398 22.0682 34.1375 22.1705 33.4595 22.1705ZM41.1371 16.8864V22H39.0803V13.2727H41.0462V14.7557H41.1484C41.3492 14.267 41.6693 13.8788 42.1087 13.5909C42.5518 13.303 43.0992 13.1591 43.7507 13.1591C44.353 13.1591 44.8776 13.2879 45.3246 13.5455C45.7753 13.803 46.1238 14.1761 46.37 14.6648C46.62 15.1534 46.7431 15.7462 46.7393 16.4432V22H44.6825V16.7614C44.6825 16.178 44.531 15.7216 44.228 15.392C43.9287 15.0625 43.514 14.8977 42.9837 14.8977C42.6238 14.8977 42.3037 14.9773 42.0234 15.1364C41.7469 15.2917 41.5291 15.517 41.37 15.8125C41.2147 16.108 41.1371 16.4659 41.1371 16.8864ZM52.0689 22.1534C51.3833 22.1534 50.7696 21.9773 50.228 21.625C49.6863 21.2727 49.2583 20.7614 48.9439 20.0909C48.6295 19.4205 48.4723 18.6061 48.4723 17.6477C48.4723 16.678 48.6314 15.8598 48.9496 15.1932C49.2715 14.5227 49.7053 14.017 50.2507 13.6761C50.7962 13.3314 51.4041 13.1591 52.0746 13.1591C52.5859 13.1591 53.0064 13.2462 53.3359 13.4205C53.6655 13.5909 53.9268 13.7973 54.12 14.0398C54.3132 14.2784 54.4628 14.5038 54.5689 14.7159H54.6541V10.3636H56.7166V22H54.6939V20.625H54.5689C54.4628 20.8371 54.3094 21.0625 54.1087 21.3011C53.9079 21.536 53.6428 21.7367 53.3132 21.9034C52.9837 22.0701 52.5689 22.1534 52.0689 22.1534ZM52.6428 20.4659C53.0784 20.4659 53.4496 20.3485 53.7564 20.1136C54.0632 19.875 54.2962 19.5436 54.4553 19.1193C54.6143 18.6951 54.6939 18.2008 54.6939 17.6364C54.6939 17.072 54.6143 16.5814 54.4553 16.1648C54.3 15.7481 54.0689 15.4242 53.7621 15.1932C53.459 14.9621 53.0859 14.8466 52.6428 14.8466C52.1844 14.8466 51.8018 14.9659 51.495 15.2045C51.1882 15.4432 50.9571 15.7727 50.8018 16.1932C50.6465 16.6136 50.5689 17.0947 50.5689 17.6364C50.5689 18.1818 50.6465 18.6686 50.8018 19.0966C50.9609 19.5208 51.1939 19.8561 51.5007 20.1023C51.8113 20.3447 52.192 20.4659 52.6428 20.4659ZM26.343 31.3636V43H24.468L18.9851 35.0739H18.8885V43H16.7805V31.3636H18.6669L24.1442 39.2955H24.2464V31.3636H26.343ZM32.3558 43.1705C31.5036 43.1705 30.7649 42.983 30.1399 42.608C29.5149 42.233 29.0301 41.7083 28.6854 41.0341C28.3445 40.3598 28.174 39.572 28.174 38.6705C28.174 37.7689 28.3445 36.9792 28.6854 36.3011C29.0301 35.6231 29.5149 35.0966 30.1399 34.7216C30.7649 34.3466 31.5036 34.1591 32.3558 34.1591C33.2081 34.1591 33.9467 34.3466 34.5717 34.7216C35.1967 35.0966 35.6797 35.6231 36.0206 36.3011C36.3653 36.9792 36.5376 37.7689 36.5376 38.6705C36.5376 39.572 36.3653 40.3598 36.0206 41.0341C35.6797 41.7083 35.1967 42.233 34.5717 42.608C33.9467 42.983 33.2081 43.1705 32.3558 43.1705ZM32.3672 41.5227C32.8293 41.5227 33.2157 41.3958 33.5263 41.142C33.8369 40.8845 34.0679 40.5398 34.2195 40.108C34.3748 39.6761 34.4524 39.1951 34.4524 38.6648C34.4524 38.1307 34.3748 37.6477 34.2195 37.2159C34.0679 36.7803 33.8369 36.4337 33.5263 36.1761C33.2157 35.9186 32.8293 35.7898 32.3672 35.7898C31.8937 35.7898 31.4998 35.9186 31.1854 36.1761C30.8748 36.4337 30.6418 36.7803 30.4865 37.2159C30.335 37.6477 30.2592 38.1307 30.2592 38.6648C30.2592 39.1951 30.335 39.6761 30.4865 40.108C30.6418 40.5398 30.8748 40.8845 31.1854 41.142C31.4998 41.3958 31.8937 41.5227 32.3672 41.5227ZM39.8345 43L37.3686 34.2727H39.4652L40.9993 40.4091H41.0788L42.647 34.2727H44.7209L46.2891 40.375H46.3743L47.8857 34.2727H49.9879L47.5163 43H45.3743L43.7379 37.1023H43.6186L41.9822 43H39.8345Z"
        fill="white" />
</svg>
