<svg width="351" height="63" viewBox="0 0 351 63" fill="none" xmlns="http://www.w3.org/2000/svg">
    <path
        d="M79.8612 5.54545L84.7191 19.7614H84.9151L89.7731 5.54545H92.6197L86.3384 23H83.2958L77.0146 5.54545H79.8612ZM99.2653 23.2642C97.9755 23.2642 96.8647 22.9886 95.9329 22.4375C95.0067 21.8807 94.2908 21.0994 93.7852 20.0938C93.2852 19.0824 93.0352 17.8977 93.0352 16.5398C93.0352 15.1989 93.2852 14.017 93.7852 12.9943C94.2908 11.9716 94.9954 11.1733 95.8988 10.5994C96.8079 10.0256 97.8704 9.73864 99.0863 9.73864C99.8249 9.73864 100.541 9.8608 101.234 10.1051C101.927 10.3494 102.549 10.733 103.1 11.2557C103.652 11.7784 104.086 12.4574 104.404 13.2926C104.723 14.1222 104.882 15.1307 104.882 16.3182V17.2216H94.4755V15.3125H102.385C102.385 14.642 102.248 14.0483 101.975 13.5312C101.703 13.0085 101.319 12.5966 100.825 12.2955C100.336 11.9943 99.7624 11.8438 99.1033 11.8438C98.3874 11.8438 97.7624 12.0199 97.2283 12.3722C96.6999 12.7187 96.2908 13.1733 96.0011 13.7358C95.717 14.2926 95.5749 14.8977 95.5749 15.5511V17.0426C95.5749 17.9176 95.7283 18.6619 96.0352 19.2756C96.3477 19.8892 96.7823 20.358 97.3391 20.6818C97.896 21 98.5465 21.1591 99.2908 21.1591C99.7738 21.1591 100.214 21.0909 100.612 20.9545C101.01 20.8125 101.353 20.6023 101.643 20.3239C101.933 20.0455 102.154 19.7017 102.308 19.2926L104.72 19.7273C104.527 20.4375 104.18 21.0597 103.68 21.5938C103.186 22.1222 102.564 22.5341 101.814 22.8295C101.069 23.1193 100.22 23.2642 99.2653 23.2642ZM107.709 23V9.90909H110.172V11.9886H110.309C110.547 11.2841 110.968 10.7301 111.57 10.3267C112.178 9.91761 112.865 9.71307 113.632 9.71307C113.792 9.71307 113.979 9.71875 114.195 9.73011C114.417 9.74148 114.59 9.75568 114.715 9.77273V12.2102C114.613 12.1818 114.431 12.1506 114.169 12.1165C113.908 12.0767 113.647 12.0568 113.385 12.0568C112.783 12.0568 112.246 12.1847 111.775 12.4403C111.309 12.6903 110.939 13.0398 110.667 13.4886C110.394 13.9318 110.257 14.4375 110.257 15.0057V23H107.709ZM116.92 23V9.90909H119.468V23H116.92ZM118.207 7.8892C117.764 7.8892 117.383 7.74148 117.065 7.44602C116.752 7.14489 116.596 6.78693 116.596 6.37216C116.596 5.9517 116.752 5.59375 117.065 5.29829C117.383 4.99716 117.764 4.84659 118.207 4.84659C118.65 4.84659 119.028 4.99716 119.341 5.29829C119.659 5.59375 119.818 5.9517 119.818 6.37216C119.818 6.78693 119.659 7.14489 119.341 7.44602C119.028 7.74148 118.65 7.8892 118.207 7.8892ZM129.127 9.90909V11.9545H121.729V9.90909H129.127ZM123.757 23V8.39204C123.757 7.57386 123.936 6.89489 124.294 6.35511C124.652 5.80966 125.127 5.40341 125.718 5.13636C126.309 4.86364 126.951 4.72727 127.644 4.72727C128.155 4.72727 128.593 4.76989 128.956 4.85511C129.32 4.93466 129.59 5.00852 129.766 5.0767L129.169 7.1392C129.05 7.10511 128.897 7.06534 128.709 7.01989C128.522 6.96875 128.294 6.94318 128.027 6.94318C127.408 6.94318 126.965 7.09659 126.698 7.40341C126.436 7.71023 126.306 8.15341 126.306 8.73295V23H123.757ZM131.756 23V9.90909H134.304V23H131.756ZM133.043 7.8892C132.6 7.8892 132.219 7.74148 131.901 7.44602C131.588 7.14489 131.432 6.78693 131.432 6.37216C131.432 5.9517 131.588 5.59375 131.901 5.29829C132.219 4.99716 132.6 4.84659 133.043 4.84659C133.486 4.84659 133.864 4.99716 134.176 5.29829C134.495 5.59375 134.654 5.9517 134.654 6.37216C134.654 6.78693 134.495 7.14489 134.176 7.44602C133.864 7.74148 133.486 7.8892 133.043 7.8892ZM143.247 23.2642C141.98 23.2642 140.889 22.9773 139.974 22.4034C139.065 21.8239 138.366 21.0256 137.877 20.0085C137.389 18.9915 137.145 17.8267 137.145 16.5142C137.145 15.1847 137.395 14.0114 137.895 12.9943C138.395 11.9716 139.099 11.1733 140.008 10.5994C140.917 10.0256 141.988 9.73864 143.221 9.73864C144.216 9.73864 145.102 9.9233 145.88 10.2926C146.659 10.6562 147.287 11.1676 147.764 11.8267C148.247 12.4858 148.534 13.2557 148.625 14.1364H146.145C146.008 13.5227 145.696 12.9943 145.207 12.5511C144.724 12.108 144.076 11.8864 143.264 11.8864C142.554 11.8864 141.931 12.0739 141.397 12.4489C140.869 12.8182 140.457 13.3466 140.162 14.0341C139.866 14.7159 139.718 15.5227 139.718 16.4545C139.718 17.4091 139.863 18.233 140.153 18.9261C140.443 19.6193 140.852 20.1562 141.38 20.5369C141.914 20.9176 142.542 21.108 143.264 21.108C143.747 21.108 144.184 21.0199 144.576 20.8438C144.974 20.6619 145.306 20.4034 145.574 20.0682C145.846 19.733 146.037 19.3295 146.145 18.858H148.625C148.534 19.7045 148.258 20.4602 147.798 21.125C147.338 21.7898 146.721 22.3125 145.949 22.6932C145.181 23.0739 144.281 23.2642 143.247 23.2642ZM155.159 23.2898C154.33 23.2898 153.58 23.1364 152.909 22.8295C152.239 22.517 151.708 22.0653 151.316 21.4744C150.929 20.8835 150.736 20.1591 150.736 19.3011C150.736 18.5625 150.878 17.9545 151.162 17.4773C151.446 17 151.83 16.6222 152.313 16.3438C152.796 16.0653 153.336 15.8551 153.932 15.7131C154.529 15.571 155.137 15.4631 155.756 15.3892C156.54 15.2983 157.176 15.2244 157.665 15.1676C158.154 15.1051 158.509 15.0057 158.73 14.8693C158.952 14.733 159.063 14.5114 159.063 14.2045V14.1449C159.063 13.4006 158.853 12.8239 158.432 12.4148C158.017 12.0057 157.398 11.8011 156.574 11.8011C155.716 11.8011 155.04 11.9915 154.546 12.3722C154.057 12.7472 153.719 13.1648 153.532 13.625L151.137 13.0795C151.421 12.2841 151.836 11.642 152.381 11.1534C152.932 10.6591 153.566 10.3011 154.282 10.0795C154.998 9.85227 155.75 9.73864 156.54 9.73864C157.063 9.73864 157.617 9.80114 158.202 9.92614C158.793 10.0455 159.344 10.267 159.855 10.5909C160.373 10.9148 160.796 11.3778 161.125 11.9801C161.455 12.5767 161.62 13.3523 161.62 14.3068V23H159.131V21.2102H159.029C158.864 21.5398 158.617 21.8636 158.287 22.1818C157.958 22.5 157.534 22.7642 157.017 22.9744C156.5 23.1847 155.881 23.2898 155.159 23.2898ZM155.713 21.2443C156.418 21.2443 157.02 21.1051 157.52 20.8267C158.026 20.5483 158.409 20.1847 158.671 19.7358C158.938 19.2812 159.071 18.7955 159.071 18.2784V16.5909C158.98 16.6818 158.804 16.767 158.543 16.8466C158.287 16.9205 157.995 16.9858 157.665 17.0426C157.336 17.0937 157.015 17.142 156.702 17.1875C156.39 17.2273 156.128 17.2614 155.918 17.2898C155.424 17.3523 154.972 17.4574 154.563 17.6051C154.159 17.7528 153.836 17.9659 153.591 18.2443C153.353 18.517 153.233 18.8807 153.233 19.3352C153.233 19.9659 153.466 20.4432 153.932 20.767C154.398 21.0852 154.992 21.2443 155.713 21.2443ZM171.125 9.90909V11.9545H163.974V9.90909H171.125ZM165.892 6.77273H168.44V19.1562C168.44 19.6506 168.514 20.0227 168.662 20.2727C168.809 20.517 169 20.6847 169.233 20.7756C169.471 20.8608 169.73 20.9034 170.008 20.9034C170.213 20.9034 170.392 20.8892 170.545 20.8608C170.699 20.8324 170.818 20.8097 170.903 20.7926L171.363 22.8977C171.216 22.9545 171.005 23.0114 170.733 23.0682C170.46 23.1307 170.119 23.1648 169.71 23.1705C169.039 23.1818 168.414 23.0625 167.835 22.8125C167.255 22.5625 166.787 22.1761 166.429 21.6534C166.071 21.1307 165.892 20.4744 165.892 19.6847V6.77273ZM173.944 23V9.90909H176.492V23H173.944ZM175.23 7.8892C174.787 7.8892 174.407 7.74148 174.088 7.44602C173.776 7.14489 173.62 6.78693 173.62 6.37216C173.62 5.9517 173.776 5.59375 174.088 5.29829C174.407 4.99716 174.787 4.84659 175.23 4.84659C175.674 4.84659 176.051 4.99716 176.364 5.29829C176.682 5.59375 176.841 5.9517 176.841 6.37216C176.841 6.78693 176.682 7.14489 176.364 7.44602C176.051 7.74148 175.674 7.8892 175.23 7.8892ZM185.434 23.2642C184.207 23.2642 183.136 22.983 182.221 22.4205C181.306 21.858 180.596 21.071 180.091 20.0597C179.585 19.0483 179.332 17.8665 179.332 16.5142C179.332 15.1562 179.585 13.9687 180.091 12.9517C180.596 11.9347 181.306 11.1449 182.221 10.5824C183.136 10.0199 184.207 9.73864 185.434 9.73864C186.662 9.73864 187.733 10.0199 188.647 10.5824C189.562 11.1449 190.272 11.9347 190.778 12.9517C191.284 13.9687 191.537 15.1562 191.537 16.5142C191.537 17.8665 191.284 19.0483 190.778 20.0597C190.272 21.071 189.562 21.858 188.647 22.4205C187.733 22.983 186.662 23.2642 185.434 23.2642ZM185.443 21.125C186.238 21.125 186.897 20.9148 187.42 20.4943C187.943 20.0739 188.329 19.5142 188.579 18.8153C188.835 18.1165 188.963 17.3466 188.963 16.5057C188.963 15.6705 188.835 14.9034 188.579 14.2045C188.329 13.5 187.943 12.9347 187.42 12.5085C186.897 12.0824 186.238 11.8693 185.443 11.8693C184.642 11.8693 183.977 12.0824 183.449 12.5085C182.926 12.9347 182.537 13.5 182.281 14.2045C182.031 14.9034 181.906 15.6705 181.906 16.5057C181.906 17.3466 182.031 18.1165 182.281 18.8153C182.537 19.5142 182.926 20.0739 183.449 20.4943C183.977 20.9148 184.642 21.125 185.443 21.125ZM196.929 15.2273V23H194.381V9.90909H196.827V12.0398H196.989C197.29 11.3466 197.762 10.7898 198.404 10.3693C199.051 9.94886 199.867 9.73864 200.85 9.73864C201.742 9.73864 202.523 9.92614 203.194 10.3011C203.864 10.6705 204.384 11.2216 204.753 11.9545C205.123 12.6875 205.307 13.5937 205.307 14.6733V23H202.759V14.9801C202.759 14.0312 202.512 13.2898 202.017 12.7557C201.523 12.2159 200.844 11.946 199.98 11.946C199.39 11.946 198.864 12.0739 198.404 12.3295C197.949 12.5852 197.588 12.9602 197.321 13.4545C197.06 13.9432 196.929 14.5341 196.929 15.2273ZM229.778 11.2216H227.119C227.017 10.6534 226.826 10.1534 226.548 9.72159C226.27 9.28977 225.929 8.9233 225.525 8.62216C225.122 8.32102 224.67 8.09375 224.17 7.94034C223.676 7.78693 223.15 7.71023 222.593 7.71023C221.588 7.71023 220.687 7.96307 219.892 8.46875C219.102 8.97443 218.477 9.71591 218.017 10.6932C217.562 11.6705 217.335 12.8636 217.335 14.2727C217.335 15.6932 217.562 16.892 218.017 17.8693C218.477 18.8466 219.105 19.5852 219.9 20.0852C220.696 20.5852 221.591 20.8352 222.585 20.8352C223.136 20.8352 223.659 20.7614 224.153 20.6136C224.653 20.4602 225.105 20.2358 225.508 19.9403C225.912 19.6449 226.252 19.2841 226.531 18.858C226.815 18.4261 227.011 17.9318 227.119 17.375L229.778 17.3835C229.636 18.2415 229.36 19.0312 228.951 19.7528C228.548 20.4688 228.028 21.0881 227.392 21.6108C226.761 22.1278 226.039 22.5284 225.227 22.8125C224.414 23.0966 223.528 23.2386 222.568 23.2386C221.056 23.2386 219.71 22.8807 218.528 22.1648C217.346 21.4432 216.414 20.4119 215.733 19.071C215.056 17.7301 214.718 16.1307 214.718 14.2727C214.718 12.4091 215.059 10.8097 215.741 9.47443C216.423 8.13352 217.355 7.10511 218.537 6.3892C219.718 5.66761 221.062 5.30682 222.568 5.30682C223.494 5.30682 224.358 5.44034 225.159 5.70739C225.966 5.96875 226.69 6.35511 227.332 6.86648C227.974 7.37216 228.505 7.99148 228.926 8.72443C229.346 9.4517 229.63 10.2841 229.778 11.2216ZM238.239 23.2642C237.012 23.2642 235.941 22.983 235.026 22.4205C234.111 21.858 233.401 21.071 232.895 20.0597C232.39 19.0483 232.137 17.8665 232.137 16.5142C232.137 15.1562 232.39 13.9687 232.895 12.9517C233.401 11.9347 234.111 11.1449 235.026 10.5824C235.941 10.0199 237.012 9.73864 238.239 9.73864C239.466 9.73864 240.537 10.0199 241.452 10.5824C242.367 11.1449 243.077 11.9347 243.583 12.9517C244.088 13.9687 244.341 15.1562 244.341 16.5142C244.341 17.8665 244.088 19.0483 243.583 20.0597C243.077 21.071 242.367 21.858 241.452 22.4205C240.537 22.983 239.466 23.2642 238.239 23.2642ZM238.248 21.125C239.043 21.125 239.702 20.9148 240.225 20.4943C240.748 20.0739 241.134 19.5142 241.384 18.8153C241.64 18.1165 241.767 17.3466 241.767 16.5057C241.767 15.6705 241.64 14.9034 241.384 14.2045C241.134 13.5 240.748 12.9347 240.225 12.5085C239.702 12.0824 239.043 11.8693 238.248 11.8693C237.446 11.8693 236.782 12.0824 236.253 12.5085C235.73 12.9347 235.341 13.5 235.086 14.2045C234.836 14.9034 234.711 15.6705 234.711 16.5057C234.711 17.3466 234.836 18.1165 235.086 18.8153C235.341 19.5142 235.73 20.0739 236.253 20.4943C236.782 20.9148 237.446 21.125 238.248 21.125ZM252.086 23.2557C251.029 23.2557 250.086 22.9858 249.257 22.446C248.433 21.9006 247.785 21.125 247.314 20.1193C246.848 19.108 246.615 17.8949 246.615 16.4801C246.615 15.0653 246.85 13.8551 247.322 12.8494C247.799 11.8437 248.453 11.0739 249.282 10.5398C250.112 10.0057 251.052 9.73864 252.103 9.73864C252.916 9.73864 253.569 9.875 254.064 10.1477C254.564 10.4148 254.95 10.7273 255.223 11.0852C255.501 11.4432 255.717 11.7585 255.87 12.0312H256.024V5.54545H258.572V23H256.083V20.9631H255.87C255.717 21.2415 255.495 21.5597 255.206 21.9176C254.922 22.2756 254.529 22.5881 254.029 22.8551C253.529 23.1222 252.882 23.2557 252.086 23.2557ZM252.649 21.0824C253.382 21.0824 254.001 20.8892 254.507 20.5028C255.018 20.1108 255.404 19.5682 255.666 18.875C255.933 18.1818 256.066 17.375 256.066 16.4545C256.066 15.5455 255.936 14.75 255.674 14.0682C255.413 13.3864 255.029 12.8551 254.524 12.4744C254.018 12.0937 253.393 11.9034 252.649 11.9034C251.882 11.9034 251.243 12.1023 250.731 12.5C250.22 12.8977 249.833 13.4403 249.572 14.1278C249.316 14.8153 249.189 15.5909 249.189 16.4545C249.189 17.3295 249.319 18.1165 249.581 18.8153C249.842 19.5142 250.228 20.0682 250.74 20.4773C251.257 20.8807 251.893 21.0824 252.649 21.0824ZM267.851 23.2642C266.561 23.2642 265.451 22.9886 264.519 22.4375C263.593 21.8807 262.877 21.0994 262.371 20.0938C261.871 19.0824 261.621 17.8977 261.621 16.5398C261.621 15.1989 261.871 14.017 262.371 12.9943C262.877 11.9716 263.581 11.1733 264.485 10.5994C265.394 10.0256 266.456 9.73864 267.672 9.73864C268.411 9.73864 269.127 9.8608 269.82 10.1051C270.513 10.3494 271.135 10.733 271.686 11.2557C272.238 11.7784 272.672 12.4574 272.99 13.2926C273.309 14.1222 273.468 15.1307 273.468 16.3182V17.2216H263.061V15.3125H270.971C270.971 14.642 270.834 14.0483 270.561 13.5312C270.289 13.0085 269.905 12.5966 269.411 12.2955C268.922 11.9943 268.348 11.8438 267.689 11.8438C266.973 11.8438 266.348 12.0199 265.814 12.3722C265.286 12.7187 264.877 13.1733 264.587 13.7358C264.303 14.2926 264.161 14.8977 264.161 15.5511V17.0426C264.161 17.9176 264.314 18.6619 264.621 19.2756C264.934 19.8892 265.368 20.358 265.925 20.6818C266.482 21 267.132 21.1591 267.877 21.1591C268.36 21.1591 268.8 21.0909 269.198 20.9545C269.596 20.8125 269.939 20.6023 270.229 20.3239C270.519 20.0455 270.74 19.7017 270.894 19.2926L273.306 19.7273C273.113 20.4375 272.766 21.0597 272.266 21.5938C271.772 22.1222 271.15 22.5341 270.4 22.8295C269.655 23.1193 268.806 23.2642 267.851 23.2642Z"
        fill="#505050" />
    <path
        d="M32.1557 45L29.7694 36.2727H30.8432L32.6671 43.3807H32.7523L34.6103 36.2727H35.8034L37.6614 43.3807H37.7466L39.5705 36.2727H40.6444L38.258 45H37.1671L35.2409 38.0455H35.1728L33.2466 45H32.1557ZM43.9597 45.1364C43.329 45.1364 42.785 44.9972 42.3276 44.7188C41.873 44.4375 41.5222 44.0455 41.275 43.5426C41.0307 43.0369 40.9086 42.4489 40.9086 41.7784C40.9086 41.108 41.0307 40.517 41.275 40.0057C41.5222 39.4915 41.8659 39.0909 42.3063 38.804C42.7495 38.5142 43.2665 38.3693 43.8574 38.3693C44.1983 38.3693 44.535 38.4261 44.8674 38.5398C45.1998 38.6534 45.5023 38.8381 45.775 39.0938C46.0478 39.3466 46.2651 39.6818 46.427 40.0994C46.589 40.517 46.6699 41.0312 46.6699 41.642V42.0682H41.6245V41.1989H45.6472C45.6472 40.8295 45.5733 40.5 45.4256 40.2102C45.2807 39.9205 45.0733 39.6918 44.8034 39.5241C44.5364 39.3565 44.2211 39.2727 43.8574 39.2727C43.4569 39.2727 43.1103 39.3722 42.8176 39.571C42.5279 39.767 42.3049 40.0227 42.1486 40.3381C41.9924 40.6534 41.9142 40.9915 41.9142 41.3523V41.9318C41.9142 42.4261 41.9995 42.8452 42.1699 43.1889C42.3432 43.5298 42.5833 43.7898 42.8901 43.9688C43.1969 44.1449 43.5534 44.233 43.9597 44.233C44.2239 44.233 44.4625 44.196 44.6756 44.1222C44.8915 44.0455 45.0776 43.9318 45.2338 43.7812C45.3901 43.6278 45.5108 43.4375 45.5961 43.2102L46.5676 43.483C46.4654 43.8125 46.2935 44.1023 46.052 44.3523C45.8105 44.5994 45.5123 44.7926 45.1571 44.9318C44.802 45.0682 44.4029 45.1364 43.9597 45.1364ZM52.5804 41.0625V45H51.5748V36.2727H52.5804V39.4773H52.6657C52.8191 39.1392 53.0492 38.8707 53.356 38.6719C53.6657 38.4702 54.0776 38.3693 54.5918 38.3693C55.0378 38.3693 55.4284 38.4588 55.7637 38.6378C56.0989 38.8139 56.3588 39.0852 56.5435 39.4517C56.731 39.8153 56.8248 40.2784 56.8248 40.8409V45H55.8191V40.9091C55.8191 40.3892 55.6841 39.9872 55.4142 39.7031C55.1472 39.4162 54.7765 39.2727 54.302 39.2727C53.9725 39.2727 53.677 39.3423 53.4157 39.4815C53.1571 39.6207 52.9526 39.8239 52.802 40.0909C52.6543 40.358 52.5804 40.6818 52.5804 41.0625ZM60.5907 45.1534C60.176 45.1534 59.7995 45.0753 59.4615 44.919C59.1234 44.7599 58.8549 44.5312 58.6561 44.233C58.4572 43.9318 58.3578 43.5682 58.3578 43.142C58.3578 42.767 58.4316 42.4631 58.5794 42.2301C58.7271 41.9943 58.9245 41.8097 59.1717 41.6761C59.4189 41.5426 59.6916 41.4432 59.9899 41.3778C60.291 41.3097 60.5936 41.2557 60.8975 41.2159C61.2953 41.1648 61.6177 41.1264 61.8649 41.1009C62.1149 41.0724 62.2967 41.0256 62.4103 40.9602C62.5268 40.8949 62.585 40.7812 62.585 40.6193V40.5852C62.585 40.1648 62.47 39.8381 62.2399 39.6051C62.0126 39.3722 61.6674 39.2557 61.2044 39.2557C60.7243 39.2557 60.3478 39.3608 60.0751 39.571C59.8024 39.7812 59.6106 40.0057 59.4998 40.2443L58.5453 39.9034C58.7157 39.5057 58.943 39.196 59.2271 38.9744C59.514 38.75 59.8265 38.5937 60.1646 38.5057C60.5055 38.4148 60.8407 38.3693 61.1703 38.3693C61.3805 38.3693 61.622 38.3949 61.8947 38.446C62.1703 38.4943 62.4359 38.5952 62.6916 38.7486C62.9501 38.902 63.1646 39.1335 63.335 39.4432C63.5055 39.7528 63.5907 40.1676 63.5907 40.6875V45H62.585V44.1136H62.5339C62.4657 44.2557 62.3521 44.4077 62.193 44.5696C62.0339 44.7315 61.8223 44.8693 61.5581 44.983C61.2939 45.0966 60.9714 45.1534 60.5907 45.1534ZM60.7441 44.25C61.1419 44.25 61.4771 44.1719 61.7498 44.0156C62.0254 43.8594 62.2328 43.6577 62.372 43.4105C62.514 43.1634 62.585 42.9034 62.585 42.6307V41.7102C62.5424 41.7614 62.4487 41.8082 62.3038 41.8509C62.1618 41.8906 61.997 41.9261 61.8095 41.9574C61.6248 41.9858 61.4444 42.0114 61.2683 42.0341C61.095 42.054 60.9544 42.071 60.8464 42.0852C60.585 42.1193 60.3407 42.1747 60.1135 42.2514C59.889 42.3253 59.7072 42.4375 59.568 42.5881C59.4316 42.7358 59.3635 42.9375 59.3635 43.1932C59.3635 43.5426 59.4927 43.8068 59.7512 43.9858C60.0126 44.1619 60.3436 44.25 60.7441 44.25ZM70.5442 38.4545L68.1238 45H67.101L64.6806 38.4545H65.7715L67.5783 43.6705H67.6465L69.4533 38.4545H70.5442ZM74.3816 45.1364C73.7509 45.1364 73.2069 44.9972 72.7495 44.7188C72.2949 44.4375 71.9441 44.0455 71.6969 43.5426C71.4526 43.0369 71.3304 42.4489 71.3304 41.7784C71.3304 41.108 71.4526 40.517 71.6969 40.0057C71.9441 39.4915 72.2878 39.0909 72.7282 38.804C73.1713 38.5142 73.6884 38.3693 74.2793 38.3693C74.6202 38.3693 74.9569 38.4261 75.2892 38.5398C75.6216 38.6534 75.9242 38.8381 76.1969 39.0938C76.4696 39.3466 76.687 39.6818 76.8489 40.0994C77.0108 40.517 77.0918 41.0312 77.0918 41.642V42.0682H72.0463V41.1989H76.0691C76.0691 40.8295 75.9952 40.5 75.8475 40.2102C75.7026 39.9205 75.4952 39.6918 75.2253 39.5241C74.9583 39.3565 74.6429 39.2727 74.2793 39.2727C73.8787 39.2727 73.5321 39.3722 73.2395 39.571C72.9498 39.767 72.7267 40.0227 72.5705 40.3381C72.4142 40.6534 72.3361 40.9915 72.3361 41.3523V41.9318C72.3361 42.4261 72.4213 42.8452 72.5918 43.1889C72.7651 43.5298 73.0051 43.7898 73.312 43.9688C73.6188 44.1449 73.9753 44.233 74.3816 44.233C74.6458 44.233 74.8844 44.196 75.0975 44.1222C75.3134 44.0455 75.4995 43.9318 75.6557 43.7812C75.812 43.6278 75.9327 43.4375 76.0179 43.2102L76.9895 43.483C76.8873 43.8125 76.7154 44.1023 76.4739 44.3523C76.2324 44.5994 75.9341 44.7926 75.579 44.9318C75.2239 45.0682 74.8248 45.1364 74.3816 45.1364ZM86.633 39.9205L85.7296 40.1761C85.6728 40.0256 85.589 39.8793 85.4782 39.7372C85.3702 39.5923 85.2225 39.473 85.035 39.3793C84.8475 39.2855 84.6074 39.2386 84.3148 39.2386C83.9142 39.2386 83.5804 39.331 83.3134 39.5156C83.0492 39.6974 82.9171 39.929 82.9171 40.2102C82.9171 40.4602 83.008 40.6577 83.1898 40.8026C83.3716 40.9474 83.6557 41.0682 84.0421 41.1648L85.0137 41.4034C85.5989 41.5455 86.035 41.7628 86.3219 42.0554C86.6088 42.3452 86.7523 42.7187 86.7523 43.1761C86.7523 43.5511 86.6444 43.8864 86.4284 44.1818C86.2154 44.4773 85.9171 44.7102 85.5336 44.8807C85.15 45.0511 84.704 45.1364 84.1955 45.1364C83.5279 45.1364 82.9753 44.9915 82.5378 44.7017C82.1003 44.4119 81.8233 43.9886 81.7069 43.4318L82.6614 43.1932C82.7523 43.5455 82.9242 43.8097 83.177 43.9858C83.4327 44.1619 83.7665 44.25 84.1784 44.25C84.6472 44.25 85.0194 44.1506 85.2949 43.9517C85.5733 43.75 85.7125 43.5085 85.7125 43.2273C85.7125 43 85.633 42.8097 85.4739 42.6562C85.3148 42.5 85.0705 42.3835 84.7409 42.3068L83.65 42.0511C83.0506 41.9091 82.6103 41.6889 82.329 41.3906C82.0506 41.0895 81.9114 40.7131 81.9114 40.2614C81.9114 39.892 82.0151 39.5653 82.2225 39.2812C82.4327 38.9972 82.7182 38.7741 83.079 38.6122C83.4426 38.4503 83.8546 38.3693 84.3148 38.3693C84.9625 38.3693 85.4711 38.5114 85.8404 38.7955C86.2125 39.0795 86.4767 39.4545 86.633 39.9205ZM91.0105 45.1364C90.3798 45.1364 89.8358 44.9972 89.3784 44.7188C88.9238 44.4375 88.573 44.0455 88.3258 43.5426C88.0815 43.0369 87.9593 42.4489 87.9593 41.7784C87.9593 41.108 88.0815 40.517 88.3258 40.0057C88.573 39.4915 88.9167 39.0909 89.3571 38.804C89.8002 38.5142 90.3173 38.3693 90.9082 38.3693C91.2491 38.3693 91.5858 38.4261 91.9181 38.5398C92.2505 38.6534 92.5531 38.8381 92.8258 39.0938C93.0985 39.3466 93.3159 39.6818 93.4778 40.0994C93.6397 40.517 93.7207 41.0312 93.7207 41.642V42.0682H88.6752V41.1989H92.698C92.698 40.8295 92.6241 40.5 92.4764 40.2102C92.3315 39.9205 92.1241 39.6918 91.8542 39.5241C91.5872 39.3565 91.2718 39.2727 90.9082 39.2727C90.5076 39.2727 90.161 39.3722 89.8684 39.571C89.5787 39.767 89.3556 40.0227 89.1994 40.3381C89.0431 40.6534 88.965 40.9915 88.965 41.3523V41.9318C88.965 42.4261 89.0502 42.8452 89.2207 43.1889C89.394 43.5298 89.6341 43.7898 89.9409 43.9688C90.2477 44.1449 90.6042 44.233 91.0105 44.233C91.2747 44.233 91.5133 44.196 91.7264 44.1222C91.9423 44.0455 92.1284 43.9318 92.2846 43.7812C92.4409 43.6278 92.5616 43.4375 92.6468 43.2102L93.6184 43.483C93.5162 43.8125 93.3443 44.1023 93.1028 44.3523C92.8613 44.5994 92.563 44.7926 92.2079 44.9318C91.8528 45.0682 91.4537 45.1364 91.0105 45.1364ZM96.2562 41.0625V45H95.2505V38.4545H96.2221V39.4773H96.3074C96.4608 39.1449 96.6937 38.8778 97.0062 38.6761C97.3187 38.4716 97.7221 38.3693 98.2164 38.3693C98.6596 38.3693 99.0474 38.4602 99.3798 38.642C99.7122 38.821 99.9707 39.0938 100.155 39.4602C100.34 39.8239 100.432 40.2841 100.432 40.8409V45H99.4267V40.9091C99.4267 40.3949 99.2931 39.9943 99.0261 39.7074C98.7591 39.4176 98.3926 39.2727 97.9267 39.2727C97.6056 39.2727 97.3187 39.3423 97.0659 39.4815C96.8159 39.6207 96.6184 39.8239 96.4735 40.0909C96.3287 40.358 96.2562 40.6818 96.2562 41.0625ZM105.117 38.4545V39.3068H101.725V38.4545H105.117ZM102.713 36.8864H103.719V43.125C103.719 43.4091 103.76 43.6222 103.843 43.7642C103.928 43.9034 104.036 43.9972 104.166 44.0455C104.3 44.0909 104.441 44.1136 104.588 44.1136C104.699 44.1136 104.79 44.108 104.861 44.0966C104.932 44.0824 104.989 44.071 105.031 44.0625L105.236 44.9659C105.168 44.9915 105.073 45.017 104.95 45.0426C104.828 45.071 104.673 45.0852 104.486 45.0852C104.202 45.0852 103.923 45.0241 103.651 44.902C103.381 44.7798 103.156 44.5938 102.977 44.3438C102.801 44.0938 102.713 43.7784 102.713 43.3977V36.8864ZM112.851 38.4545V39.3068H109.459V38.4545H112.851ZM110.448 36.8864H111.453V43.125C111.453 43.4091 111.494 43.6222 111.577 43.7642C111.662 43.9034 111.77 43.9972 111.901 44.0455C112.034 44.0909 112.175 44.1136 112.323 44.1136C112.433 44.1136 112.524 44.108 112.595 44.0966C112.666 44.0824 112.723 44.071 112.766 44.0625L112.97 44.9659C112.902 44.9915 112.807 45.017 112.685 45.0426C112.563 45.071 112.408 45.0852 112.22 45.0852C111.936 45.0852 111.658 45.0241 111.385 44.902C111.115 44.7798 110.891 44.5938 110.712 44.3438C110.536 44.0938 110.448 43.7784 110.448 43.3977V36.8864ZM115.51 41.0625V45H114.504V36.2727H115.51V39.4773H115.595C115.749 39.1392 115.979 38.8707 116.286 38.6719C116.595 38.4702 117.007 38.3693 117.521 38.3693C117.968 38.3693 118.358 38.4588 118.693 38.6378C119.029 38.8139 119.289 39.0852 119.473 39.4517C119.661 39.8153 119.754 40.2784 119.754 40.8409V45H118.749V40.9091C118.749 40.3892 118.614 39.9872 118.344 39.7031C118.077 39.4162 117.706 39.2727 117.232 39.2727C116.902 39.2727 116.607 39.3423 116.345 39.4815C116.087 39.6207 115.882 39.8239 115.732 40.0909C115.584 40.358 115.51 40.6818 115.51 41.0625ZM124.339 45.1364C123.708 45.1364 123.164 44.9972 122.706 44.7188C122.252 44.4375 121.901 44.0455 121.654 43.5426C121.41 43.0369 121.287 42.4489 121.287 41.7784C121.287 41.108 121.41 40.517 121.654 40.0057C121.901 39.4915 122.245 39.0909 122.685 38.804C123.128 38.5142 123.645 38.3693 124.236 38.3693C124.577 38.3693 124.914 38.4261 125.246 38.5398C125.579 38.6534 125.881 38.8381 126.154 39.0938C126.427 39.3466 126.644 39.6818 126.806 40.0994C126.968 40.517 127.049 41.0312 127.049 41.642V42.0682H122.003V41.1989H126.026C126.026 40.8295 125.952 40.5 125.805 40.2102C125.66 39.9205 125.452 39.6918 125.182 39.5241C124.915 39.3565 124.6 39.2727 124.236 39.2727C123.836 39.2727 123.489 39.3722 123.197 39.571C122.907 39.767 122.684 40.0227 122.528 40.3381C122.371 40.6534 122.293 40.9915 122.293 41.3523V41.9318C122.293 42.4261 122.378 42.8452 122.549 43.1889C122.722 43.5298 122.962 43.7898 123.269 43.9688C123.576 44.1449 123.932 44.233 124.339 44.233C124.603 44.233 124.841 44.196 125.055 44.1222C125.27 44.0455 125.456 43.9318 125.613 43.7812C125.769 43.6278 125.89 43.4375 125.975 43.2102L126.947 43.483C126.844 43.8125 126.672 44.1023 126.431 44.3523C126.189 44.5994 125.891 44.7926 125.536 44.9318C125.181 45.0682 124.782 45.1364 124.339 45.1364ZM139.454 40.6364C139.454 41.5568 139.287 42.3523 138.955 43.0227C138.623 43.6932 138.167 44.2102 137.587 44.5739C137.008 44.9375 136.346 45.1193 135.601 45.1193C134.857 45.1193 134.195 44.9375 133.616 44.5739C133.036 44.2102 132.58 43.6932 132.248 43.0227C131.915 42.3523 131.749 41.5568 131.749 40.6364C131.749 39.7159 131.915 38.9205 132.248 38.25C132.58 37.5795 133.036 37.0625 133.616 36.6989C134.195 36.3352 134.857 36.1534 135.601 36.1534C136.346 36.1534 137.008 36.3352 137.587 36.6989C138.167 37.0625 138.623 37.5795 138.955 38.25C139.287 38.9205 139.454 39.7159 139.454 40.6364ZM138.431 40.6364C138.431 39.8807 138.305 39.2429 138.052 38.723C137.802 38.2031 137.462 37.8097 137.033 37.5426C136.607 37.2756 136.13 37.142 135.601 37.142C135.073 37.142 134.594 37.2756 134.165 37.5426C133.739 37.8097 133.4 38.2031 133.147 38.723C132.897 39.2429 132.772 39.8807 132.772 40.6364C132.772 41.392 132.897 42.0298 133.147 42.5497C133.4 43.0696 133.739 43.4631 134.165 43.7301C134.594 43.9972 135.073 44.1307 135.601 44.1307C136.13 44.1307 136.607 43.9972 137.033 43.7301C137.462 43.4631 137.802 43.0696 138.052 42.5497C138.305 42.0298 138.431 41.392 138.431 40.6364ZM140.39 37.2102V36.2727H146.936V37.2102H144.191V45H143.134V37.2102H140.39ZM148.567 45V36.2727H151.515C152.2 36.2727 152.76 36.3963 153.194 36.6435C153.632 36.8878 153.956 37.2188 154.166 37.6364C154.376 38.054 154.481 38.5199 154.481 39.0341C154.481 39.5483 154.376 40.0156 154.166 40.4361C153.959 40.8565 153.638 41.1918 153.203 41.4418C152.768 41.6889 152.211 41.8125 151.532 41.8125H149.419V40.875H151.498C151.967 40.875 152.344 40.794 152.628 40.6321C152.912 40.4702 153.118 40.2514 153.246 39.9759C153.376 39.6974 153.442 39.3835 153.442 39.0341C153.442 38.6847 153.376 38.3722 153.246 38.0966C153.118 37.821 152.91 37.6051 152.623 37.4489C152.336 37.2898 151.956 37.2102 151.481 37.2102H149.623V45H148.567ZM162.081 45.1364C161.468 45.1364 160.939 44.9915 160.496 44.7017C160.053 44.4119 159.712 44.0128 159.474 43.5043C159.235 42.9957 159.116 42.4148 159.116 41.7614C159.116 41.0966 159.238 40.5099 159.482 40.0014C159.729 39.4901 160.073 39.0909 160.513 38.804C160.956 38.5142 161.474 38.3693 162.064 38.3693C162.525 38.3693 162.939 38.4545 163.309 38.625C163.678 38.7955 163.981 39.0341 164.216 39.3409C164.452 39.6477 164.599 40.0057 164.655 40.4148H163.65C163.573 40.1165 163.403 39.8523 163.138 39.6222C162.877 39.3892 162.525 39.2727 162.081 39.2727C161.689 39.2727 161.346 39.375 161.05 39.5795C160.758 39.7812 160.529 40.0668 160.364 40.4361C160.202 40.8026 160.121 41.233 160.121 41.7273C160.121 42.233 160.201 42.6733 160.36 43.0483C160.522 43.4233 160.749 43.7145 161.042 43.9219C161.337 44.1293 161.684 44.233 162.081 44.233C162.343 44.233 162.58 44.1875 162.793 44.0966C163.006 44.0057 163.187 43.875 163.334 43.7045C163.482 43.5341 163.587 43.3295 163.65 43.0909H164.655C164.599 43.4773 164.458 43.8253 164.233 44.1349C164.012 44.4418 163.718 44.6861 163.351 44.8679C162.988 45.0469 162.564 45.1364 162.081 45.1364ZM168.87 45.1364C168.239 45.1364 167.695 44.9972 167.238 44.7188C166.783 44.4375 166.432 44.0455 166.185 43.5426C165.941 43.0369 165.819 42.4489 165.819 41.7784C165.819 41.108 165.941 40.517 166.185 40.0057C166.432 39.4915 166.776 39.0909 167.216 38.804C167.66 38.5142 168.177 38.3693 168.768 38.3693C169.108 38.3693 169.445 38.4261 169.778 38.5398C170.11 38.6534 170.412 38.8381 170.685 39.0938C170.958 39.3466 171.175 39.6818 171.337 40.0994C171.499 40.517 171.58 41.0312 171.58 41.642V42.0682H166.535V41.1989H170.557C170.557 40.8295 170.483 40.5 170.336 40.2102C170.191 39.9205 169.983 39.6918 169.714 39.5241C169.447 39.3565 169.131 39.2727 168.768 39.2727C168.367 39.2727 168.02 39.3722 167.728 39.571C167.438 39.767 167.215 40.0227 167.059 40.3381C166.903 40.6534 166.824 40.9915 166.824 41.3523V41.9318C166.824 42.4261 166.91 42.8452 167.08 43.1889C167.253 43.5298 167.493 43.7898 167.8 43.9688C168.107 44.1449 168.464 44.233 168.87 44.233C169.134 44.233 169.373 44.196 169.586 44.1222C169.802 44.0455 169.988 43.9318 170.144 43.7812C170.3 43.6278 170.421 43.4375 170.506 43.2102L171.478 43.483C171.376 43.8125 171.204 44.1023 170.962 44.3523C170.721 44.5994 170.422 44.7926 170.067 44.9318C169.712 45.0682 169.313 45.1364 168.87 45.1364ZM175.581 45.1364C175.036 45.1364 174.555 44.9986 174.137 44.723C173.719 44.4446 173.393 44.0526 173.157 43.5469C172.921 43.0384 172.803 42.4375 172.803 41.7443C172.803 41.0568 172.921 40.4602 173.157 39.9545C173.393 39.4489 173.721 39.0582 174.141 38.7827C174.562 38.5071 175.047 38.3693 175.599 38.3693C176.025 38.3693 176.361 38.4403 176.608 38.5824C176.858 38.7216 177.049 38.8807 177.18 39.0597C177.313 39.2358 177.417 39.3807 177.491 39.4943H177.576V36.2727H178.581V45H177.61V43.9943H177.491C177.417 44.1136 177.312 44.2642 177.175 44.446C177.039 44.625 176.844 44.7855 176.591 44.9276C176.339 45.0668 176.002 45.1364 175.581 45.1364ZM175.718 44.233C176.121 44.233 176.462 44.1278 176.741 43.9176C177.019 43.7045 177.231 43.4105 177.376 43.0355C177.52 42.6577 177.593 42.2216 177.593 41.7273C177.593 41.2386 177.522 40.8111 177.38 40.4446C177.238 40.0753 177.028 39.7884 176.749 39.5838C176.471 39.3764 176.127 39.2727 175.718 39.2727C175.292 39.2727 174.937 39.3821 174.653 39.6009C174.371 39.8168 174.16 40.1108 174.018 40.483C173.878 40.8523 173.809 41.267 173.809 41.7273C173.809 42.1932 173.88 42.6165 174.022 42.9972C174.167 43.375 174.38 43.6761 174.661 43.9006C174.945 44.1222 175.297 44.233 175.718 44.233ZM183.307 45.1364C182.677 45.1364 182.133 44.9972 181.675 44.7188C181.221 44.4375 180.87 44.0455 180.623 43.5426C180.378 43.0369 180.256 42.4489 180.256 41.7784C180.256 41.108 180.378 40.517 180.623 40.0057C180.87 39.4915 181.214 39.0909 181.654 38.804C182.097 38.5142 182.614 38.3693 183.205 38.3693C183.546 38.3693 183.883 38.4261 184.215 38.5398C184.547 38.6534 184.85 38.8381 185.123 39.0938C185.395 39.3466 185.613 39.6818 185.775 40.0994C185.937 40.517 186.018 41.0312 186.018 41.642V42.0682H180.972V41.1989H184.995C184.995 40.8295 184.921 40.5 184.773 40.2102C184.628 39.9205 184.421 39.6918 184.151 39.5241C183.884 39.3565 183.569 39.2727 183.205 39.2727C182.805 39.2727 182.458 39.3722 182.165 39.571C181.876 39.767 181.653 40.0227 181.496 40.3381C181.34 40.6534 181.262 40.9915 181.262 41.3523V41.9318C181.262 42.4261 181.347 42.8452 181.518 43.1889C181.691 43.5298 181.931 43.7898 182.238 43.9688C182.545 44.1449 182.901 44.233 183.307 44.233C183.572 44.233 183.81 44.196 184.023 44.1222C184.239 44.0455 184.425 43.9318 184.581 43.7812C184.738 43.6278 184.858 43.4375 184.944 43.2102L185.915 43.483C185.813 43.8125 185.641 44.1023 185.4 44.3523C185.158 44.5994 184.86 44.7926 184.505 44.9318C184.15 45.0682 183.751 45.1364 183.307 45.1364ZM193.769 38.4545V39.3068H190.377V38.4545H193.769ZM191.366 36.8864H192.371V43.125C192.371 43.4091 192.412 43.6222 192.495 43.7642C192.58 43.9034 192.688 43.9972 192.819 44.0455C192.952 44.0909 193.093 44.1136 193.241 44.1136C193.351 44.1136 193.442 44.108 193.513 44.0966C193.584 44.0824 193.641 44.071 193.684 44.0625L193.888 44.9659C193.82 44.9915 193.725 45.017 193.603 45.0426C193.481 45.071 193.326 45.0852 193.138 45.0852C192.854 45.0852 192.576 45.0241 192.303 44.902C192.033 44.7798 191.809 44.5938 191.63 44.3438C191.454 44.0938 191.366 43.7784 191.366 43.3977V36.8864ZM197.871 45.1364C197.28 45.1364 196.761 44.9957 196.315 44.7145C195.872 44.4332 195.525 44.0398 195.275 43.5341C195.028 43.0284 194.905 42.4375 194.905 41.7614C194.905 41.0795 195.028 40.4844 195.275 39.9759C195.525 39.4673 195.872 39.0724 196.315 38.7912C196.761 38.5099 197.28 38.3693 197.871 38.3693C198.461 38.3693 198.979 38.5099 199.422 38.7912C199.868 39.0724 200.214 39.4673 200.461 39.9759C200.711 40.4844 200.836 41.0795 200.836 41.7614C200.836 42.4375 200.711 43.0284 200.461 43.5341C200.214 44.0398 199.868 44.4332 199.422 44.7145C198.979 44.9957 198.461 45.1364 197.871 45.1364ZM197.871 44.233C198.319 44.233 198.689 44.1179 198.979 43.8878C199.268 43.6577 199.483 43.3551 199.622 42.9801C199.761 42.6051 199.831 42.1989 199.831 41.7614C199.831 41.3239 199.761 40.9162 199.622 40.5384C199.483 40.1605 199.268 39.8551 198.979 39.6222C198.689 39.3892 198.319 39.2727 197.871 39.2727C197.422 39.2727 197.052 39.3892 196.763 39.6222C196.473 39.8551 196.258 40.1605 196.119 40.5384C195.98 40.9162 195.91 41.3239 195.91 41.7614C195.91 42.1989 195.98 42.6051 196.119 42.9801C196.258 43.3551 196.473 43.6577 196.763 43.8878C197.052 44.1179 197.422 44.233 197.871 44.233ZM144.158 53.4545V54.3068H140.766V53.4545H144.158ZM141.754 51.8864H142.76V58.125C142.76 58.4091 142.801 58.6222 142.884 58.7642C142.969 58.9034 143.077 58.9972 143.207 59.0455C143.341 59.0909 143.482 59.1136 143.629 59.1136C143.74 59.1136 143.831 59.108 143.902 59.0966C143.973 59.0824 144.03 59.071 144.072 59.0625L144.277 59.9659C144.209 59.9915 144.114 60.017 143.991 60.0426C143.869 60.071 143.714 60.0852 143.527 60.0852C143.243 60.0852 142.964 60.0241 142.692 59.902C142.422 59.7798 142.197 59.5938 142.018 59.3438C141.842 59.0938 141.754 58.7784 141.754 58.3977V51.8864ZM146.817 56.0625V60H145.811V51.2727H146.817V54.4773H146.902C147.055 54.1392 147.286 53.8707 147.592 53.6719C147.902 53.4702 148.314 53.3693 148.828 53.3693C149.274 53.3693 149.665 53.4588 150 53.6378C150.335 53.8139 150.595 54.0852 150.78 54.4517C150.967 54.8153 151.061 55.2784 151.061 55.8409V60H150.055V55.9091C150.055 55.3892 149.92 54.9872 149.651 54.7031C149.384 54.4162 149.013 54.2727 148.538 54.2727C148.209 54.2727 147.913 54.3423 147.652 54.4815C147.393 54.6207 147.189 54.8239 147.038 55.0909C146.891 55.358 146.817 55.6818 146.817 56.0625ZM155.645 60.1364C155.015 60.1364 154.471 59.9972 154.013 59.7188C153.559 59.4375 153.208 59.0455 152.961 58.5426C152.716 58.0369 152.594 57.4489 152.594 56.7784C152.594 56.108 152.716 55.517 152.961 55.0057C153.208 54.4915 153.551 54.0909 153.992 53.804C154.435 53.5142 154.952 53.3693 155.543 53.3693C155.884 53.3693 156.221 53.4261 156.553 53.5398C156.885 53.6534 157.188 53.8381 157.461 54.0938C157.733 54.3466 157.951 54.6818 158.113 55.0994C158.275 55.517 158.355 56.0312 158.355 56.642V57.0682H153.31V56.1989H157.333C157.333 55.8295 157.259 55.5 157.111 55.2102C156.966 54.9205 156.759 54.6918 156.489 54.5241C156.222 54.3565 155.907 54.2727 155.543 54.2727C155.142 54.2727 154.796 54.3722 154.503 54.571C154.213 54.767 153.99 55.0227 153.834 55.3381C153.678 55.6534 153.6 55.9915 153.6 56.3523V56.9318C153.6 57.4261 153.685 57.8452 153.855 58.1889C154.029 58.5298 154.269 58.7898 154.576 58.9688C154.882 59.1449 155.239 59.233 155.645 59.233C155.909 59.233 156.148 59.196 156.361 59.1222C156.577 59.0455 156.763 58.9318 156.919 58.7812C157.076 58.6278 157.196 58.4375 157.282 58.2102L158.253 58.483C158.151 58.8125 157.979 59.1023 157.738 59.3523C157.496 59.5994 157.198 59.7926 156.843 59.9318C156.488 60.0682 156.088 60.1364 155.645 60.1364ZM163.26 62.4545V53.4545H164.232V54.4943H164.351C164.425 54.3807 164.527 54.2358 164.658 54.0597C164.792 53.8807 164.982 53.7216 165.229 53.5824C165.479 53.4403 165.817 53.3693 166.243 53.3693C166.794 53.3693 167.28 53.5071 167.701 53.7827C168.121 54.0582 168.449 54.4489 168.685 54.9545C168.921 55.4602 169.039 56.0568 169.039 56.7443C169.039 57.4375 168.921 58.0384 168.685 58.5469C168.449 59.0526 168.123 59.4446 167.705 59.723C167.287 59.9986 166.806 60.1364 166.26 60.1364C165.84 60.1364 165.503 60.0668 165.25 59.9276C164.998 59.7855 164.803 59.625 164.667 59.446C164.53 59.2642 164.425 59.1136 164.351 58.9943H164.266V62.4545H163.26ZM164.249 56.7273C164.249 57.2216 164.321 57.6577 164.466 58.0355C164.611 58.4105 164.823 58.7045 165.101 58.9176C165.38 59.1278 165.721 59.233 166.124 59.233C166.544 59.233 166.895 59.1222 167.176 58.9006C167.461 58.6761 167.674 58.375 167.816 57.9972C167.961 57.6165 168.033 57.1932 168.033 56.7273C168.033 56.267 167.962 55.8523 167.82 55.483C167.681 55.1108 167.469 54.8168 167.185 54.6009C166.904 54.3821 166.55 54.2727 166.124 54.2727C165.715 54.2727 165.371 54.3764 165.093 54.5838C164.814 54.7884 164.604 55.0753 164.462 55.4446C164.32 55.8111 164.249 56.2386 164.249 56.7273ZM170.573 60V53.4545H171.544V54.4432H171.613C171.732 54.1193 171.948 53.8565 172.26 53.6548C172.573 53.4531 172.925 53.3523 173.317 53.3523C173.391 53.3523 173.483 53.3537 173.594 53.3565C173.705 53.3594 173.789 53.3636 173.846 53.3693V54.392C173.811 54.3835 173.733 54.3707 173.611 54.3537C173.492 54.3338 173.365 54.3239 173.232 54.3239C172.914 54.3239 172.63 54.3906 172.38 54.5241C172.132 54.6548 171.936 54.8366 171.792 55.0696C171.65 55.2997 171.578 55.5625 171.578 55.858V60H170.573ZM177.498 60.1364C176.907 60.1364 176.388 59.9957 175.942 59.7145C175.499 59.4332 175.152 59.0398 174.902 58.5341C174.655 58.0284 174.532 57.4375 174.532 56.7614C174.532 56.0795 174.655 55.4844 174.902 54.9759C175.152 54.4673 175.499 54.0724 175.942 53.7912C176.388 53.5099 176.907 53.3693 177.498 53.3693C178.088 53.3693 178.605 53.5099 179.049 53.7912C179.495 54.0724 179.841 54.4673 180.088 54.9759C180.338 55.4844 180.463 56.0795 180.463 56.7614C180.463 57.4375 180.338 58.0284 180.088 58.5341C179.841 59.0398 179.495 59.4332 179.049 59.7145C178.605 59.9957 178.088 60.1364 177.498 60.1364ZM177.498 59.233C177.946 59.233 178.316 59.1179 178.605 58.8878C178.895 58.6577 179.11 58.3551 179.249 57.9801C179.388 57.6051 179.458 57.1989 179.458 56.7614C179.458 56.3239 179.388 55.9162 179.249 55.5384C179.11 55.1605 178.895 54.8551 178.605 54.6222C178.316 54.3892 177.946 54.2727 177.498 54.2727C177.049 54.2727 176.679 54.3892 176.39 54.6222C176.1 54.8551 175.885 55.1605 175.746 55.5384C175.607 55.9162 175.537 56.3239 175.537 56.7614C175.537 57.1989 175.607 57.6051 175.746 57.9801C175.885 58.3551 176.1 58.6577 176.39 58.8878C176.679 59.1179 177.049 59.233 177.498 59.233ZM184.658 60.1364C184.044 60.1364 183.516 59.9915 183.072 59.7017C182.629 59.4119 182.288 59.0128 182.05 58.5043C181.811 57.9957 181.692 57.4148 181.692 56.7614C181.692 56.0966 181.814 55.5099 182.058 55.0014C182.305 54.4901 182.649 54.0909 183.089 53.804C183.533 53.5142 184.05 53.3693 184.641 53.3693C185.101 53.3693 185.516 53.4545 185.885 53.625C186.254 53.7955 186.557 54.0341 186.793 54.3409C187.028 54.6477 187.175 55.0057 187.232 55.4148H186.226C186.149 55.1165 185.979 54.8523 185.714 54.6222C185.453 54.3892 185.101 54.2727 184.658 54.2727C184.266 54.2727 183.922 54.375 183.626 54.5795C183.334 54.7812 183.105 55.0668 182.94 55.4361C182.778 55.8026 182.697 56.233 182.697 56.7273C182.697 57.233 182.777 57.6733 182.936 58.0483C183.098 58.4233 183.325 58.7145 183.618 58.9219C183.913 59.1293 184.26 59.233 184.658 59.233C184.919 59.233 185.156 59.1875 185.369 59.0966C185.582 59.0057 185.763 58.875 185.911 58.7045C186.058 58.5341 186.163 58.3295 186.226 58.0909H187.232C187.175 58.4773 187.034 58.8253 186.81 59.1349C186.588 59.4418 186.294 59.6861 185.928 59.8679C185.564 60.0469 185.141 60.1364 184.658 60.1364ZM191.446 60.1364C190.815 60.1364 190.271 59.9972 189.814 59.7188C189.359 59.4375 189.009 59.0455 188.761 58.5426C188.517 58.0369 188.395 57.4489 188.395 56.7784C188.395 56.108 188.517 55.517 188.761 55.0057C189.009 54.4915 189.352 54.0909 189.793 53.804C190.236 53.5142 190.753 53.3693 191.344 53.3693C191.685 53.3693 192.021 53.4261 192.354 53.5398C192.686 53.6534 192.989 53.8381 193.261 54.0938C193.534 54.3466 193.751 54.6818 193.913 55.0994C194.075 55.517 194.156 56.0312 194.156 56.642V57.0682H189.111V56.1989H193.134C193.134 55.8295 193.06 55.5 192.912 55.2102C192.767 54.9205 192.56 54.6918 192.29 54.5241C192.023 54.3565 191.707 54.2727 191.344 54.2727C190.943 54.2727 190.597 54.3722 190.304 54.571C190.014 54.767 189.791 55.0227 189.635 55.3381C189.479 55.6534 189.401 55.9915 189.401 56.3523V56.9318C189.401 57.4261 189.486 57.8452 189.656 58.1889C189.83 58.5298 190.07 58.7898 190.376 58.9688C190.683 59.1449 191.04 59.233 191.446 59.233C191.71 59.233 191.949 59.196 192.162 59.1222C192.378 59.0455 192.564 58.9318 192.72 58.7812C192.876 58.6278 192.997 58.4375 193.082 58.2102L194.054 58.483C193.952 58.8125 193.78 59.1023 193.538 59.3523C193.297 59.5994 192.999 59.7926 192.643 59.9318C192.288 60.0682 191.889 60.1364 191.446 60.1364ZM200.322 54.9205L199.419 55.1761C199.362 55.0256 199.278 54.8793 199.168 54.7372C199.06 54.5923 198.912 54.473 198.724 54.3793C198.537 54.2855 198.297 54.2386 198.004 54.2386C197.604 54.2386 197.27 54.331 197.003 54.5156C196.739 54.6974 196.607 54.929 196.607 55.2102C196.607 55.4602 196.697 55.6577 196.879 55.8026C197.061 55.9474 197.345 56.0682 197.732 56.1648L198.703 56.4034C199.288 56.5455 199.724 56.7628 200.011 57.0554C200.298 57.3452 200.442 57.7187 200.442 58.1761C200.442 58.5511 200.334 58.8864 200.118 59.1818C199.905 59.4773 199.607 59.7102 199.223 59.8807C198.839 60.0511 198.393 60.1364 197.885 60.1364C197.217 60.1364 196.665 59.9915 196.227 59.7017C195.79 59.4119 195.513 58.9886 195.396 58.4318L196.351 58.1932C196.442 58.5455 196.614 58.8097 196.866 58.9858C197.122 59.1619 197.456 59.25 197.868 59.25C198.337 59.25 198.709 59.1506 198.984 58.9517C199.263 58.75 199.402 58.5085 199.402 58.2273C199.402 58 199.322 57.8097 199.163 57.6562C199.004 57.5 198.76 57.3835 198.43 57.3068L197.339 57.0511C196.74 56.9091 196.3 56.6889 196.018 56.3906C195.74 56.0895 195.601 55.7131 195.601 55.2614C195.601 54.892 195.705 54.5653 195.912 54.2812C196.122 53.9972 196.408 53.7741 196.768 53.6122C197.132 53.4503 197.544 53.3693 198.004 53.3693C198.652 53.3693 199.161 53.5114 199.53 53.7955C199.902 54.0795 200.166 54.4545 200.322 54.9205ZM206.592 54.9205L205.689 55.1761C205.632 55.0256 205.548 54.8793 205.437 54.7372C205.329 54.5923 205.181 54.473 204.994 54.3793C204.806 54.2855 204.566 54.2386 204.274 54.2386C203.873 54.2386 203.539 54.331 203.272 54.5156C203.008 54.6974 202.876 54.929 202.876 55.2102C202.876 55.4602 202.967 55.6577 203.149 55.8026C203.331 55.9474 203.615 56.0682 204.001 56.1648L204.973 56.4034C205.558 56.5455 205.994 56.7628 206.281 57.0554C206.568 57.3452 206.711 57.7187 206.711 58.1761C206.711 58.5511 206.603 58.8864 206.387 59.1818C206.174 59.4773 205.876 59.7102 205.493 59.8807C205.109 60.0511 204.663 60.1364 204.154 60.1364C203.487 60.1364 202.934 59.9915 202.497 59.7017C202.059 59.4119 201.782 58.9886 201.666 58.4318L202.62 58.1932C202.711 58.5455 202.883 58.8097 203.136 58.9858C203.392 59.1619 203.725 59.25 204.137 59.25C204.606 59.25 204.978 59.1506 205.254 58.9517C205.532 58.75 205.672 58.5085 205.672 58.2273C205.672 58 205.592 57.8097 205.433 57.6562C205.274 57.5 205.029 57.3835 204.7 57.3068L203.609 57.0511C203.01 56.9091 202.569 56.6889 202.288 56.3906C202.01 56.0895 201.87 55.7131 201.87 55.2614C201.87 54.892 201.974 54.5653 202.181 54.2812C202.392 53.9972 202.677 53.7741 203.038 53.6122C203.402 53.4503 203.814 53.3693 204.274 53.3693C204.922 53.3693 205.43 53.5114 205.799 53.7955C206.172 54.0795 206.436 54.4545 206.592 54.9205ZM208.958 60.0682C208.748 60.0682 208.567 59.9929 208.417 59.8423C208.266 59.6918 208.191 59.5114 208.191 59.3011C208.191 59.0909 208.266 58.9105 208.417 58.7599C208.567 58.6094 208.748 58.5341 208.958 58.5341C209.168 58.5341 209.349 58.6094 209.499 58.7599C209.65 58.9105 209.725 59.0909 209.725 59.3011C209.725 59.4403 209.69 59.5682 209.619 59.6847C209.55 59.8011 209.458 59.8949 209.342 59.9659C209.228 60.0341 209.1 60.0682 208.958 60.0682Z"
        fill="#878787" />
    <path
        d="M208.491 45.1364C207.86 45.1364 207.316 44.9972 206.859 44.7188C206.404 44.4375 206.053 44.0455 205.806 43.5426C205.562 43.0369 205.44 42.4489 205.44 41.7784C205.44 41.108 205.562 40.517 205.806 40.0057C206.053 39.4915 206.397 39.0909 206.838 38.804C207.281 38.5142 207.798 38.3693 208.389 38.3693C208.73 38.3693 209.066 38.4261 209.399 38.5398C209.731 38.6534 210.034 38.8381 210.306 39.0938C210.579 39.3466 210.796 39.6818 210.958 40.0994C211.12 40.517 211.201 41.0312 211.201 41.642V42.0682H206.156V41.1989H210.178C210.178 40.8295 210.105 40.5 209.957 40.2102C209.812 39.9205 209.605 39.6918 209.335 39.5241C209.068 39.3565 208.752 39.2727 208.389 39.2727C207.988 39.2727 207.642 39.3722 207.349 39.571C207.059 39.767 206.836 40.0227 206.68 40.3381C206.524 40.6534 206.445 40.9915 206.445 41.3523V41.9318C206.445 42.4261 206.531 42.8452 206.701 43.1889C206.874 43.5298 207.115 43.7898 207.421 43.9688C207.728 44.1449 208.085 44.233 208.491 44.233C208.755 44.233 208.994 44.196 209.207 44.1222C209.423 44.0455 209.609 43.9318 209.765 43.7812C209.921 43.6278 210.042 43.4375 210.127 43.2102L211.099 43.483C210.997 43.8125 210.825 44.1023 210.583 44.3523C210.342 44.5994 210.044 44.7926 209.688 44.9318C209.333 45.0682 208.934 45.1364 208.491 45.1364ZM213.305 38.4545L214.873 41.1307L216.442 38.4545H217.601L215.487 41.7273L217.601 45H216.442L214.873 42.4602L213.305 45H212.146L214.226 41.7273L212.146 38.4545H213.305ZM220.962 45.1534C220.547 45.1534 220.171 45.0753 219.833 44.919C219.494 44.7599 219.226 44.5312 219.027 44.233C218.828 43.9318 218.729 43.5682 218.729 43.142C218.729 42.767 218.803 42.4631 218.95 42.2301C219.098 41.9943 219.296 41.8097 219.543 41.6761C219.79 41.5426 220.063 41.4432 220.361 41.3778C220.662 41.3097 220.965 41.2557 221.269 41.2159C221.666 41.1648 221.989 41.1264 222.236 41.1009C222.486 41.0724 222.668 41.0256 222.781 40.9602C222.898 40.8949 222.956 40.7812 222.956 40.6193V40.5852C222.956 40.1648 222.841 39.8381 222.611 39.6051C222.384 39.3722 222.039 39.2557 221.575 39.2557C221.095 39.2557 220.719 39.3608 220.446 39.571C220.173 39.7812 219.982 40.0057 219.871 40.2443L218.916 39.9034C219.087 39.5057 219.314 39.196 219.598 38.9744C219.885 38.75 220.198 38.5937 220.536 38.5057C220.877 38.4148 221.212 38.3693 221.541 38.3693C221.752 38.3693 221.993 38.3949 222.266 38.446C222.541 38.4943 222.807 38.5952 223.063 38.7486C223.321 38.902 223.536 39.1335 223.706 39.4432C223.877 39.7528 223.962 40.1676 223.962 40.6875V45H222.956V44.1136H222.905C222.837 44.2557 222.723 44.4077 222.564 44.5696C222.405 44.7315 222.193 44.8693 221.929 44.983C221.665 45.0966 221.343 45.1534 220.962 45.1534ZM221.115 44.25C221.513 44.25 221.848 44.1719 222.121 44.0156C222.396 43.8594 222.604 43.6577 222.743 43.4105C222.885 43.1634 222.956 42.9034 222.956 42.6307V41.7102C222.914 41.7614 222.82 41.8082 222.675 41.8509C222.533 41.8906 222.368 41.9261 222.181 41.9574C221.996 41.9858 221.816 42.0114 221.639 42.0341C221.466 42.054 221.325 42.071 221.218 42.0852C220.956 42.1193 220.712 42.1747 220.485 42.2514C220.26 42.3253 220.078 42.4375 219.939 42.5881C219.803 42.7358 219.735 42.9375 219.735 43.1932C219.735 43.5426 219.864 43.8068 220.122 43.9858C220.384 44.1619 220.715 44.25 221.115 44.25ZM225.797 45V38.4545H226.769V39.4773H226.854C226.991 39.1278 227.211 38.8565 227.515 38.6634C227.819 38.4673 228.184 38.3693 228.61 38.3693C229.042 38.3693 229.401 38.4673 229.688 38.6634C229.978 38.8565 230.204 39.1278 230.366 39.4773H230.434C230.601 39.1392 230.853 38.8707 231.188 38.6719C231.523 38.4702 231.925 38.3693 232.394 38.3693C232.979 38.3693 233.458 38.5526 233.83 38.919C234.202 39.2827 234.388 39.8494 234.388 40.6193V45H233.383V40.6193C233.383 40.1364 233.251 39.7912 232.986 39.5838C232.722 39.3764 232.411 39.2727 232.053 39.2727C231.593 39.2727 231.236 39.4119 230.983 39.6903C230.731 39.9659 230.604 40.3153 230.604 40.7386V45H229.581V40.517C229.581 40.1449 229.461 39.8452 229.219 39.6179C228.978 39.3878 228.667 39.2727 228.286 39.2727C228.025 39.2727 227.78 39.3423 227.553 39.4815C227.329 39.6207 227.147 39.8139 227.008 40.0611C226.871 40.3054 226.803 40.5881 226.803 40.9091V45H225.797ZM236.227 47.4545V38.4545H237.199V39.4943H237.318C237.392 39.3807 237.494 39.2358 237.625 39.0597C237.758 38.8807 237.949 38.7216 238.196 38.5824C238.446 38.4403 238.784 38.3693 239.21 38.3693C239.761 38.3693 240.247 38.5071 240.667 38.7827C241.088 39.0582 241.416 39.4489 241.652 39.9545C241.888 40.4602 242.006 41.0568 242.006 41.7443C242.006 42.4375 241.888 43.0384 241.652 43.5469C241.416 44.0526 241.089 44.4446 240.672 44.723C240.254 44.9986 239.773 45.1364 239.227 45.1364C238.807 45.1364 238.47 45.0668 238.217 44.9276C237.964 44.7855 237.77 44.625 237.633 44.446C237.497 44.2642 237.392 44.1136 237.318 43.9943H237.233V47.4545H236.227ZM237.216 41.7273C237.216 42.2216 237.288 42.6577 237.433 43.0355C237.578 43.4105 237.79 43.7045 238.068 43.9176C238.346 44.1278 238.687 44.233 239.091 44.233C239.511 44.233 239.862 44.1222 240.143 43.9006C240.427 43.6761 240.64 43.375 240.782 42.9972C240.927 42.6165 241 42.1932 241 41.7273C241 41.267 240.929 40.8523 240.787 40.483C240.648 40.1108 240.436 39.8168 240.152 39.6009C239.871 39.3821 239.517 39.2727 239.091 39.2727C238.682 39.2727 238.338 39.3764 238.059 39.5838C237.781 39.7884 237.571 40.0753 237.429 40.4446C237.287 40.8111 237.216 41.2386 237.216 41.7273ZM244.545 36.2727V45H243.54V36.2727H244.545ZM249.132 45.1364C248.501 45.1364 247.957 44.9972 247.499 44.7188C247.045 44.4375 246.694 44.0455 246.447 43.5426C246.203 43.0369 246.08 42.4489 246.08 41.7784C246.08 41.108 246.203 40.517 246.447 40.0057C246.694 39.4915 247.038 39.0909 247.478 38.804C247.921 38.5142 248.438 38.3693 249.029 38.3693C249.37 38.3693 249.707 38.4261 250.039 38.5398C250.372 38.6534 250.674 38.8381 250.947 39.0938C251.22 39.3466 251.437 39.6818 251.599 40.0994C251.761 40.517 251.842 41.0312 251.842 41.642V42.0682H246.796V41.1989H250.819C250.819 40.8295 250.745 40.5 250.597 40.2102C250.453 39.9205 250.245 39.6918 249.975 39.5241C249.708 39.3565 249.393 39.2727 249.029 39.2727C248.629 39.2727 248.282 39.3722 247.99 39.571C247.7 39.767 247.477 40.0227 247.32 40.3381C247.164 40.6534 247.086 40.9915 247.086 41.3523V41.9318C247.086 42.4261 247.171 42.8452 247.342 43.1889C247.515 43.5298 247.755 43.7898 248.062 43.9688C248.369 44.1449 248.725 44.233 249.132 44.233C249.396 44.233 249.634 44.196 249.847 44.1222C250.063 44.0455 250.249 43.9318 250.406 43.7812C250.562 43.6278 250.683 43.4375 250.768 43.2102L251.74 43.483C251.637 43.8125 251.465 44.1023 251.224 44.3523C250.982 44.5994 250.684 44.7926 250.329 44.9318C249.974 45.0682 249.575 45.1364 249.132 45.1364ZM258.4 47.3011C257.531 47.3011 256.762 47.1818 256.095 46.9432C255.427 46.7074 254.866 46.3594 254.411 45.8991C253.957 45.4389 253.613 44.875 253.38 44.2074C253.147 43.5398 253.031 42.7756 253.031 41.9148C253.031 41.0824 253.149 40.3381 253.384 39.6818C253.623 39.0256 253.968 38.4688 254.42 38.0114C254.874 37.5511 255.426 37.2003 256.073 36.9588C256.724 36.7173 257.46 36.5966 258.281 36.5966C259.079 36.5966 259.778 36.7273 260.377 36.9886C260.98 37.2472 261.482 37.598 261.886 38.0412C262.292 38.4815 262.596 38.9773 262.798 39.5284C263.002 40.0795 263.105 40.6477 263.105 41.233C263.105 41.6449 263.085 42.0625 263.045 42.4858C263.005 42.9091 262.921 43.2983 262.794 43.6534C262.666 44.0057 262.468 44.2898 262.201 44.5057C261.937 44.7216 261.579 44.8295 261.127 44.8295C260.928 44.8295 260.71 44.7983 260.471 44.7358C260.232 44.6733 260.021 44.5696 259.836 44.4247C259.651 44.2798 259.542 44.0852 259.508 43.8409H259.457C259.389 44.0057 259.284 44.1619 259.142 44.3097C259.002 44.4574 258.819 44.5753 258.592 44.6634C258.367 44.7514 258.093 44.7898 257.769 44.7784C257.4 44.7642 257.075 44.6818 256.794 44.5312C256.512 44.3778 256.276 44.1705 256.086 43.9091C255.899 43.6449 255.757 43.3395 255.66 42.9929C255.566 42.6435 255.519 42.267 255.519 41.8636C255.519 41.4801 255.576 41.1293 255.69 40.8111C255.803 40.4929 255.961 40.2145 256.163 39.9759C256.367 39.7372 256.606 39.5469 256.879 39.4048C257.154 39.2599 257.451 39.1705 257.769 39.1364C258.053 39.108 258.312 39.1207 258.545 39.1747C258.778 39.2259 258.97 39.304 259.12 39.4091C259.271 39.5114 259.366 39.625 259.406 39.75H259.457V39.2727H260.36V43.125C260.36 43.3636 260.427 43.5739 260.561 43.7557C260.694 43.9375 260.889 44.0284 261.144 44.0284C261.434 44.0284 261.656 43.929 261.809 43.7301C261.965 43.5312 262.072 43.2244 262.129 42.8097C262.188 42.3949 262.218 41.8636 262.218 41.2159C262.218 40.8352 262.166 40.4602 262.061 40.0909C261.958 39.7187 261.802 39.3707 261.592 39.0469C261.384 38.723 261.122 38.4375 260.803 38.1903C260.485 37.9432 260.112 37.75 259.683 37.6108C259.257 37.4687 258.772 37.3977 258.23 37.3977C257.562 37.3977 256.964 37.5014 256.436 37.7088C255.91 37.9134 255.463 38.2131 255.093 38.608C254.727 39 254.447 39.4773 254.254 40.0398C254.063 40.5994 253.968 41.2358 253.968 41.9489C253.968 42.6733 254.063 43.3168 254.254 43.8793C254.447 44.4418 254.731 44.9162 255.106 45.3026C255.484 45.6889 255.951 45.9815 256.508 46.1804C257.065 46.3821 257.707 46.483 258.434 46.483C258.747 46.483 259.055 46.4531 259.359 46.3935C259.663 46.3338 259.931 46.2685 260.164 46.1974C260.397 46.1264 260.565 46.0739 260.667 46.0398L260.906 46.8239C260.73 46.8977 260.499 46.9716 260.215 47.0455C259.934 47.1193 259.633 47.1804 259.312 47.2287C258.994 47.277 258.69 47.3011 258.4 47.3011ZM257.906 43.9091C258.286 43.9091 258.595 43.8324 258.83 43.679C259.066 43.5256 259.238 43.294 259.346 42.9844C259.454 42.6747 259.508 42.2841 259.508 41.8125C259.508 41.3352 259.448 40.9631 259.329 40.696C259.21 40.429 259.034 40.2415 258.801 40.1335C258.568 40.0256 258.281 39.9716 257.94 39.9716C257.616 39.9716 257.339 40.0568 257.109 40.2273C256.882 40.3949 256.707 40.6193 256.585 40.9006C256.465 41.179 256.406 41.483 256.406 41.8125C256.406 42.1761 256.454 42.5185 256.551 42.8395C256.647 43.1577 256.805 43.4162 257.024 43.6151C257.242 43.8111 257.536 43.9091 257.906 43.9091ZM267.252 47.5909C266.766 47.5909 266.349 47.5284 265.999 47.4034C265.65 47.2812 265.358 47.1193 265.126 46.9176C264.895 46.7188 264.712 46.5057 264.576 46.2784L265.377 45.7159C265.468 45.8352 265.583 45.9716 265.722 46.125C265.861 46.2812 266.052 46.4162 266.293 46.5298C266.537 46.6463 266.857 46.7045 267.252 46.7045C267.78 46.7045 268.216 46.5767 268.56 46.321C268.904 46.0653 269.076 45.6648 269.076 45.1193V43.7898H268.991C268.917 43.9091 268.812 44.0568 268.675 44.233C268.542 44.4062 268.349 44.5611 268.096 44.6974C267.846 44.831 267.508 44.8977 267.081 44.8977C266.553 44.8977 266.079 44.7727 265.658 44.5227C265.241 44.2727 264.91 43.9091 264.665 43.4318C264.424 42.9545 264.303 42.375 264.303 41.6932C264.303 41.0227 264.421 40.4389 264.657 39.9418C264.893 39.4418 265.221 39.0554 265.641 38.7827C266.062 38.5071 266.547 38.3693 267.099 38.3693C267.525 38.3693 267.863 38.4403 268.113 38.5824C268.366 38.7216 268.559 38.8807 268.692 39.0597C268.829 39.2358 268.934 39.3807 269.008 39.4943H269.11V38.4545H270.081V45.1875C270.081 45.75 269.954 46.2074 269.698 46.5597C269.445 46.9148 269.104 47.1747 268.675 47.3395C268.249 47.5071 267.775 47.5909 267.252 47.5909ZM267.218 43.9943C267.621 43.9943 267.962 43.902 268.241 43.7173C268.519 43.5327 268.731 43.267 268.876 42.9205C269.02 42.5739 269.093 42.1591 269.093 41.6761C269.093 41.2045 269.022 40.7884 268.88 40.4276C268.738 40.0668 268.528 39.7841 268.249 39.5795C267.971 39.375 267.627 39.2727 267.218 39.2727C266.792 39.2727 266.437 39.3807 266.153 39.5966C265.871 39.8125 265.66 40.1023 265.518 40.4659C265.378 40.8295 265.309 41.233 265.309 41.6761C265.309 42.1307 265.38 42.5327 265.522 42.8821C265.667 43.2287 265.88 43.5014 266.161 43.7003C266.445 43.8963 266.797 43.9943 267.218 43.9943ZM271.922 45V38.4545H272.894V39.4773H272.979C273.116 39.1278 273.336 38.8565 273.64 38.6634C273.944 38.4673 274.309 38.3693 274.735 38.3693C275.167 38.3693 275.526 38.4673 275.813 38.6634C276.103 38.8565 276.329 39.1278 276.491 39.4773H276.559C276.726 39.1392 276.978 38.8707 277.313 38.6719C277.648 38.4702 278.05 38.3693 278.519 38.3693C279.104 38.3693 279.583 38.5526 279.955 38.919C280.327 39.2827 280.513 39.8494 280.513 40.6193V45H279.508V40.6193C279.508 40.1364 279.376 39.7912 279.111 39.5838C278.847 39.3764 278.536 39.2727 278.178 39.2727C277.718 39.2727 277.361 39.4119 277.108 39.6903C276.856 39.9659 276.729 40.3153 276.729 40.7386V45H275.706V40.517C275.706 40.1449 275.586 39.8452 275.344 39.6179C275.103 39.3878 274.792 39.2727 274.411 39.2727C274.15 39.2727 273.905 39.3423 273.678 39.4815C273.454 39.6207 273.272 39.8139 273.133 40.0611C272.996 40.3054 272.928 40.5881 272.928 40.9091V45H271.922ZM284.278 45.1534C283.863 45.1534 283.487 45.0753 283.149 44.919C282.811 44.7599 282.542 44.5312 282.344 44.233C282.145 43.9318 282.045 43.5682 282.045 43.142C282.045 42.767 282.119 42.4631 282.267 42.2301C282.415 41.9943 282.612 41.8097 282.859 41.6761C283.106 41.5426 283.379 41.4432 283.677 41.3778C283.979 41.3097 284.281 41.2557 284.585 41.2159C284.983 41.1648 285.305 41.1264 285.552 41.1009C285.802 41.0724 285.984 41.0256 286.098 40.9602C286.214 40.8949 286.273 40.7812 286.273 40.6193V40.5852C286.273 40.1648 286.157 39.8381 285.927 39.6051C285.7 39.3722 285.355 39.2557 284.892 39.2557C284.412 39.2557 284.035 39.3608 283.763 39.571C283.49 39.7812 283.298 40.0057 283.187 40.2443L282.233 39.9034C282.403 39.5057 282.631 39.196 282.915 38.9744C283.202 38.75 283.514 38.5937 283.852 38.5057C284.193 38.4148 284.528 38.3693 284.858 38.3693C285.068 38.3693 285.309 38.3949 285.582 38.446C285.858 38.4943 286.123 38.5952 286.379 38.7486C286.638 38.902 286.852 39.1335 287.023 39.4432C287.193 39.7528 287.278 40.1676 287.278 40.6875V45H286.273V44.1136H286.221C286.153 44.2557 286.04 44.4077 285.881 44.5696C285.721 44.7315 285.51 44.8693 285.246 44.983C284.981 45.0966 284.659 45.1534 284.278 45.1534ZM284.432 44.25C284.829 44.25 285.165 44.1719 285.437 44.0156C285.713 43.8594 285.92 43.6577 286.059 43.4105C286.202 43.1634 286.273 42.9034 286.273 42.6307V41.7102C286.23 41.7614 286.136 41.8082 285.991 41.8509C285.849 41.8906 285.684 41.9261 285.497 41.9574C285.312 41.9858 285.132 42.0114 284.956 42.0341C284.782 42.054 284.642 42.071 284.534 42.0852C284.273 42.1193 284.028 42.1747 283.801 42.2514C283.577 42.3253 283.395 42.4375 283.256 42.5881C283.119 42.7358 283.051 42.9375 283.051 43.1932C283.051 43.5426 283.18 43.8068 283.439 43.9858C283.7 44.1619 284.031 44.25 284.432 44.25ZM289.114 45V38.4545H290.119V45H289.114ZM289.625 37.3636C289.429 37.3636 289.26 37.2969 289.118 37.1634C288.979 37.0298 288.909 36.8693 288.909 36.6818C288.909 36.4943 288.979 36.3338 289.118 36.2003C289.26 36.0668 289.429 36 289.625 36C289.821 36 289.989 36.0668 290.128 36.2003C290.27 36.3338 290.341 36.4943 290.341 36.6818C290.341 36.8693 290.27 37.0298 290.128 37.1634C289.989 37.2969 289.821 37.3636 289.625 37.3636ZM292.967 36.2727V45H291.961V36.2727H292.967ZM295.542 45.0682C295.332 45.0682 295.151 44.9929 295.001 44.8423C294.85 44.6918 294.775 44.5114 294.775 44.3011C294.775 44.0909 294.85 43.9105 295.001 43.7599C295.151 43.6094 295.332 43.5341 295.542 43.5341C295.752 43.5341 295.933 43.6094 296.083 43.7599C296.234 43.9105 296.309 44.0909 296.309 44.3011C296.309 44.4403 296.274 44.5682 296.203 44.6847C296.134 44.8011 296.042 44.8949 295.926 44.9659C295.812 45.0341 295.684 45.0682 295.542 45.0682ZM300.773 45.1364C300.159 45.1364 299.631 44.9915 299.188 44.7017C298.744 44.4119 298.404 44.0128 298.165 43.5043C297.926 42.9957 297.807 42.4148 297.807 41.7614C297.807 41.0966 297.929 40.5099 298.173 40.0014C298.421 39.4901 298.764 39.0909 299.205 38.804C299.648 38.5142 300.165 38.3693 300.756 38.3693C301.216 38.3693 301.631 38.4545 302 38.625C302.369 38.7955 302.672 39.0341 302.908 39.3409C303.144 39.6477 303.29 40.0057 303.347 40.4148H302.341C302.264 40.1165 302.094 39.8523 301.83 39.6222C301.568 39.3892 301.216 39.2727 300.773 39.2727C300.381 39.2727 300.037 39.375 299.742 39.5795C299.449 39.7812 299.22 40.0668 299.056 40.4361C298.894 40.8026 298.813 41.233 298.813 41.7273C298.813 42.233 298.892 42.6733 299.051 43.0483C299.213 43.4233 299.441 43.7145 299.733 43.9219C300.029 44.1293 300.375 44.233 300.773 44.233C301.034 44.233 301.271 44.1875 301.485 44.0966C301.698 44.0057 301.878 43.875 302.026 43.7045C302.173 43.5341 302.279 43.3295 302.341 43.0909H303.347C303.29 43.4773 303.149 43.8253 302.925 44.1349C302.703 44.4418 302.409 44.6861 302.043 44.8679C301.679 45.0469 301.256 45.1364 300.773 45.1364ZM307.476 45.1364C306.885 45.1364 306.367 44.9957 305.921 44.7145C305.477 44.4332 305.131 44.0398 304.881 43.5341C304.634 43.0284 304.51 42.4375 304.51 41.7614C304.51 41.0795 304.634 40.4844 304.881 39.9759C305.131 39.4673 305.477 39.0724 305.921 38.7912C306.367 38.5099 306.885 38.3693 307.476 38.3693C308.067 38.3693 308.584 38.5099 309.027 38.7912C309.473 39.0724 309.82 39.4673 310.067 39.9759C310.317 40.4844 310.442 41.0795 310.442 41.7614C310.442 42.4375 310.317 43.0284 310.067 43.5341C309.82 44.0398 309.473 44.4332 309.027 44.7145C308.584 44.9957 308.067 45.1364 307.476 45.1364ZM307.476 44.233C307.925 44.233 308.294 44.1179 308.584 43.8878C308.874 43.6577 309.088 43.3551 309.227 42.9801C309.367 42.6051 309.436 42.1989 309.436 41.7614C309.436 41.3239 309.367 40.9162 309.227 40.5384C309.088 40.1605 308.874 39.8551 308.584 39.6222C308.294 39.3892 307.925 39.2727 307.476 39.2727C307.027 39.2727 306.658 39.3892 306.368 39.6222C306.078 39.8551 305.864 40.1605 305.725 40.5384C305.585 40.9162 305.516 41.3239 305.516 41.7614C305.516 42.1989 305.585 42.6051 305.725 42.9801C305.864 43.3551 306.078 43.6577 306.368 43.8878C306.658 44.1179 307.027 44.233 307.476 44.233ZM311.977 45V38.4545H312.949V39.4773H313.034C313.17 39.1278 313.39 38.8565 313.694 38.6634C313.998 38.4673 314.363 38.3693 314.79 38.3693C315.221 38.3693 315.581 38.4673 315.868 38.6634C316.157 38.8565 316.383 39.1278 316.545 39.4773H316.613C316.781 39.1392 317.032 38.8707 317.368 38.6719C317.703 38.4702 318.105 38.3693 318.574 38.3693C319.159 38.3693 319.638 38.5526 320.01 38.919C320.382 39.2827 320.568 39.8494 320.568 40.6193V45H319.562V40.6193C319.562 40.1364 319.43 39.7912 319.166 39.5838C318.902 39.3764 318.591 39.2727 318.233 39.2727C317.773 39.2727 317.416 39.4119 317.163 39.6903C316.91 39.9659 316.784 40.3153 316.784 40.7386V45H315.761V40.517C315.761 40.1449 315.64 39.8452 315.399 39.6179C315.157 39.3878 314.846 39.2727 314.466 39.2727C314.204 39.2727 313.96 39.3423 313.733 39.4815C313.508 39.6207 313.327 39.8139 313.187 40.0611C313.051 40.3054 312.983 40.5881 312.983 40.9091V45H311.977Z"
        fill="#505050" />
</svg>
