<svg width="32" height="32" viewBox="0 0 32 32" fill="none" xmlns="http://www.w3.org/2000/svg">
    <rect width="32" height="32" rx="8" fill="#F5F5F5" />
    <path
        d="M6 16C6 11.286 6 8.92893 7.46447 7.46447C8.92893 6 11.286 6 16 6C20.714 6 23.0711 6 24.5355 7.46447C26 8.92893 26 11.286 26 16C26 20.714 26 23.0711 24.5355 24.5355C23.0711 26 20.714 26 16 26C11.286 26 8.92893 26 7.46447 24.5355C6 23.0711 6 20.714 6 16Z"
        stroke="#505050" stroke-width="1.5" />
    <path d="M10 19.8L11.1429 21L14 18" stroke="#505050" stroke-width="1.5" stroke-linecap="round"
        stroke-linejoin="round" />
    <path d="M10 12.8L11.1429 14L14 11" stroke="#505050" stroke-width="1.5" stroke-linecap="round"
        stroke-linejoin="round" />
    <path d="M17 13L22 13" stroke="#505050" stroke-width="1.5" stroke-linecap="round" />
    <path d="M17 20H22" stroke="#505050" stroke-width="1.5" stroke-linecap="round" />
</svg>
