<svg width="32" height="32" viewBox="0 0 32 32" fill="none" xmlns="http://www.w3.org/2000/svg">
    <path
        d="M21.3335 16C15.0851 16 16.9152 16 10.6668 16M10.6668 16L14.6668 12M10.6668 16L14.6668 20"
        stroke="#252525" stroke-width="1.5" stroke-linecap="round" stroke-linejoin="round" />
    <path
        d="M29.3335 16.0001C29.3335 9.71469 29.3335 6.57199 27.3809 4.61937C25.4283 2.66675 22.2856 2.66675 16.0002 2.66675C9.71477 2.66675 6.57207 2.66675 4.61945 4.61937C2.66683 6.57199 2.66683 9.71469 2.66683 16.0001C2.66683 22.2855 2.66683 25.4282 4.61945 27.3808C6.57207 29.3334 9.71477 29.3334 16.0002 29.3334C22.2856 29.3334 25.4283 29.3334 27.3809 27.3808C29.3335 25.4282 29.3335 22.2855 29.3335 16.0001Z"
        stroke="#252525" stroke-width="1.5" />
</svg>
