<svg width="33" height="32" viewBox="0 0 33 32" fill="none" xmlns="http://www.w3.org/2000/svg">
    <path fill-rule="evenodd" clip-rule="evenodd"
        d="M16.375 21.3337C21.5296 21.3337 25.7083 17.155 25.7083 12.0003C25.7083 6.84567 21.5296 2.66699 16.375 2.66699C11.2203 2.66699 7.04166 6.84567 7.04166 12.0003C7.04166 17.155 11.2203 21.3337 16.375 21.3337ZM16.375 8.00033C15.9962 8.00033 15.7429 8.45478 15.2363 9.36368L15.1052 9.59882C14.9612 9.8571 14.8892 9.98624 14.777 10.0714C14.6647 10.1567 14.5249 10.1883 14.2453 10.2515L13.9908 10.3091C13.0069 10.5317 12.515 10.6431 12.398 11.0194C12.2809 11.3958 12.6163 11.788 13.287 12.5723L13.4606 12.7752C13.6512 12.9981 13.7465 13.1095 13.7893 13.2474C13.8322 13.3853 13.8178 13.534 13.789 13.8313L13.7627 14.1021C13.6613 15.1486 13.6106 15.6718 13.917 15.9044C14.2235 16.137 14.6841 15.9249 15.6053 15.5008L15.8436 15.3911C16.1054 15.2705 16.2362 15.2103 16.375 15.2103C16.5137 15.2103 16.6446 15.2705 16.9064 15.3911L17.1447 15.5008C18.0659 15.9249 18.5265 16.137 18.8329 15.9044C19.1393 15.6718 19.0886 15.1486 18.9872 14.1021L18.961 13.8313C18.9322 13.534 18.9178 13.3853 18.9606 13.2474C19.0035 13.1095 19.0988 12.9981 19.2894 12.7752L19.463 12.5723C20.1337 11.788 20.4691 11.3958 20.352 11.0194C20.235 10.6431 19.743 10.5317 18.7592 10.3091L18.5046 10.2515C18.225 10.1883 18.0853 10.1567 17.973 10.0714C17.8608 9.98624 17.7888 9.8571 17.6448 9.59882L17.5137 9.36368C17.0071 8.45478 16.7537 8.00033 16.375 8.00033Z"
        fill="#144D2A" />
    <path
        d="M6.36855 17.3262L4.3644 19.4013C3.64424 20.1469 3.28416 20.5198 3.15956 20.8355C2.87562 21.555 3.11861 22.3531 3.73683 22.7315C4.00813 22.8976 4.49748 22.9494 5.47618 23.0529C6.02872 23.1113 6.30506 23.1405 6.53646 23.2292C7.05453 23.4278 7.45754 23.8451 7.64932 24.3815C7.73499 24.6211 7.76322 24.9072 7.81966 25.4793C7.91963 26.4927 7.96962 26.9994 8.13002 27.2803C8.49555 27.9204 9.26635 28.172 9.96121 27.878C10.2661 27.749 10.6262 27.3761 11.3464 26.6305L14.6558 23.2039C11.0591 22.6566 8.01799 20.4186 6.36855 17.3262Z"
        fill="#144D2A" />
    <path
        d="M18.0942 23.2039L21.4036 26.6305C22.1238 27.3761 22.4838 27.749 22.7888 27.878C23.4836 28.172 24.2544 27.9204 24.62 27.2803C24.7804 26.9994 24.8304 26.4927 24.9303 25.4793C24.9868 24.9072 25.015 24.6211 25.1007 24.3815C25.2924 23.8451 25.6954 23.4278 26.2135 23.2292C26.4449 23.1405 26.7212 23.1113 27.2738 23.0529C28.2525 22.9494 28.7418 22.8976 29.0131 22.7315C29.6314 22.3531 29.8744 21.555 29.5904 20.8355C29.4658 20.5198 29.1057 20.1469 28.3856 19.4013L26.3814 17.3262C24.732 20.4186 21.6909 22.6566 18.0942 23.2039Z"
        fill="#144D2A" />
</svg>
