<svg width="33" height="32" viewBox="0 0 33 32" fill="none" xmlns="http://www.w3.org/2000/svg">
    <path
        d="M15.2363 9.36335C15.7429 8.45445 15.9963 8 16.375 8C16.7537 8 17.0071 8.45445 17.5137 9.36335L17.6448 9.59849C17.7888 9.85677 17.8608 9.98591 17.973 10.0711C18.0853 10.1563 18.2251 10.188 18.5046 10.2512L18.7592 10.3088C19.7431 10.5314 20.235 10.6427 20.352 11.0191C20.4691 11.3955 20.1337 11.7876 19.463 12.572L19.2894 12.7749C19.0988 12.9978 19.0035 13.1092 18.9607 13.2471C18.9178 13.385 18.9322 13.5336 18.961 13.831L18.9872 14.1018C19.0886 15.1482 19.1394 15.6715 18.8329 15.9041C18.5265 16.1367 18.0659 15.9246 17.1447 15.5005L16.9064 15.3907C16.6446 15.2702 16.5137 15.2099 16.375 15.2099C16.2363 15.2099 16.1054 15.2702 15.8436 15.3907L15.6053 15.5005C14.6841 15.9246 14.2235 16.1367 13.9171 15.9041C13.6106 15.6715 13.6614 15.1482 13.7628 14.1018L13.789 13.831C13.8178 13.5336 13.8322 13.385 13.7893 13.2471C13.7465 13.1092 13.6512 12.9978 13.4606 12.7749L13.287 12.572C12.6163 11.7876 12.2809 11.3955 12.398 11.0191C12.515 10.6427 13.0069 10.5314 13.9908 10.3088L14.2454 10.2512C14.5249 10.188 14.6647 10.1563 14.777 10.0711C14.8892 9.98591 14.9612 9.85677 15.1052 9.59849L15.2363 9.36335Z"
        stroke="#B9CAC0" stroke-width="1.5" />
    <path
        d="M25.7084 12.0001C25.7084 17.1547 21.5297 21.3334 16.375 21.3334C11.2204 21.3334 7.04169 17.1547 7.04169 12.0001C7.04169 6.84542 11.2204 2.66675 16.375 2.66675C21.5297 2.66675 25.7084 6.84542 25.7084 12.0001Z"
        stroke="#B9CAC0" stroke-width="1.5" />
    <path
        d="M16.375 21.4238L11.3464 26.6304C10.6263 27.3761 10.2662 27.7489 9.96124 27.8779C9.26638 28.1719 8.49558 27.9203 8.13005 27.2802C7.96965 26.9993 7.91966 26.4926 7.81969 25.4793C7.76325 24.9071 7.73502 24.6211 7.64936 24.3815C7.45757 23.845 7.05456 23.4278 6.53649 23.2292C6.30508 23.1405 6.02879 23.1113 5.47621 23.0528C4.49751 22.9493 4.00816 22.8976 3.73686 22.7315C3.11864 22.353 2.87566 21.5549 3.15959 20.8354C3.28419 20.5197 3.64427 20.1469 4.36443 19.4012L7.64936 16"
        stroke="#B9CAC0" stroke-width="1.5" />
    <path
        d="M16.375 21.4238L21.4036 26.6304C22.1237 27.3761 22.4838 27.7489 22.7888 27.8779C23.4836 28.1719 24.2544 27.9203 24.6199 27.2802C24.7804 26.9993 24.8303 26.4926 24.9303 25.4793C24.9868 24.9071 25.015 24.6211 25.1006 24.3815C25.2924 23.845 25.6954 23.4278 26.2135 23.2292C26.4449 23.1405 26.7212 23.1113 27.2738 23.0528C28.2525 22.9493 28.7418 22.8976 29.0131 22.7315C29.6314 22.353 29.8743 21.5549 29.5904 20.8354C29.4658 20.5197 29.1057 20.1469 28.3856 19.4012L25.1006 16"
        stroke="#B9CAC0" stroke-width="1.5" />
</svg>
