<svg width="81" height="80" viewBox="0 0 81 80" fill="none" xmlns="http://www.w3.org/2000/svg">
    <path
        d="M13.8739 52.5392L19.5055 35.6442C22.0589 27.9841 23.3356 24.154 26.3565 23.4409C29.3773 22.7277 32.2321 25.5825 37.9416 31.292L49.2049 42.5554C54.9145 48.2649 57.7692 51.1197 57.0561 54.1405C56.343 57.1614 52.5129 58.4381 44.8528 60.9914L27.9578 66.6231C18.7398 69.6958 14.1307 71.2321 11.6978 68.7992C9.26486 66.3663 10.8012 61.7572 13.8739 52.5392Z"
        stroke="#1C274C" stroke-width="1.5" stroke-linecap="round" />
    <path
        d="M41.2841 61.1541C41.2841 61.1541 38.7568 53.5504 38.7568 48.5179C38.7568 43.4854 41.2841 35.8816 41.2841 35.8816M27.3842 64.945C27.3842 64.945 25.2498 55.772 24.857 49.7815C24.208 39.884 27.3842 24.509 27.3842 24.509"
        stroke="#1C274C" stroke-width="1.5" stroke-linecap="round" />
    <path
        d="M48.8643 33.3537L49.3442 30.9539C49.8288 28.5309 51.5746 26.5533 53.9188 25.7719C56.2629 24.9905 58.0087 23.013 58.4933 20.59L58.9732 18.1902"
        stroke="#1C274C" stroke-width="1.5" stroke-linecap="round" />
    <path
        d="M59.0645 44.1777L59.7739 44.5873C61.9643 45.8519 64.7182 45.5731 66.6106 43.895C68.3243 42.3754 70.7647 41.99 72.8633 42.9075L73.8349 43.3324"
        stroke="#1C274C" stroke-width="1.5" stroke-linecap="round" />
    <path
        d="M33.1499 9.26391C32.025 11.1041 32.3069 13.4754 33.832 15.0005L34.1583 15.3268C35.4688 16.6373 35.9521 18.5625 35.4158 20.3366"
        stroke="#1C274C" stroke-width="1.5" stroke-linecap="round" />
    <path
        d="M23.592 13.136C24.2903 12.4377 25.4223 12.4377 26.1205 13.136C26.8188 13.8342 26.8188 14.9663 26.1205 15.6645C25.4223 16.3627 24.2903 16.3627 23.592 15.6645C22.8938 14.9663 22.8938 13.8342 23.592 13.136Z"
        fill="#1C274C" />
    <path
        d="M41.0237 23.8569C41.7219 23.1587 42.854 23.1587 43.5522 23.8569C44.2504 24.5552 44.2504 25.6872 43.5522 26.3854C42.854 27.0837 41.7219 27.0837 41.0237 26.3854C40.3254 25.6872 40.3254 24.5552 41.0237 23.8569Z"
        fill="#1C274C" />
    <path
        d="M57.6907 33.8569C58.3889 33.1587 59.5209 33.1587 60.2192 33.8569C60.9174 34.5552 60.9174 35.6872 60.2192 36.3854C59.5209 37.0837 58.3889 37.0837 57.6907 36.3854C56.9924 35.6872 56.9924 34.5552 57.6907 33.8569Z"
        fill="#1C274C" />
    <path
        d="M64.0276 51.0444C64.7258 50.3462 65.8579 50.3462 66.5561 51.0444C67.2543 51.7427 67.2543 52.8747 66.5561 53.5729C65.8579 54.2712 64.7258 54.2712 64.0276 53.5729C63.3293 52.8747 63.3293 51.7427 64.0276 51.0444Z"
        fill="#1C274C" />
    <path
        d="M65.0382 25.7141C62.804 27.9483 64.4073 34.4262 64.4073 34.4262C64.4073 34.4262 70.8852 36.0295 73.1195 33.7953C75.4858 31.429 74.1468 28.3231 70.5007 28.3328C70.5104 24.6867 67.4045 23.3477 65.0382 25.7141Z"
        stroke="#1C274C" stroke-linejoin="round" />
    <path
        d="M51.127 11.3914L51.0351 11.7151C50.934 12.0706 50.8835 12.2484 50.9074 12.4229C50.9313 12.5974 51.0269 12.749 51.2181 13.052L51.3922 13.3279C52.0651 14.3943 52.4015 14.9275 52.1723 15.3636C51.9431 15.7997 51.3 15.8499 50.0139 15.9503L49.6811 15.9763C49.3157 16.0048 49.1329 16.0191 48.9732 16.1031C48.8134 16.187 48.6947 16.3312 48.4574 16.6195L48.2412 16.882C47.4059 17.8966 46.9882 18.4039 46.5118 18.3386C46.0354 18.2734 45.8157 17.6788 45.3764 16.4897L45.2627 16.1821C45.1379 15.8442 45.0755 15.6752 44.9528 15.5526C44.8302 15.4299 44.6612 15.3675 44.3233 15.2427L44.0157 15.129C42.8265 14.6897 42.232 14.47 42.1667 13.9936C42.1015 13.5172 42.6088 13.0995 43.6234 12.2641L43.8859 12.048C44.1742 11.8107 44.3184 11.692 44.4023 11.5322C44.4863 11.3725 44.5006 11.1897 44.5291 10.8242L44.5551 10.4915C44.6555 9.20539 44.7057 8.56233 45.1418 8.33311C45.5779 8.1039 46.1111 8.44033 47.1775 9.1132L47.4534 9.28728C47.7564 9.47849 47.908 9.57409 48.0825 9.59799C48.257 9.62188 48.4348 9.57137 48.7903 9.47034L49.114 9.37836C50.3652 9.02282 50.9908 8.84506 51.3256 9.17982C51.6603 9.51459 51.4826 10.1402 51.127 11.3914Z"
        stroke="#1C274C" />
</svg>
