<svg width="32" height="32" viewBox="0 0 32 32" fill="none" xmlns="http://www.w3.org/2000/svg">
    <rect width="32" height="32" rx="8" fill="#F5F5F5"/>
    <path d="M24.5 10H7.49991" stroke="#505050" stroke-width="1.5" stroke-linecap="round"/>
    <path d="M22.8333 12.5L22.3734 19.3991C22.1964 22.054 22.1079 23.3815 21.2429 24.1907C20.3779 25 19.0475 25 16.3867 25H15.6133C12.9525 25 11.6221 25 10.7571 24.1907C9.89209 23.3815 9.80359 22.054 9.6266 19.3991L9.16666 12.5" stroke="#505050" stroke-width="1.5" stroke-linecap="round"/>
    <path d="M13.5 15L14 20" stroke="#505050" stroke-width="1.5" stroke-linecap="round"/>
    <path d="M18.5 15L18 20" stroke="#505050" stroke-width="1.5" stroke-linecap="round"/>
    <path d="M10.5 10C10.5559 10 10.5838 10 10.6091 9.99936C11.4326 9.97849 12.159 9.45491 12.4392 8.68032C12.4478 8.65649 12.4567 8.62999 12.4743 8.57697L12.5714 8.28571C12.6543 8.03708 12.6957 7.91276 12.7507 7.8072C12.97 7.38607 13.3757 7.09364 13.8446 7.01877C13.9621 7 14.0932 7 14.3553 7H17.6447C17.9068 7 18.0379 7 18.1554 7.01877C18.6243 7.09364 19.03 7.38607 19.2493 7.8072C19.3043 7.91276 19.3457 8.03708 19.4286 8.28571L19.5257 8.57697C19.5433 8.62992 19.5522 8.65651 19.5608 8.68032C19.841 9.45491 20.5674 9.97849 21.3909 9.99936C21.4162 10 21.4441 10 21.5 10" stroke="#505050" stroke-width="1.5"/>
</svg>
