<svg width="82" height="32" viewBox="0 0 82 32" fill="none" xmlns="http://www.w3.org/2000/svg">
    <rect width="82" height="32" rx="8" fill="#F9F9F9" />
    <path d="M12 26H28" stroke="#252525" stroke-width="1.5" stroke-linecap="round" />
    <path
        d="M21.8881 7.66293L22.6296 6.92142C23.8581 5.69286 25.85 5.69286 27.0786 6.92142C28.3071 8.14999 28.3071 10.1419 27.0786 11.3704L26.3371 12.1119M21.8881 7.66293C21.8881 7.66293 21.9807 9.23862 23.3711 10.6289C24.7614 12.0193 26.3371 12.1119 26.3371 12.1119M21.8881 7.66293L15.0711 14.4799C14.6093 14.9416 14.3785 15.1725 14.1799 15.4271C13.9457 15.7273 13.7449 16.0522 13.5811 16.396C13.4422 16.6874 13.3389 16.9972 13.1324 17.6167L12.2574 20.2417M26.3371 12.1119L19.5201 18.9289C19.0584 19.3907 18.8275 19.6215 18.5729 19.8201C18.2727 20.0543 17.9478 20.2551 17.604 20.4189C17.3126 20.5578 17.0028 20.6611 16.3833 20.8675L13.7583 21.7426M13.7583 21.7426L13.1167 21.9564C12.8118 22.0581 12.4757 21.9787 12.2485 21.7515C12.0213 21.5243 11.9419 21.1882 12.0436 20.8833L12.2574 20.2417M13.7583 21.7426L12.2574 20.2417"
        stroke="#252525" stroke-width="1.5" />
    <path
        d="M41.8544 22V10.3636H48.8771V11.6136H43.2635V15.5455H48.5135V16.7955H43.2635V20.75H48.968V22H41.8544ZM54.5305 22.1818C53.8033 22.1818 53.1612 21.9981 52.6044 21.6307C52.0476 21.2595 51.612 20.7367 51.2976 20.0625C50.9832 19.3845 50.826 18.5833 50.826 17.6591C50.826 16.7424 50.9832 15.947 51.2976 15.2727C51.612 14.5985 52.0495 14.0777 52.6101 13.7102C53.1707 13.3428 53.8184 13.1591 54.5533 13.1591C55.1214 13.1591 55.5703 13.2538 55.8999 13.4432C56.2332 13.6288 56.487 13.8409 56.6612 14.0795C56.8393 14.3144 56.9775 14.5076 57.076 14.6591H57.1896V10.3636H58.5305V22H57.2351V20.6591H57.076C56.9775 20.8182 56.8374 21.0189 56.6555 21.2614C56.4737 21.5 56.2143 21.714 55.8771 21.9034C55.54 22.089 55.0911 22.1818 54.5305 22.1818ZM54.7124 20.9773C55.2502 20.9773 55.7048 20.8371 56.076 20.5568C56.4472 20.2727 56.7294 19.8807 56.9226 19.3807C57.1158 18.8769 57.2124 18.2955 57.2124 17.6364C57.2124 16.9848 57.1177 16.4148 56.9283 15.9261C56.7389 15.4337 56.4586 15.0511 56.0874 14.7784C55.7161 14.5019 55.2578 14.3636 54.7124 14.3636C54.1442 14.3636 53.6707 14.5095 53.2919 14.8011C52.9169 15.089 52.6347 15.4811 52.4453 15.9773C52.2597 16.4697 52.1669 17.0227 52.1669 17.6364C52.1669 18.2576 52.2616 18.822 52.451 19.3295C52.6442 19.8333 52.9283 20.2348 53.3033 20.5341C53.6821 20.8295 54.1518 20.9773 54.7124 20.9773ZM61.1726 22V13.2727H62.5135V22H61.1726ZM61.8544 11.8182C61.593 11.8182 61.3677 11.7292 61.1783 11.5511C60.9927 11.3731 60.8999 11.1591 60.8999 10.9091C60.8999 10.6591 60.9927 10.4451 61.1783 10.267C61.3677 10.089 61.593 10 61.8544 10C62.1158 10 62.3393 10.089 62.5249 10.267C62.7143 10.4451 62.8089 10.6591 62.8089 10.9091C62.8089 11.1591 62.7143 11.3731 62.5249 11.5511C62.3393 11.7292 62.1158 11.8182 61.8544 11.8182ZM68.7649 13.2727V14.4091H64.2422V13.2727H68.7649ZM65.5604 11.1818H66.9013V19.5C66.9013 19.8788 66.9562 20.1629 67.0661 20.3523C67.1797 20.5379 67.3236 20.6629 67.4979 20.7273C67.6759 20.7879 67.8634 20.8182 68.0604 20.8182C68.2081 20.8182 68.3293 20.8106 68.424 20.7955C68.5187 20.7765 68.5945 20.7614 68.6513 20.75L68.924 21.9545C68.8331 21.9886 68.7062 22.0227 68.5433 22.0568C68.3804 22.0947 68.174 22.1136 67.924 22.1136C67.5452 22.1136 67.174 22.0322 66.8104 21.8693C66.4505 21.7064 66.1513 21.4583 65.9126 21.125C65.6778 20.7917 65.5604 20.3712 65.5604 19.8636V11.1818Z"
        fill="#252525" />
</svg>
