<svg width="28" height="28" viewBox="0 0 28 28" fill="none" xmlns="http://www.w3.org/2000/svg">
    <rect width="28" height="28" rx="14" fill="white" />
    <path d="M7.33331 22.333H20.6666" stroke="#505050" stroke-width="1.5" stroke-linecap="round" />
    <path
        d="M15.5734 7.05276L16.1913 6.43484C17.2151 5.41104 18.875 5.41104 19.8988 6.43484C20.9226 7.45865 20.9226 9.11856 19.8988 10.1424L19.2809 10.7603M15.5734 7.05276C15.5734 7.05276 15.6506 8.36584 16.8092 9.52444C17.9678 10.683 19.2809 10.7603 19.2809 10.7603M15.5734 7.05276L9.89253 12.7336C9.50775 13.1184 9.31537 13.3108 9.14991 13.5229C8.95474 13.7731 8.7874 14.0439 8.65087 14.3303C8.53514 14.5732 8.4491 14.8313 8.27702 15.3475L7.54785 17.535M19.2809 10.7603L13.6 16.4411C13.2153 16.8259 13.0229 17.0183 12.8108 17.1837C12.5605 17.3789 12.2898 17.5462 12.0033 17.6828C11.7604 17.7985 11.5023 17.8845 10.9861 18.0566L8.79859 18.7858M8.79859 18.7858L8.26387 18.964C8.00983 19.0487 7.72975 18.9826 7.5404 18.7932C7.35105 18.6039 7.28493 18.3238 7.36961 18.0698L7.54785 17.535M8.79859 18.7858L7.54785 17.535"
        stroke="#505050" stroke-width="1.5" />
</svg>
