<svg width="36" height="36" viewBox="0 0 36 36" fill="none" xmlns="http://www.w3.org/2000/svg">
    <rect width="36" height="36" rx="8" fill="#F5F5F5" />
    <path
        d="M15.25 20C16.9069 20 18.25 21.3431 18.25 23C18.25 24.6569 16.9069 26 15.25 26C13.5931 26 12.25 24.6569 12.25 23C12.25 21.3431 13.5931 20 15.25 20Z"
        fill="#252525" />
    <path
        d="M20.25 10C18.5931 10 17.25 11.3431 17.25 13C17.25 14.6569 18.5931 16 20.25 16C21.9069 16 23.25 14.6569 23.25 13C23.25 11.3431 21.9069 10 20.25 10Z"
        fill="#252525" />
    <path
        d="M14.75 12.2085C15.1642 12.2085 15.5 12.5443 15.5 12.9585C15.5 13.3727 15.1642 13.7085 14.75 13.7085L7.75 13.7085C7.33579 13.7085 7 13.3727 7 12.9585C7 12.5443 7.33579 12.2085 7.75 12.2085H14.75Z"
        fill="#252525" />
    <path
        d="M20.75 22.2085C20.3358 22.2085 20 22.5443 20 22.9585C20 23.3727 20.3358 23.7085 20.75 23.7085H27.75C28.1642 23.7085 28.5 23.3727 28.5 22.9585C28.5 22.5443 28.1642 22.2085 27.75 22.2085H20.75Z"
        fill="#252525" />
    <path
        d="M7 22.9585C7 22.5443 7.33579 22.2085 7.75 22.2085H9.75C10.1642 22.2085 10.5 22.5443 10.5 22.9585C10.5 23.3727 10.1642 23.7085 9.75 23.7085H7.75C7.33579 23.7085 7 23.3727 7 22.9585Z"
        fill="#252525" />
    <path
        d="M27.75 12.2085C28.1642 12.2085 28.5 12.5443 28.5 12.9585C28.5 13.3727 28.1642 13.7085 27.75 13.7085L25.75 13.7085C25.3358 13.7085 25 13.3727 25 12.9585C25 12.5443 25.3358 12.2085 25.75 12.2085H27.75Z"
        fill="#252525" />
</svg>
