<svg width="56" height="56" viewBox="0 0 56 56" fill="none" xmlns="http://www.w3.org/2000/svg">
    <rect x="0.767517" y="0.5" width="54.2672" height="55" rx="15.5" fill="white" />
    <rect x="0.767517" y="0.5" width="54.2672" height="55" rx="15.5" stroke="#F2F2F2" />
    <g clip-path="url(#clip0_299_283)">
        <path
            d="M43.5198 28.2993C43.5198 26.9883 43.4134 26.0316 43.1832 25.0395H28.2126V30.9568H37C36.8229 32.4273 35.8662 34.6419 33.7402 36.1301L33.7104 36.3282L38.4438 39.9951L38.7717 40.0278C41.7835 37.2463 43.5198 33.1537 43.5198 28.2993Z"
            fill="#4285F4" />
        <path
            d="M28.2125 43.8901C32.5176 43.8901 36.1318 42.4727 38.7717 40.0279L33.7401 36.1301C32.3937 37.0691 30.5865 37.7246 28.2125 37.7246C23.996 37.7246 20.4172 34.9432 19.1415 31.0986L18.9545 31.1145L14.0326 34.9236L13.9683 35.1025C16.5903 40.3112 21.9762 43.8901 28.2125 43.8901Z"
            fill="#34A853" />
        <path
            d="M19.1415 31.0986C18.8049 30.1065 18.6101 29.0434 18.6101 27.945C18.6101 26.8465 18.8049 25.7835 19.1238 24.7914L19.1149 24.5801L14.1313 20.7098L13.9683 20.7874C12.8876 22.9489 12.2675 25.3761 12.2675 27.945C12.2675 30.5139 12.8876 32.941 13.9683 35.1025L19.1415 31.0986Z"
            fill="#FBBC05" />
        <path
            d="M28.2125 18.1654C31.2066 18.1654 33.2263 19.4587 34.3779 20.5395L38.8779 16.1457C36.1142 13.5768 32.5176 12 28.2125 12C21.9762 12 16.5903 15.5787 13.9683 20.7874L19.1238 24.7915C20.4172 20.9469 23.996 18.1654 28.2125 18.1654Z"
            fill="#EB4335" />
    </g>
    <defs>
        <clipPath id="clip0_299_283">
            <rect width="31.2672" height="32" fill="white" transform="translate(12.2675 12)" />
        </clipPath>
    </defs>
</svg>
