<svg width="33" height="32" viewBox="0 0 33 32" fill="none" xmlns="http://www.w3.org/2000/svg">
    <path d="M4.02693 17.2775C3.52101 13.7614 3.26804 12.0034 3.98866 10.5003C4.70927 8.99713 6.24309 8.08344 9.31072 6.25607L11.1572 5.15615C13.9429 3.49671 15.3358 2.66699 16.8748 2.66699C18.4139 2.66699 19.8068 3.49671 22.5925 5.15615L24.439 6.25607C27.5066 8.08344 29.0404 8.99713 29.761 10.5003C30.4816 12.0034 30.2287 13.7614 29.7227 17.2775L29.351 19.8606C28.7012 24.3772 28.3762 26.6355 26.8095 27.9846C25.2427 29.3337 22.945 29.3337 18.3496 29.3337H15.4001C10.8047 29.3337 8.50696 29.3337 6.94021 27.9846C5.37345 26.6355 5.04851 24.3772 4.39862 19.8606L4.02693 17.2775Z" stroke="#B9CAC0" stroke-width="1.5"/>
    <path d="M20.875 24H12.875" stroke="#B9CAC0" stroke-width="1.5" stroke-linecap="round"/>
</svg>
