<svg width="33" height="32" viewBox="0 0 33 32" fill="none" xmlns="http://www.w3.org/2000/svg">
    <path fill-rule="evenodd" clip-rule="evenodd" d="M4.23395 10.4304C3.54169 11.6951 3.54169 13.2207 3.54169 16.272V18.3C3.54169 23.5012 3.54169 26.1018 5.10378 27.7176C6.66588 29.3334 9.18004 29.3334 14.2084 29.3334H19.5417C24.57 29.3334 27.0842 29.3334 28.6463 27.7176C30.2084 26.1018 30.2084 23.5012 30.2084 18.3V16.272C30.2084 13.2207 30.2084 11.6951 29.5161 10.4304C28.8238 9.16569 27.5591 8.38077 25.0296 6.81091L22.363 5.15591C19.6892 3.49647 18.3523 2.66675 16.875 2.66675C15.3978 2.66675 14.0609 3.49647 11.3871 5.15591L8.7204 6.81092C6.19095 8.38077 4.92622 9.16569 4.23395 10.4304ZM12.875 23.0001C12.3227 23.0001 11.875 23.4478 11.875 24.0001C11.875 24.5524 12.3227 25.0001 12.875 25.0001H20.875C21.4273 25.0001 21.875 24.5524 21.875 24.0001C21.875 23.4478 21.4273 23.0001 20.875 23.0001H12.875Z" fill="#144D2A"/>
</svg>
