<svg width="30" height="30" viewBox="0 0 30 30" fill="none" xmlns="http://www.w3.org/2000/svg">
    <path
        d="M23 9.66675C23 11.1395 21.8061 12.3334 20.3333 12.3334C18.8606 12.3334 17.6667 11.1395 17.6667 9.66675C17.6667 8.19399 18.8606 7.00008 20.3333 7.00008C21.8061 7.00008 23 8.19399 23 9.66675Z"
        fill="#144D2A" />
    <path fill-rule="evenodd" clip-rule="evenodd"
        d="M14.9235 0.666748H15.0765C18.1543 0.666732 20.5664 0.666719 22.4484 0.919744C24.3747 1.17873 25.8947 1.71918 27.0878 2.91226C28.2809 4.10534 28.8213 5.62537 29.0803 7.55169C29.3334 9.43367 29.3333 11.8457 29.3333 14.9236V15.0413C29.3333 17.5863 29.3333 19.6698 29.1951 21.3661C29.0562 23.0708 28.7716 24.4953 28.1345 25.6784C27.8535 26.2002 27.5082 26.6675 27.0878 27.0879C25.8947 28.281 24.3747 28.8214 22.4484 29.0804C20.5664 29.3334 18.1543 29.3334 15.0765 29.3334H14.9235C11.8456 29.3334 9.43358 29.3334 7.5516 29.0804C5.62528 28.8214 4.10525 28.281 2.91217 27.0879C1.85447 26.0302 1.30825 24.7137 1.01779 23.0807C0.732456 21.4764 0.68026 19.4805 0.669416 17.0021C0.666657 16.3716 0.666657 15.7049 0.666657 15.0014V14.9236C0.66664 11.8457 0.666627 9.43367 0.919653 7.55169C1.17864 5.62537 1.71909 4.10534 2.91217 2.91226C4.10525 1.71918 5.62528 1.17873 7.5516 0.919744C9.43358 0.666719 11.8456 0.666732 14.9235 0.666748ZM7.81809 2.90191C6.11356 3.13108 5.08593 3.56694 4.32639 4.32648C3.56684 5.08602 3.13099 6.11365 2.90182 7.81818C2.66878 9.55149 2.66666 11.8291 2.66666 15.0001C2.66666 15.3874 2.66666 15.762 2.66711 16.1247L4.00196 14.9568C5.21699 13.8936 7.04821 13.9546 8.18983 15.0962L13.9095 20.8158C14.8258 21.7322 16.2682 21.8571 17.3284 21.112L17.726 20.8326C19.2516 19.7604 21.3158 19.8846 22.7018 21.132L26.4757 24.5285C26.8556 23.7307 27.0812 22.6825 27.2017 21.2037C27.3326 19.5977 27.3333 17.5946 27.3333 15.0001C27.3333 11.8291 27.3312 9.55149 27.0982 7.81818C26.869 6.11365 26.4331 5.08602 25.6736 4.32648C24.9141 3.56694 23.8864 3.13108 22.1819 2.90191C20.4486 2.66887 18.171 2.66675 15 2.66675C11.829 2.66675 9.5514 2.66887 7.81809 2.90191Z"
        fill="#144D2A" />
</svg>
