<svg width="33" height="32" viewBox="0 0 33 32" fill="none" xmlns="http://www.w3.org/2000/svg">
    <path d="M3.29169 16.0001C3.29169 9.71469 3.29169 6.57199 5.24431 4.61937C7.19693 2.66675 10.3396 2.66675 16.625 2.66675C22.9104 2.66675 26.0531 2.66675 28.0057 4.61937C29.9584 6.57199 29.9584 9.71469 29.9584 16.0001C29.9584 22.2855 29.9584 25.4282 28.0057 27.3808C26.0531 29.3334 22.9104 29.3334 16.625 29.3334C10.3396 29.3334 7.19693 29.3334 5.24431 27.3808C3.29169 25.4282 3.29169 22.2855 3.29169 16.0001Z" stroke="#B9CAC0" stroke-width="1.5"/>
    <path d="M8.625 21.0667L10.1488 22.6667L13.9583 18.6667" stroke="#B9CAC0" stroke-width="1.5" stroke-linecap="round" stroke-linejoin="round"/>
    <path d="M8.625 11.7333L10.1488 13.3333L13.9583 9.33325" stroke="#B9CAC0" stroke-width="1.5" stroke-linecap="round" stroke-linejoin="round"/>
    <path d="M17.9583 12L24.625 12" stroke="#B9CAC0" stroke-width="1.5" stroke-linecap="round"/>
    <path d="M17.9583 21.3333H24.625" stroke="#B9CAC0" stroke-width="1.5" stroke-linecap="round"/>
</svg>
