<svg width="33" height="32" viewBox="0 0 33 32" fill="none" xmlns="http://www.w3.org/2000/svg">
    <path fill-rule="evenodd" clip-rule="evenodd"
        d="M5.24431 4.61913C3.29169 6.57175 3.29169 9.71444 3.29169 15.9998C3.29169 22.2852 3.29169 25.4279 5.24431 27.3806C7.19693 29.3332 10.3396 29.3332 16.625 29.3332C22.9104 29.3332 26.0531 29.3332 28.0057 27.3806C29.9584 25.4279 29.9584 22.2852 29.9584 15.9998C29.9584 9.71444 29.9584 6.57175 28.0057 4.61913C26.0531 2.6665 22.9104 2.6665 16.625 2.6665C10.3396 2.6665 7.19693 2.6665 5.24431 4.61913ZM14.6825 10.0228C15.0634 9.6229 15.0479 8.98992 14.648 8.60903C14.2481 8.22815 13.6151 8.24359 13.2342 8.64352L10.1488 11.8832L9.34916 11.0435C8.96827 10.6436 8.3353 10.6281 7.93537 11.009C7.53544 11.3899 7.52 12.0229 7.90088 12.4228L9.42469 14.0228C9.61344 14.221 9.87516 14.3332 10.1488 14.3332C10.4225 14.3332 10.6842 14.221 10.873 14.0228L14.6825 10.0228ZM17.9584 10.9998C17.4061 10.9998 16.9584 11.4476 16.9584 11.9998C16.9584 12.5521 17.4061 12.9998 17.9584 12.9998H24.625C25.1773 12.9998 25.625 12.5521 25.625 11.9998C25.625 11.4476 25.1773 10.9998 24.625 10.9998H17.9584ZM14.6825 19.3562C15.0634 18.9562 15.0479 18.3233 14.648 17.9424C14.2481 17.5615 13.6151 17.5769 13.2342 17.9769L10.1488 21.2165L9.34916 20.3769C8.96827 19.9769 8.3353 19.9615 7.93537 20.3424C7.53544 20.7233 7.52 21.3562 7.90088 21.7562L9.42469 23.3562C9.61344 23.5543 9.87516 23.6665 10.1488 23.6665C10.4225 23.6665 10.6842 23.5543 10.873 23.3562L14.6825 19.3562ZM17.9584 20.3332C17.4061 20.3332 16.9584 20.7809 16.9584 21.3332C16.9584 21.8855 17.4061 22.3332 17.9584 22.3332H24.625C25.1773 22.3332 25.625 21.8855 25.625 21.3332C25.625 20.7809 25.1773 20.3332 24.625 20.3332H17.9584Z"
        fill="#144D2A" />
</svg>
