<svg width="28" height="28" viewBox="0 0 28 28" fill="none" xmlns="http://www.w3.org/2000/svg">
    <path fill-rule="evenodd" clip-rule="evenodd"
        d="M27.4584 14.0003C27.4584 21.3641 21.4888 27.3337 14.125 27.3337C6.76122 27.3337 0.791687 21.3641 0.791687 14.0003C0.791687 6.63653 6.76122 0.666992 14.125 0.666992C21.4888 0.666992 27.4584 6.63653 27.4584 14.0003ZM18.125 10.0003C18.125 12.2095 16.3342 14.0003 14.125 14.0003C11.9159 14.0003 10.125 12.2095 10.125 10.0003C10.125 7.79119 11.9159 6.00033 14.125 6.00033C16.3342 6.00033 18.125 7.79119 18.125 10.0003ZM14.125 25.3337C16.5037 25.3337 18.7113 24.6008 20.5342 23.3486C21.3394 22.7955 21.6835 21.742 21.2154 20.8846C20.245 19.1073 18.2453 18.0003 14.1249 18.0003C10.0046 18.0003 8.00498 19.1073 7.03454 20.8845C6.56641 21.7419 6.91049 22.7954 7.71563 23.3485C9.5386 24.6008 11.7462 25.3337 14.125 25.3337Z"
        fill="#144D2A" />
</svg>
