<svg width="32" height="32" viewBox="0 0 32 32" fill="none" xmlns="http://www.w3.org/2000/svg">
    <rect width="32" height="32" rx="8" fill="#F5F5F5" />
    <path
        d="M15.1459 11.0225C15.5259 10.3408 15.7159 10 16 10C16.2841 10 16.4741 10.3408 16.8541 11.0225L16.9524 11.1989C17.0603 11.3926 17.1143 11.4894 17.1985 11.5533C17.2827 11.6172 17.3875 11.641 17.5972 11.6884L17.7881 11.7316C18.526 11.8986 18.895 11.982 18.9828 12.2643C19.0706 12.5466 18.819 12.8407 18.316 13.429L18.1858 13.5812C18.0429 13.7483 17.9714 13.8319 17.9392 13.9353C17.9071 14.0387 17.9179 14.1502 17.9395 14.3733L17.9592 14.5763C18.0352 15.3612 18.0733 15.7536 17.8435 15.9281C17.6136 16.1025 17.2682 15.9435 16.5773 15.6254L16.3986 15.5431C16.2022 15.4527 16.1041 15.4075 16 15.4075C15.8959 15.4075 15.7978 15.4527 15.6014 15.5431L15.4227 15.6254C14.7318 15.9435 14.3864 16.1025 14.1565 15.9281C13.9267 15.7536 13.9648 15.3612 14.0408 14.5763L14.0605 14.3733C14.0821 14.1502 14.0929 14.0387 14.0608 13.9353C14.0286 13.8319 13.9571 13.7483 13.8142 13.5812L13.684 13.429C13.181 12.8407 12.9294 12.5466 13.0172 12.2643C13.105 11.982 13.474 11.8986 14.2119 11.7316L14.4028 11.6884C14.6125 11.641 14.7173 11.6172 14.8015 11.5533C14.8857 11.4894 14.9397 11.3926 15.0476 11.1989L15.1459 11.0225Z"
        stroke="#505050" stroke-width="1.5" />
    <path
        d="M23 13C23 16.866 19.866 20 16 20C12.134 20 9 16.866 9 13C9 9.13401 12.134 6 16 6C19.866 6 23 9.13401 23 13Z"
        stroke="#505050" stroke-width="1.5" />
    <path
        d="M16 20.0678L12.2285 23.9728C11.6884 24.5321 11.4184 24.8117 11.1897 24.9084C10.6685 25.1289 10.0904 24.9402 9.81628 24.4602C9.69597 24.2495 9.65848 23.8695 9.5835 23.1095C9.54117 22.6804 9.52 22.4658 9.45575 22.2861C9.31191 21.8838 9.00966 21.5708 8.6211 21.4219C8.44754 21.3554 8.24033 21.3335 7.82589 21.2896C7.09187 21.212 6.72486 21.1732 6.52138 21.0486C6.05772 20.7648 5.87548 20.1662 6.08843 19.6266C6.18188 19.3898 6.45194 19.1102 6.99206 18.5509L9.45575 16"
        stroke="#505050" stroke-width="1.5" />
    <path
        d="M16 20.0678L19.7715 23.9728C20.3116 24.5321 20.5816 24.8117 20.8103 24.9084C21.3315 25.1289 21.9096 24.9402 22.1837 24.4602C22.304 24.2495 22.3415 23.8695 22.4165 23.1095C22.4588 22.6804 22.48 22.4658 22.5442 22.2861C22.6881 21.8838 22.9903 21.5708 23.3789 21.4219C23.5525 21.3554 23.7597 21.3335 24.1741 21.2896C24.9081 21.212 25.2751 21.1732 25.4786 21.0486C25.9423 20.7648 26.1245 20.1662 25.9116 19.6266C25.8181 19.3898 25.5481 19.1102 25.0079 18.5509L22.5442 16"
        stroke="#505050" stroke-width="1.5" />
</svg>
