<svg width="87" height="114" viewBox="0 0 87 114" fill="none" xmlns="http://www.w3.org/2000/svg">
    <path
        d="M70.585 72.9971C70.1474 73.0088 69.7276 73.1734 69.3985 73.4621C63.9078 78.2827 57.1864 81.4807 49.982 82.6979C49.7033 82.745 49.4389 82.8544 49.2084 83.018C48.978 83.1816 48.7875 83.395 48.6512 83.6426C48.5149 83.8902 48.4364 84.1653 48.4214 84.4475C48.4064 84.7298 48.4554 85.0118 48.5647 85.2724L59.877 112.24C60.0212 112.583 60.264 112.875 60.5744 113.079C60.8848 113.283 61.2489 113.39 61.6205 113.387C61.9921 113.384 62.3544 113.271 62.6614 113.062C62.9685 112.852 63.2064 112.557 63.345 112.212L68.5342 99.2808L81.6556 104.547C81.9987 104.685 82.3749 104.718 82.7368 104.642C83.0988 104.567 83.4303 104.386 83.6898 104.123C83.9492 103.859 84.1251 103.525 84.1951 103.162C84.2652 102.799 84.2264 102.423 84.0835 102.082L72.3648 74.144C72.2187 73.7952 71.9705 73.4988 71.6529 73.2936C71.3353 73.0884 70.963 72.987 70.585 72.9971Z"
        fill="#FF5757" />
    <path
        d="M14.6279 74.1657L2.9165 102.086C2.27375 103.621 3.80009 105.17 5.34448 104.55L18.4658 99.2842L23.655 112.215C24.281 113.769 26.4743 113.785 27.123 112.244L38.4499 85.2429C38.9175 84.1273 38.2222 82.8675 37.029 82.6685C29.8224 81.4689 23.0927 78.2865 17.5906 73.4802C17.2571 73.1896 16.8317 73.026 16.3894 73.0189C15.6223 73.0047 14.9246 73.4581 14.6279 74.1657Z"
        fill="#FF5757" />
    <path
        d="M43.5009 0.748535C19.7059 0.748535 0.372253 20.0821 0.372253 43.8772C0.372253 67.6723 19.7059 86.9921 43.5009 86.9921C67.296 86.9921 86.6296 67.6723 86.6296 43.8772C86.6296 20.0821 67.296 0.748535 43.5009 0.748535Z"
        fill="#FFCB3C" />
    <path
        d="M43.5009 10.1187C24.8835 10.1187 9.75647 25.2596 9.75647 43.877C9.75647 62.4944 24.8835 77.6214 43.5009 77.6214C62.1183 77.6214 77.2454 62.4944 77.2454 43.877C77.2454 25.2596 62.1183 10.1187 43.5009 10.1187Z"
        fill="#FFEA54" />
    <path
        d="M43.4871 22.3405C43.1288 22.3671 42.7858 22.4959 42.4987 22.7118C42.2116 22.9278 41.9926 23.2217 41.8677 23.5585L36.8988 36.7213L22.8224 37.15C22.4402 37.1637 22.0713 37.2941 21.7653 37.5235C21.4592 37.7528 21.2306 38.0703 21.1101 38.4333C20.9896 38.7963 20.983 39.1874 21.0911 39.5542C21.1993 39.9211 21.417 40.2461 21.7151 40.4857L32.6911 49.2886L28.7602 62.7974C28.6518 63.1666 28.6596 63.5604 28.7825 63.925C28.9054 64.2897 29.1375 64.6075 29.4473 64.8357C29.7571 65.0639 30.1296 65.1913 30.5143 65.2006C30.899 65.2098 31.2772 65.1005 31.5976 64.8874L43.3487 57.1641L54.989 65.0812C55.3063 65.298 55.6826 65.4121 56.0668 65.408C56.4511 65.4039 56.8248 65.2818 57.1375 65.0583C57.4501 64.8348 57.6865 64.5207 57.8146 64.1584C57.9428 63.7961 57.9566 63.4031 57.8541 63.0327L54.1447 49.4547L65.259 40.8455C65.5648 40.612 65.7914 40.2901 65.9079 39.9234C66.0244 39.5567 66.0253 39.163 65.9105 38.7958C65.7956 38.4285 65.5706 38.1053 65.2658 37.8704C64.9611 37.6354 64.5915 37.4999 64.2071 37.4822L50.1446 36.8176L45.3833 23.5855C45.2467 23.1993 44.9874 22.8682 44.645 22.6433C44.3025 22.4183 43.8958 22.3125 43.4871 22.3405Z"
        fill="#FEAA2B" />
</svg>
