<svg width="351" height="48" viewBox="0 0 351 48" fill="none" xmlns="http://www.w3.org/2000/svg">
    <rect width="351" height="48" rx="8" fill="#144D2A" />
    <circle cx="140" cy="23.5" r="9.5" stroke="white" stroke-width="1.5" />
    <path d="M147 30.5L150.5 34" stroke="white" stroke-width="1.5" stroke-linecap="round" />
    <path
        d="M168.125 21.4205C168.064 20.8826 167.814 20.4659 167.375 20.1705C166.936 19.8712 166.383 19.7216 165.716 19.7216C165.239 19.7216 164.826 19.7973 164.477 19.9489C164.129 20.0966 163.858 20.3011 163.665 20.5625C163.475 20.8201 163.381 21.1136 163.381 21.4432C163.381 21.7197 163.445 21.9583 163.574 22.1591C163.706 22.3598 163.879 22.5284 164.091 22.6648C164.307 22.7973 164.538 22.9091 164.784 23C165.03 23.0871 165.267 23.1591 165.494 23.2159L166.631 23.5114C167.002 23.6023 167.383 23.7254 167.773 23.8807C168.163 24.036 168.525 24.2405 168.858 24.4943C169.191 24.7481 169.46 25.0625 169.665 25.4375C169.873 25.8125 169.977 26.2614 169.977 26.7841C169.977 27.4432 169.807 28.0284 169.466 28.5398C169.129 29.0511 168.638 29.4545 167.994 29.75C167.354 30.0455 166.58 30.1932 165.67 30.1932C164.799 30.1932 164.045 30.0549 163.409 29.7784C162.773 29.5019 162.275 29.1098 161.915 28.6023C161.555 28.0909 161.356 27.4848 161.318 26.7841H163.08C163.114 27.2045 163.25 27.5549 163.489 27.8352C163.731 28.1117 164.04 28.3182 164.415 28.4545C164.794 28.5871 165.208 28.6534 165.659 28.6534C166.155 28.6534 166.597 28.5758 166.983 28.4205C167.373 28.2614 167.68 28.0417 167.903 27.7614C168.127 27.4773 168.239 27.1458 168.239 26.767C168.239 26.4223 168.14 26.1402 167.943 25.9205C167.75 25.7008 167.487 25.5189 167.153 25.375C166.824 25.2311 166.451 25.1042 166.034 24.9943L164.659 24.6193C163.727 24.3655 162.989 23.9924 162.443 23.5C161.902 23.0076 161.631 22.3561 161.631 21.5455C161.631 20.875 161.813 20.2898 162.176 19.7898C162.54 19.2898 163.032 18.9015 163.653 18.625C164.275 18.3447 164.975 18.2045 165.756 18.2045C166.544 18.2045 167.239 18.3428 167.841 18.6193C168.447 18.8958 168.924 19.2765 169.273 19.7614C169.621 20.2424 169.803 20.7955 169.818 21.4205H168.125ZM175.7 30.1761C174.84 30.1761 174.1 29.9924 173.479 29.625C172.861 29.2538 172.384 28.733 172.047 28.0625C171.714 27.3883 171.547 26.5985 171.547 25.6932C171.547 24.7992 171.714 24.0114 172.047 23.3295C172.384 22.6477 172.854 22.1155 173.456 21.733C174.062 21.3504 174.77 21.1591 175.581 21.1591C176.073 21.1591 176.551 21.2405 177.013 21.4034C177.475 21.5663 177.89 21.822 178.257 22.1705C178.625 22.5189 178.914 22.9716 179.126 23.5284C179.339 24.0814 179.445 24.7538 179.445 25.5455V26.1477H172.507V24.875H177.78C177.78 24.428 177.689 24.0322 177.507 23.6875C177.325 23.339 177.07 23.0644 176.74 22.8636C176.414 22.6629 176.032 22.5625 175.592 22.5625C175.115 22.5625 174.698 22.6799 174.342 22.9148C173.99 23.1458 173.717 23.4489 173.524 23.8239C173.335 24.1951 173.24 24.5985 173.24 25.0341V26.0284C173.24 26.6117 173.342 27.108 173.547 27.517C173.755 27.9261 174.045 28.2386 174.416 28.4545C174.787 28.6667 175.221 28.7727 175.717 28.7727C176.039 28.7727 176.333 28.7273 176.598 28.6364C176.863 28.5417 177.092 28.4015 177.286 28.2159C177.479 28.0303 177.626 27.8011 177.729 27.5284L179.337 27.8182C179.208 28.2917 178.977 28.7064 178.643 29.0625C178.314 29.4148 177.899 29.6894 177.399 29.8864C176.903 30.0795 176.337 30.1761 175.7 30.1761ZM183.869 30.1932C183.316 30.1932 182.816 30.0909 182.369 29.8864C181.922 29.678 181.568 29.3769 181.307 28.983C181.049 28.589 180.92 28.1061 180.92 27.5341C180.92 27.0417 181.015 26.6364 181.205 26.3182C181.394 26 181.65 25.7481 181.972 25.5625C182.294 25.3769 182.653 25.2367 183.051 25.142C183.449 25.0473 183.854 24.9754 184.267 24.9261C184.79 24.8655 185.214 24.8163 185.54 24.7784C185.866 24.7367 186.102 24.6705 186.25 24.5795C186.398 24.4886 186.472 24.3409 186.472 24.1364V24.0966C186.472 23.6004 186.331 23.2159 186.051 22.9432C185.775 22.6705 185.362 22.5341 184.812 22.5341C184.241 22.5341 183.79 22.661 183.46 22.9148C183.134 23.1648 182.909 23.4432 182.784 23.75L181.188 23.3864C181.377 22.8561 181.653 22.428 182.017 22.1023C182.384 21.7727 182.807 21.5341 183.284 21.3864C183.761 21.2348 184.263 21.1591 184.79 21.1591C185.138 21.1591 185.508 21.2008 185.898 21.2841C186.292 21.3636 186.659 21.5114 187 21.7273C187.345 21.9432 187.627 22.2519 187.847 22.6534C188.066 23.0511 188.176 23.5682 188.176 24.2045V30H186.517V28.8068H186.449C186.339 29.0265 186.174 29.2424 185.955 29.4545C185.735 29.6667 185.453 29.8428 185.108 29.983C184.763 30.1231 184.35 30.1932 183.869 30.1932ZM184.239 28.8295C184.708 28.8295 185.11 28.7367 185.443 28.5511C185.78 28.3655 186.036 28.1231 186.21 27.8239C186.388 27.5208 186.477 27.197 186.477 26.8523V25.7273C186.417 25.7879 186.299 25.8447 186.125 25.8977C185.955 25.947 185.759 25.9905 185.54 26.0284C185.32 26.0625 185.106 26.0947 184.898 26.125C184.689 26.1515 184.515 26.1742 184.375 26.1932C184.045 26.2348 183.744 26.3049 183.472 26.4034C183.203 26.5019 182.987 26.6439 182.824 26.8295C182.665 27.0114 182.585 27.2538 182.585 27.5568C182.585 27.9773 182.741 28.2955 183.051 28.5114C183.362 28.7235 183.758 28.8295 184.239 28.8295ZM190.439 30V21.2727H192.081V22.6591H192.172C192.331 22.1894 192.611 21.8201 193.013 21.5511C193.418 21.2784 193.876 21.142 194.388 21.142C194.494 21.142 194.619 21.1458 194.763 21.1534C194.911 21.161 195.026 21.1705 195.109 21.1818V22.8068C195.041 22.7879 194.92 22.767 194.746 22.7443C194.571 22.7178 194.397 22.7045 194.223 22.7045C193.821 22.7045 193.464 22.7898 193.149 22.9602C192.839 23.1269 192.592 23.3598 192.411 23.6591C192.229 23.9545 192.138 24.2917 192.138 24.6705V30H190.439ZM199.943 30.1761C199.098 30.1761 198.371 29.9848 197.761 29.6023C197.155 29.2159 196.689 28.6837 196.364 28.0057C196.038 27.3277 195.875 26.5511 195.875 25.6761C195.875 24.7898 196.042 24.0076 196.375 23.3295C196.708 22.6477 197.178 22.1155 197.784 21.733C198.39 21.3504 199.104 21.1591 199.926 21.1591C200.589 21.1591 201.18 21.2822 201.699 21.5284C202.218 21.7708 202.636 22.1117 202.955 22.5511C203.277 22.9905 203.468 23.5038 203.528 24.0909H201.875C201.784 23.6818 201.576 23.3295 201.25 23.0341C200.928 22.7386 200.496 22.5909 199.955 22.5909C199.481 22.5909 199.066 22.7159 198.71 22.9659C198.358 23.2121 198.083 23.5644 197.886 24.0227C197.689 24.4773 197.591 25.0152 197.591 25.6364C197.591 26.2727 197.688 26.822 197.881 27.2841C198.074 27.7462 198.347 28.1042 198.699 28.358C199.055 28.6117 199.473 28.7386 199.955 28.7386C200.277 28.7386 200.568 28.6799 200.83 28.5625C201.095 28.4413 201.316 28.2689 201.494 28.0455C201.676 27.822 201.803 27.553 201.875 27.2386H203.528C203.468 27.803 203.284 28.3068 202.977 28.75C202.67 29.1932 202.259 29.5417 201.744 29.7955C201.233 30.0492 200.633 30.1761 199.943 30.1761ZM207.044 24.8182V30H205.345V18.3636H207.021V22.6932H207.129C207.334 22.2235 207.646 21.8504 208.067 21.5739C208.487 21.2973 209.036 21.1591 209.714 21.1591C210.313 21.1591 210.836 21.2822 211.283 21.5284C211.733 21.7746 212.082 22.142 212.328 22.6307C212.578 23.1155 212.703 23.7216 212.703 24.4489V30H211.004V24.6534C211.004 24.0133 210.839 23.517 210.51 23.1648C210.18 22.8087 209.722 22.6307 209.135 22.6307C208.733 22.6307 208.374 22.7159 208.055 22.8864C207.741 23.0568 207.493 23.3068 207.311 23.6364C207.133 23.9621 207.044 24.3561 207.044 24.8182Z"
        fill="white" />
</svg>
