<svg width="32" height="32" viewBox="0 0 32 32" fill="none" xmlns="http://www.w3.org/2000/svg">
    <rect width="32" height="32" rx="8" fill="#F5F5F5" />
    <path
        d="M16.4417 18.553L14.1358 21.2531C13.1412 22.4177 12.6439 23 12 23C11.3561 23 10.8588 22.4177 9.86418 21.2531L7.55829 18.553C6.51943 17.3366 6 16.7284 6 16C6 15.2716 6.51943 14.6634 7.55829 13.447L9.86418 10.7469C10.8588 9.58231 11.3561 9 12 9C12.6439 9 13.1412 9.58231 14.1358 10.7469L16.4417 13.447C17.4806 14.6634 18 15.2716 18 16C18 16.7284 17.4806 17.3366 16.4417 18.553Z"
        stroke="#505050" stroke-width="1.5" stroke-linecap="round" stroke-linejoin="round" />
    <path
        d="M17 23L20.5118 18.6032C21.5039 17.361 22 16.7398 22 16C22 15.2602 21.5039 14.639 20.5118 13.3968L17 9"
        stroke="#505050" stroke-width="1.5" stroke-linecap="round" stroke-linejoin="round" />
    <path
        d="M21 23L24.5118 18.6032C25.5039 17.361 26 16.7398 26 16C26 15.2602 25.5039 14.639 24.5118 13.3968L21 9"
        stroke="#505050" stroke-width="1.5" stroke-linecap="round" stroke-linejoin="round" />
</svg>
