<svg width="32" height="32" viewBox="0 0 32 32" fill="none" xmlns="http://www.w3.org/2000/svg">
    <rect width="32" height="32" rx="8" fill="#F5F5F5" />
    <path
        d="M24.3927 12.0317L22.6457 10.5146C21.3871 9.42153 20.8937 8.83352 20.2121 9.04139C19.3622 9.30059 19.642 10.9361 19.642 11.4882C18.3206 11.4882 16.9468 11.3866 15.6443 11.5984C11.3445 12.2974 10 15.3566 10 18.6525C11.217 17.9065 12.4327 17.0746 13.8954 16.7289C15.7212 16.2973 17.7603 16.5032 19.642 16.5032C19.642 17.0554 19.3622 18.6909 20.2121 18.9501C20.9844 19.1856 21.3871 18.5699 22.6457 17.4769L24.3927 15.9598C25.4642 15.0293 26 14.564 26 13.9957C26 13.4275 25.4642 12.9622 24.3927 12.0317Z"
        stroke="#505050" stroke-width="1.5" stroke-linecap="round" stroke-linejoin="round" />
    <path
        d="M14.5676 7C10.7073 7.00694 8.68594 7.10152 7.39411 8.39073C6 9.78202 6 12.0213 6 16.4997C6 20.9782 6 23.2174 7.3941 24.6087C8.78821 26 11.032 26 15.5195 26C20.0071 26 22.2509 26 23.645 24.6087C24.6156 23.64 24.9104 22.2603 25 20"
        stroke="#505050" stroke-width="1.5" stroke-linecap="round" stroke-linejoin="round" />
</svg>
